<mxfile host="Electron" agent="Mozilla/5.0 (Windows NT 10.0; Win64; x64) AppleWebKit/537.36 (KHTML, like Gecko) draw.io/21.7.5 Chrome/114.0.5735.289 Electron/25.8.1 Safari/537.36" modified="2025-05-31T20:14:53.781Z" version="21.7.5" etag="w3OyCdjqwDuW8dcJELCG" type="device">
  <diagram name="Page-1" id="X1QWP47nT5EAFTCfbevn">
    <mxGraphModel dx="4365" dy="2271" grid="1" gridSize="10" guides="1" tooltips="1" connect="1" arrows="1" fold="1" page="1" pageScale="1" pageWidth="827" pageHeight="1169" math="0" shadow="0">
      <root>
        <mxCell id="0" />
        <mxCell id="1" parent="0" />
        <mxCell id="zFZnpQMPPgIZC6EG3GRi-1" value="Easy Save Application Option Meunu" style="swimlane;whiteSpace=wrap;fillColor=#e6d0de;strokeColor=#996185;swimlaneLine=1;container=0;gradientColor=#d5739d;" parent="1" vertex="1">
          <mxGeometry x="690" y="-535.99" width="1500" height="2465.99" as="geometry">
            <mxRectangle x="200" y="-610" width="80" height="30" as="alternateBounds" />
          </mxGeometry>
        </mxCell>
        <mxCell id="zFZnpQMPPgIZC6EG3GRi-2" style="edgeStyle=orthogonalEdgeStyle;rounded=0;orthogonalLoop=1;jettySize=auto;html=1;exitX=0.5;exitY=1;exitDx=0;exitDy=0;entryX=0.5;entryY=0;entryDx=0;entryDy=0;strokeColor=#996185;" parent="zFZnpQMPPgIZC6EG3GRi-1" source="zFZnpQMPPgIZC6EG3GRi-3" target="zFZnpQMPPgIZC6EG3GRi-6" edge="1">
          <mxGeometry relative="1" as="geometry" />
        </mxCell>
        <mxCell id="zFZnpQMPPgIZC6EG3GRi-3" value="Show Option Menu" style="fillColor=#e6d0de;strokeColor=#996185;gradientColor=#d5739d;" parent="zFZnpQMPPgIZC6EG3GRi-1" vertex="1">
          <mxGeometry x="180.00000000000009" y="189.99" width="171.78" height="60" as="geometry" />
        </mxCell>
        <mxCell id="zFZnpQMPPgIZC6EG3GRi-4" style="edgeStyle=orthogonalEdgeStyle;rounded=0;orthogonalLoop=1;jettySize=auto;html=1;exitX=0.5;exitY=1;exitDx=0;exitDy=0;entryX=0.5;entryY=0;entryDx=0;entryDy=0;" parent="zFZnpQMPPgIZC6EG3GRi-1" source="zFZnpQMPPgIZC6EG3GRi-6" target="zFZnpQMPPgIZC6EG3GRi-11" edge="1">
          <mxGeometry relative="1" as="geometry" />
        </mxCell>
        <mxCell id="zFZnpQMPPgIZC6EG3GRi-5" style="edgeStyle=orthogonalEdgeStyle;rounded=0;orthogonalLoop=1;jettySize=auto;html=1;exitX=1;exitY=0.5;exitDx=0;exitDy=0;entryX=1;entryY=0.5;entryDx=0;entryDy=0;" parent="zFZnpQMPPgIZC6EG3GRi-1" source="zFZnpQMPPgIZC6EG3GRi-6" target="zFZnpQMPPgIZC6EG3GRi-3" edge="1">
          <mxGeometry relative="1" as="geometry">
            <Array as="points">
              <mxPoint x="400" y="350" />
              <mxPoint x="400" y="220" />
            </Array>
          </mxGeometry>
        </mxCell>
        <mxCell id="zFZnpQMPPgIZC6EG3GRi-6" value="User selected a choice ?" style="rhombus;fillColor=#e6d0de;strokeColor=#996185;gradientColor=#d5739d;" parent="zFZnpQMPPgIZC6EG3GRi-1" vertex="1">
          <mxGeometry x="190.89000000000001" y="305.99" width="150" height="88" as="geometry" />
        </mxCell>
        <mxCell id="zFZnpQMPPgIZC6EG3GRi-7" value="No" style="text;html=1;align=center;verticalAlign=middle;whiteSpace=wrap;rounded=0;" parent="zFZnpQMPPgIZC6EG3GRi-1" vertex="1">
          <mxGeometry x="325.33" y="305.99" width="60" height="30" as="geometry" />
        </mxCell>
        <mxCell id="zFZnpQMPPgIZC6EG3GRi-8" value="Yes" style="text;html=1;align=center;verticalAlign=middle;whiteSpace=wrap;rounded=0;" parent="zFZnpQMPPgIZC6EG3GRi-1" vertex="1">
          <mxGeometry x="130.89" y="449.99" width="60" height="30" as="geometry" />
        </mxCell>
        <mxCell id="zFZnpQMPPgIZC6EG3GRi-9" style="edgeStyle=orthogonalEdgeStyle;rounded=0;orthogonalLoop=1;jettySize=auto;html=1;exitX=0.5;exitY=1;exitDx=0;exitDy=0;entryX=0.5;entryY=0;entryDx=0;entryDy=0;" parent="zFZnpQMPPgIZC6EG3GRi-1" source="zFZnpQMPPgIZC6EG3GRi-11" target="zFZnpQMPPgIZC6EG3GRi-16" edge="1">
          <mxGeometry relative="1" as="geometry" />
        </mxCell>
        <mxCell id="zFZnpQMPPgIZC6EG3GRi-11" value="Choice == Exit &#xa;to Menu ?" style="rhombus;fillColor=#e6d0de;strokeColor=#996185;gradientColor=#d5739d;" parent="zFZnpQMPPgIZC6EG3GRi-1" vertex="1">
          <mxGeometry x="190.88999999999996" y="449.99" width="150" height="88" as="geometry" />
        </mxCell>
        <mxCell id="zFZnpQMPPgIZC6EG3GRi-12" value="Yes" style="text;html=1;align=center;verticalAlign=middle;whiteSpace=wrap;rounded=0;" parent="zFZnpQMPPgIZC6EG3GRi-1" vertex="1">
          <mxGeometry x="190.88999999999996" y="385.99" width="60" height="30" as="geometry" />
        </mxCell>
        <mxCell id="zFZnpQMPPgIZC6EG3GRi-13" value="No" style="text;html=1;align=center;verticalAlign=middle;whiteSpace=wrap;rounded=0;" parent="zFZnpQMPPgIZC6EG3GRi-1" vertex="1">
          <mxGeometry x="190.88999999999996" y="537.99" width="60" height="30" as="geometry" />
        </mxCell>
        <mxCell id="zFZnpQMPPgIZC6EG3GRi-14" value="Yes" style="text;html=1;align=center;verticalAlign=middle;whiteSpace=wrap;rounded=0;" parent="zFZnpQMPPgIZC6EG3GRi-1" vertex="1">
          <mxGeometry x="325.33" y="599.99" width="60" height="30" as="geometry" />
        </mxCell>
        <mxCell id="zFZnpQMPPgIZC6EG3GRi-15" style="edgeStyle=orthogonalEdgeStyle;rounded=0;orthogonalLoop=1;jettySize=auto;html=1;exitX=0.5;exitY=1;exitDx=0;exitDy=0;" parent="zFZnpQMPPgIZC6EG3GRi-1" source="zFZnpQMPPgIZC6EG3GRi-16" target="zFZnpQMPPgIZC6EG3GRi-20" edge="1">
          <mxGeometry relative="1" as="geometry" />
        </mxCell>
        <mxCell id="zFZnpQMPPgIZC6EG3GRi-16" value="Choice == &#xa;Change Language ?" style="rhombus;fillColor=#e6d0de;strokeColor=#996185;gradientColor=#d5739d;" parent="zFZnpQMPPgIZC6EG3GRi-1" vertex="1">
          <mxGeometry x="190.88999999999996" y="603.99" width="150" height="88" as="geometry" />
        </mxCell>
        <mxCell id="zFZnpQMPPgIZC6EG3GRi-17" value="No" style="text;html=1;align=center;verticalAlign=middle;whiteSpace=wrap;rounded=0;" parent="zFZnpQMPPgIZC6EG3GRi-1" vertex="1">
          <mxGeometry x="190.88999999999996" y="691.99" width="60" height="30" as="geometry" />
        </mxCell>
        <mxCell id="zFZnpQMPPgIZC6EG3GRi-18" value="Yes" style="text;html=1;align=center;verticalAlign=middle;whiteSpace=wrap;rounded=0;" parent="zFZnpQMPPgIZC6EG3GRi-1" vertex="1">
          <mxGeometry x="325.33" y="736.99" width="60" height="30" as="geometry" />
        </mxCell>
        <mxCell id="zFZnpQMPPgIZC6EG3GRi-19" style="edgeStyle=orthogonalEdgeStyle;rounded=0;orthogonalLoop=1;jettySize=auto;html=1;exitX=0.5;exitY=1;exitDx=0;exitDy=0;entryX=0.5;entryY=0;entryDx=0;entryDy=0;" parent="zFZnpQMPPgIZC6EG3GRi-1" source="zFZnpQMPPgIZC6EG3GRi-20" target="zFZnpQMPPgIZC6EG3GRi-24" edge="1">
          <mxGeometry relative="1" as="geometry" />
        </mxCell>
        <mxCell id="zFZnpQMPPgIZC6EG3GRi-20" value="Choice == &#xa;Change Log Type ?" style="rhombus;fillColor=#e6d0de;strokeColor=#996185;gradientColor=#d5739d;" parent="zFZnpQMPPgIZC6EG3GRi-1" vertex="1">
          <mxGeometry x="190.88999999999996" y="740.99" width="150" height="88" as="geometry" />
        </mxCell>
        <mxCell id="zFZnpQMPPgIZC6EG3GRi-21" value="No" style="text;html=1;align=center;verticalAlign=middle;whiteSpace=wrap;rounded=0;" parent="zFZnpQMPPgIZC6EG3GRi-1" vertex="1">
          <mxGeometry x="190.88999999999996" y="828.99" width="60" height="30" as="geometry" />
        </mxCell>
        <mxCell id="zFZnpQMPPgIZC6EG3GRi-22" value="Yes" style="text;html=1;align=center;verticalAlign=middle;whiteSpace=wrap;rounded=0;" parent="zFZnpQMPPgIZC6EG3GRi-1" vertex="1">
          <mxGeometry x="325.3299999999999" y="875.99" width="60" height="30" as="geometry" />
        </mxCell>
        <mxCell id="zFZnpQMPPgIZC6EG3GRi-23" style="edgeStyle=orthogonalEdgeStyle;rounded=0;orthogonalLoop=1;jettySize=auto;html=1;exitX=0.5;exitY=1;exitDx=0;exitDy=0;" parent="zFZnpQMPPgIZC6EG3GRi-1" source="zFZnpQMPPgIZC6EG3GRi-24" target="zFZnpQMPPgIZC6EG3GRi-28" edge="1">
          <mxGeometry relative="1" as="geometry" />
        </mxCell>
        <mxCell id="zFZnpQMPPgIZC6EG3GRi-24" value="Choice == Set &#xa;Daily Log Path ?" style="rhombus;fillColor=#e6d0de;strokeColor=#996185;gradientColor=#d5739d;" parent="zFZnpQMPPgIZC6EG3GRi-1" vertex="1">
          <mxGeometry x="190.88999999999987" y="879.99" width="150" height="88" as="geometry" />
        </mxCell>
        <mxCell id="zFZnpQMPPgIZC6EG3GRi-25" value="No" style="text;html=1;align=center;verticalAlign=middle;whiteSpace=wrap;rounded=0;" parent="zFZnpQMPPgIZC6EG3GRi-1" vertex="1">
          <mxGeometry x="190.88999999999987" y="967.99" width="60" height="30" as="geometry" />
        </mxCell>
        <mxCell id="zFZnpQMPPgIZC6EG3GRi-26" value="Yes" style="text;html=1;align=center;verticalAlign=middle;whiteSpace=wrap;rounded=0;" parent="zFZnpQMPPgIZC6EG3GRi-1" vertex="1">
          <mxGeometry x="325.3299999999999" y="1012.99" width="60" height="30" as="geometry" />
        </mxCell>
        <mxCell id="zFZnpQMPPgIZC6EG3GRi-27" style="edgeStyle=orthogonalEdgeStyle;rounded=0;orthogonalLoop=1;jettySize=auto;html=1;exitX=0.5;exitY=1;exitDx=0;exitDy=0;entryX=0.5;entryY=0;entryDx=0;entryDy=0;" parent="zFZnpQMPPgIZC6EG3GRi-1" source="zFZnpQMPPgIZC6EG3GRi-28" target="zFZnpQMPPgIZC6EG3GRi-32" edge="1">
          <mxGeometry relative="1" as="geometry" />
        </mxCell>
        <mxCell id="zFZnpQMPPgIZC6EG3GRi-28" value="Choice == Reset &#xa;Daily Log Path ?" style="rhombus;fillColor=#e6d0de;strokeColor=#996185;gradientColor=#d5739d;" parent="zFZnpQMPPgIZC6EG3GRi-1" vertex="1">
          <mxGeometry x="190.88999999999987" y="1016.99" width="150" height="88" as="geometry" />
        </mxCell>
        <mxCell id="zFZnpQMPPgIZC6EG3GRi-29" value="No" style="text;html=1;align=center;verticalAlign=middle;whiteSpace=wrap;rounded=0;" parent="zFZnpQMPPgIZC6EG3GRi-1" vertex="1">
          <mxGeometry x="190.88999999999987" y="1104.99" width="60" height="30" as="geometry" />
        </mxCell>
        <mxCell id="zFZnpQMPPgIZC6EG3GRi-30" value="Yes" style="text;html=1;align=center;verticalAlign=middle;whiteSpace=wrap;rounded=0;" parent="zFZnpQMPPgIZC6EG3GRi-1" vertex="1">
          <mxGeometry x="325.3299999999999" y="1145.99" width="60" height="30" as="geometry" />
        </mxCell>
        <mxCell id="zFZnpQMPPgIZC6EG3GRi-31" style="edgeStyle=orthogonalEdgeStyle;rounded=0;orthogonalLoop=1;jettySize=auto;html=1;exitX=0.5;exitY=1;exitDx=0;exitDy=0;" parent="zFZnpQMPPgIZC6EG3GRi-1" source="zFZnpQMPPgIZC6EG3GRi-32" target="zFZnpQMPPgIZC6EG3GRi-36" edge="1">
          <mxGeometry relative="1" as="geometry" />
        </mxCell>
        <mxCell id="zFZnpQMPPgIZC6EG3GRi-32" value="Choice == Set &#xa;Status Log Path ?" style="rhombus;fillColor=#e6d0de;strokeColor=#996185;gradientColor=#d5739d;" parent="zFZnpQMPPgIZC6EG3GRi-1" vertex="1">
          <mxGeometry x="190.88999999999987" y="1149.99" width="150" height="88" as="geometry" />
        </mxCell>
        <mxCell id="zFZnpQMPPgIZC6EG3GRi-33" value="No" style="text;html=1;align=center;verticalAlign=middle;whiteSpace=wrap;rounded=0;" parent="zFZnpQMPPgIZC6EG3GRi-1" vertex="1">
          <mxGeometry x="190.88999999999987" y="1237.99" width="60" height="30" as="geometry" />
        </mxCell>
        <mxCell id="zFZnpQMPPgIZC6EG3GRi-34" value="Yes" style="text;html=1;align=center;verticalAlign=middle;whiteSpace=wrap;rounded=0;" parent="zFZnpQMPPgIZC6EG3GRi-1" vertex="1">
          <mxGeometry x="325.3299999999999" y="1282.99" width="60" height="30" as="geometry" />
        </mxCell>
        <mxCell id="zFZnpQMPPgIZC6EG3GRi-35" style="edgeStyle=orthogonalEdgeStyle;rounded=0;orthogonalLoop=1;jettySize=auto;html=1;exitX=0.5;exitY=1;exitDx=0;exitDy=0;entryX=0.5;entryY=0;entryDx=0;entryDy=0;" parent="zFZnpQMPPgIZC6EG3GRi-1" source="zFZnpQMPPgIZC6EG3GRi-36" target="zFZnpQMPPgIZC6EG3GRi-40" edge="1">
          <mxGeometry relative="1" as="geometry" />
        </mxCell>
        <mxCell id="zFZnpQMPPgIZC6EG3GRi-36" value="Choice == Reset &#xa;Status Log Path ?" style="rhombus;fillColor=#e6d0de;strokeColor=#996185;gradientColor=#d5739d;" parent="zFZnpQMPPgIZC6EG3GRi-1" vertex="1">
          <mxGeometry x="190.88999999999987" y="1286.99" width="150" height="88" as="geometry" />
        </mxCell>
        <mxCell id="zFZnpQMPPgIZC6EG3GRi-37" value="No" style="text;html=1;align=center;verticalAlign=middle;whiteSpace=wrap;rounded=0;" parent="zFZnpQMPPgIZC6EG3GRi-1" vertex="1">
          <mxGeometry x="190.88999999999987" y="1374.99" width="60" height="30" as="geometry" />
        </mxCell>
        <mxCell id="zFZnpQMPPgIZC6EG3GRi-38" value="Yes" style="text;html=1;align=center;verticalAlign=middle;whiteSpace=wrap;rounded=0;" parent="zFZnpQMPPgIZC6EG3GRi-1" vertex="1">
          <mxGeometry x="325.3299999999999" y="1421.99" width="60" height="30" as="geometry" />
        </mxCell>
        <mxCell id="zFZnpQMPPgIZC6EG3GRi-39" style="edgeStyle=orthogonalEdgeStyle;rounded=0;orthogonalLoop=1;jettySize=auto;html=1;exitX=0.5;exitY=1;exitDx=0;exitDy=0;" parent="zFZnpQMPPgIZC6EG3GRi-1" source="zFZnpQMPPgIZC6EG3GRi-40" target="zFZnpQMPPgIZC6EG3GRi-44" edge="1">
          <mxGeometry relative="1" as="geometry" />
        </mxCell>
        <mxCell id="zFZnpQMPPgIZC6EG3GRi-40" value="Choice == Set&#xa;Encryption Key ?" style="rhombus;fillColor=#e6d0de;strokeColor=#996185;gradientColor=#d5739d;" parent="zFZnpQMPPgIZC6EG3GRi-1" vertex="1">
          <mxGeometry x="190.88999999999987" y="1425.99" width="150" height="88" as="geometry" />
        </mxCell>
        <mxCell id="zFZnpQMPPgIZC6EG3GRi-41" value="No" style="text;html=1;align=center;verticalAlign=middle;whiteSpace=wrap;rounded=0;" parent="zFZnpQMPPgIZC6EG3GRi-1" vertex="1">
          <mxGeometry x="190.88999999999987" y="1513.99" width="60" height="30" as="geometry" />
        </mxCell>
        <mxCell id="zFZnpQMPPgIZC6EG3GRi-42" value="Yes" style="text;html=1;align=center;verticalAlign=middle;whiteSpace=wrap;rounded=0;" parent="zFZnpQMPPgIZC6EG3GRi-1" vertex="1">
          <mxGeometry x="325.3299999999999" y="1558.99" width="60" height="30" as="geometry" />
        </mxCell>
        <mxCell id="zFZnpQMPPgIZC6EG3GRi-43" style="edgeStyle=orthogonalEdgeStyle;rounded=0;orthogonalLoop=1;jettySize=auto;html=1;exitX=0.5;exitY=1;exitDx=0;exitDy=0;entryX=0.5;entryY=0;entryDx=0;entryDy=0;" parent="zFZnpQMPPgIZC6EG3GRi-1" source="zFZnpQMPPgIZC6EG3GRi-44" target="zFZnpQMPPgIZC6EG3GRi-48" edge="1">
          <mxGeometry relative="1" as="geometry" />
        </mxCell>
        <mxCell id="zFZnpQMPPgIZC6EG3GRi-44" value="Choice == Add &#xa;extension to encrypt" style="rhombus;fillColor=#e6d0de;strokeColor=#996185;gradientColor=#d5739d;" parent="zFZnpQMPPgIZC6EG3GRi-1" vertex="1">
          <mxGeometry x="190.88999999999987" y="1562.99" width="150" height="88" as="geometry" />
        </mxCell>
        <mxCell id="zFZnpQMPPgIZC6EG3GRi-45" value="No" style="text;html=1;align=center;verticalAlign=middle;whiteSpace=wrap;rounded=0;" parent="zFZnpQMPPgIZC6EG3GRi-1" vertex="1">
          <mxGeometry x="190.88999999999987" y="1650.99" width="60" height="30" as="geometry" />
        </mxCell>
        <mxCell id="zFZnpQMPPgIZC6EG3GRi-46" value="Yes" style="text;html=1;align=center;verticalAlign=middle;whiteSpace=wrap;rounded=0;" parent="zFZnpQMPPgIZC6EG3GRi-1" vertex="1">
          <mxGeometry x="325.3299999999999" y="1695.99" width="60" height="30" as="geometry" />
        </mxCell>
        <mxCell id="zFZnpQMPPgIZC6EG3GRi-47" style="edgeStyle=orthogonalEdgeStyle;rounded=0;orthogonalLoop=1;jettySize=auto;html=1;exitX=0.5;exitY=1;exitDx=0;exitDy=0;entryX=0.5;entryY=0;entryDx=0;entryDy=0;" parent="zFZnpQMPPgIZC6EG3GRi-1" source="zFZnpQMPPgIZC6EG3GRi-48" target="zFZnpQMPPgIZC6EG3GRi-52" edge="1">
          <mxGeometry relative="1" as="geometry" />
        </mxCell>
        <mxCell id="zFZnpQMPPgIZC6EG3GRi-48" value="Choice == Remove&#xa;extension to encrypt" style="rhombus;fillColor=#e6d0de;strokeColor=#996185;gradientColor=#d5739d;" parent="zFZnpQMPPgIZC6EG3GRi-1" vertex="1">
          <mxGeometry x="190.88999999999987" y="1699.99" width="150" height="88" as="geometry" />
        </mxCell>
        <mxCell id="zFZnpQMPPgIZC6EG3GRi-49" value="No" style="text;html=1;align=center;verticalAlign=middle;whiteSpace=wrap;rounded=0;" parent="zFZnpQMPPgIZC6EG3GRi-1" vertex="1">
          <mxGeometry x="190.88999999999987" y="1787.99" width="60" height="30" as="geometry" />
        </mxCell>
        <mxCell id="zFZnpQMPPgIZC6EG3GRi-50" value="Yes" style="text;html=1;align=center;verticalAlign=middle;whiteSpace=wrap;rounded=0;" parent="zFZnpQMPPgIZC6EG3GRi-1" vertex="1">
          <mxGeometry x="325.3299999999999" y="1834.99" width="60" height="30" as="geometry" />
        </mxCell>
        <mxCell id="zFZnpQMPPgIZC6EG3GRi-51" style="edgeStyle=orthogonalEdgeStyle;rounded=0;orthogonalLoop=1;jettySize=auto;html=1;exitX=0.5;exitY=1;exitDx=0;exitDy=0;" parent="zFZnpQMPPgIZC6EG3GRi-1" source="zFZnpQMPPgIZC6EG3GRi-52" target="zFZnpQMPPgIZC6EG3GRi-56" edge="1">
          <mxGeometry relative="1" as="geometry" />
        </mxCell>
        <mxCell id="zFZnpQMPPgIZC6EG3GRi-52" value="Choice == Add&#xa;Process to blacklist" style="rhombus;fillColor=#e6d0de;strokeColor=#996185;gradientColor=#d5739d;" parent="zFZnpQMPPgIZC6EG3GRi-1" vertex="1">
          <mxGeometry x="190.88999999999987" y="1838.99" width="150" height="88" as="geometry" />
        </mxCell>
        <mxCell id="zFZnpQMPPgIZC6EG3GRi-53" value="No" style="text;html=1;align=center;verticalAlign=middle;whiteSpace=wrap;rounded=0;" parent="zFZnpQMPPgIZC6EG3GRi-1" vertex="1">
          <mxGeometry x="190.88999999999987" y="1926.99" width="60" height="30" as="geometry" />
        </mxCell>
        <mxCell id="zFZnpQMPPgIZC6EG3GRi-54" value="Yes" style="text;html=1;align=center;verticalAlign=middle;whiteSpace=wrap;rounded=0;" parent="zFZnpQMPPgIZC6EG3GRi-1" vertex="1">
          <mxGeometry x="325.3299999999999" y="1971.99" width="60" height="30" as="geometry" />
        </mxCell>
        <mxCell id="hJ_k2YnnxtzIP6E0c1w8-12" style="edgeStyle=orthogonalEdgeStyle;rounded=0;orthogonalLoop=1;jettySize=auto;html=1;entryX=0.5;entryY=0;entryDx=0;entryDy=0;" edge="1" parent="zFZnpQMPPgIZC6EG3GRi-1" source="zFZnpQMPPgIZC6EG3GRi-56" target="hJ_k2YnnxtzIP6E0c1w8-1">
          <mxGeometry relative="1" as="geometry" />
        </mxCell>
        <mxCell id="zFZnpQMPPgIZC6EG3GRi-56" value="Choice == Remove&#xa;Process from blacklist" style="rhombus;fillColor=#e6d0de;strokeColor=#996185;gradientColor=#d5739d;" parent="zFZnpQMPPgIZC6EG3GRi-1" vertex="1">
          <mxGeometry x="190.88999999999987" y="1975.99" width="150" height="88" as="geometry" />
        </mxCell>
        <mxCell id="zFZnpQMPPgIZC6EG3GRi-57" value="No" style="text;html=1;align=center;verticalAlign=middle;whiteSpace=wrap;rounded=0;" parent="zFZnpQMPPgIZC6EG3GRi-1" vertex="1">
          <mxGeometry x="190.88999999999987" y="2063.99" width="60" height="30" as="geometry" />
        </mxCell>
        <mxCell id="zFZnpQMPPgIZC6EG3GRi-58" style="edgeStyle=orthogonalEdgeStyle;rounded=0;orthogonalLoop=1;jettySize=auto;html=1;exitX=1;exitY=0.5;exitDx=0;exitDy=0;" parent="zFZnpQMPPgIZC6EG3GRi-1" source="zFZnpQMPPgIZC6EG3GRi-59" edge="1">
          <mxGeometry relative="1" as="geometry">
            <mxPoint x="1430" y="2020" as="targetPoint" />
          </mxGeometry>
        </mxCell>
        <mxCell id="zFZnpQMPPgIZC6EG3GRi-59" value="Error : Wrong Input" style="fillColor=#e6d0de;strokeColor=#996185;gradientColor=#d5739d;" parent="zFZnpQMPPgIZC6EG3GRi-1" vertex="1">
          <mxGeometry x="180" y="2395.99" width="171.78" height="60" as="geometry" />
        </mxCell>
        <mxCell id="zFZnpQMPPgIZC6EG3GRi-60" style="edgeStyle=orthogonalEdgeStyle;rounded=0;orthogonalLoop=1;jettySize=auto;html=1;exitX=1;exitY=0.5;exitDx=0;exitDy=0;entryX=0;entryY=0.5;entryDx=0;entryDy=0;" parent="zFZnpQMPPgIZC6EG3GRi-1" edge="1">
          <mxGeometry relative="1" as="geometry">
            <mxPoint x="340.8900000000002" y="648" as="sourcePoint" />
            <mxPoint x="429.8900000000003" y="647.99" as="targetPoint" />
          </mxGeometry>
        </mxCell>
        <mxCell id="zFZnpQMPPgIZC6EG3GRi-61" style="edgeStyle=orthogonalEdgeStyle;rounded=0;orthogonalLoop=1;jettySize=auto;html=1;exitX=1;exitY=0.5;exitDx=0;exitDy=0;entryX=0;entryY=0.5;entryDx=0;entryDy=0;" parent="zFZnpQMPPgIZC6EG3GRi-1" edge="1">
          <mxGeometry relative="1" as="geometry">
            <mxPoint x="341" y="785" as="sourcePoint" />
            <mxPoint x="430" y="784.9899999999998" as="targetPoint" />
          </mxGeometry>
        </mxCell>
        <mxCell id="zFZnpQMPPgIZC6EG3GRi-62" style="edgeStyle=orthogonalEdgeStyle;rounded=0;orthogonalLoop=1;jettySize=auto;html=1;exitX=1;exitY=0.5;exitDx=0;exitDy=0;entryX=0;entryY=0.5;entryDx=0;entryDy=0;" parent="zFZnpQMPPgIZC6EG3GRi-1" target="zFZnpQMPPgIZC6EG3GRi-64" edge="1">
          <mxGeometry relative="1" as="geometry">
            <mxPoint x="341" y="924" as="sourcePoint" />
          </mxGeometry>
        </mxCell>
        <mxCell id="zFZnpQMPPgIZC6EG3GRi-63" style="edgeStyle=orthogonalEdgeStyle;rounded=0;orthogonalLoop=1;jettySize=auto;html=1;exitX=1;exitY=0.5;exitDx=0;exitDy=0;entryX=0;entryY=0.5;entryDx=0;entryDy=0;" parent="zFZnpQMPPgIZC6EG3GRi-1" source="zFZnpQMPPgIZC6EG3GRi-64" target="zFZnpQMPPgIZC6EG3GRi-107" edge="1">
          <mxGeometry relative="1" as="geometry" />
        </mxCell>
        <mxCell id="zFZnpQMPPgIZC6EG3GRi-64" value="Browse User&#39;s Drive" style="fillColor=#e6d0de;strokeColor=#996185;gradientColor=#d5739d;" parent="zFZnpQMPPgIZC6EG3GRi-1" vertex="1">
          <mxGeometry x="430" y="893.99" width="171.78" height="60" as="geometry" />
        </mxCell>
        <mxCell id="zFZnpQMPPgIZC6EG3GRi-65" style="edgeStyle=orthogonalEdgeStyle;rounded=0;orthogonalLoop=1;jettySize=auto;html=1;exitX=1;exitY=0.5;exitDx=0;exitDy=0;entryX=0;entryY=0.5;entryDx=0;entryDy=0;" parent="zFZnpQMPPgIZC6EG3GRi-1" target="zFZnpQMPPgIZC6EG3GRi-67" edge="1">
          <mxGeometry relative="1" as="geometry">
            <mxPoint x="340.8900000000003" y="1061" as="sourcePoint" />
          </mxGeometry>
        </mxCell>
        <mxCell id="zFZnpQMPPgIZC6EG3GRi-66" style="edgeStyle=orthogonalEdgeStyle;rounded=0;orthogonalLoop=1;jettySize=auto;html=1;exitX=1;exitY=0.5;exitDx=0;exitDy=0;endArrow=none;startFill=0;" parent="zFZnpQMPPgIZC6EG3GRi-1" source="zFZnpQMPPgIZC6EG3GRi-67" edge="1">
          <mxGeometry relative="1" as="geometry">
            <mxPoint x="1430" y="1061.3684210526317" as="targetPoint" />
          </mxGeometry>
        </mxCell>
        <mxCell id="zFZnpQMPPgIZC6EG3GRi-67" value="Set Daily Log Path to Default&#xa; in configuration file" style="fillColor=#e6d0de;strokeColor=#996185;gradientColor=#d5739d;" parent="zFZnpQMPPgIZC6EG3GRi-1" vertex="1">
          <mxGeometry x="430.00000000000034" y="1030.99" width="171.78" height="60" as="geometry" />
        </mxCell>
        <mxCell id="zFZnpQMPPgIZC6EG3GRi-68" style="edgeStyle=orthogonalEdgeStyle;rounded=0;orthogonalLoop=1;jettySize=auto;html=1;exitX=1;exitY=0.5;exitDx=0;exitDy=0;entryX=0;entryY=0.5;entryDx=0;entryDy=0;" parent="zFZnpQMPPgIZC6EG3GRi-1" target="zFZnpQMPPgIZC6EG3GRi-69" edge="1">
          <mxGeometry relative="1" as="geometry">
            <mxPoint x="341" y="1194" as="sourcePoint" />
          </mxGeometry>
        </mxCell>
        <mxCell id="zFZnpQMPPgIZC6EG3GRi-69" value="Sample Text" style="fillColor=#e6d0de;strokeColor=#996185;gradientColor=#d5739d;" parent="zFZnpQMPPgIZC6EG3GRi-1" vertex="1">
          <mxGeometry x="430" y="1163.99" width="171.78" height="60" as="geometry" />
        </mxCell>
        <mxCell id="zFZnpQMPPgIZC6EG3GRi-70" style="edgeStyle=orthogonalEdgeStyle;rounded=0;orthogonalLoop=1;jettySize=auto;html=1;exitX=1;exitY=0.5;exitDx=0;exitDy=0;entryX=0;entryY=0.5;entryDx=0;entryDy=0;" parent="zFZnpQMPPgIZC6EG3GRi-1" target="zFZnpQMPPgIZC6EG3GRi-72" edge="1">
          <mxGeometry relative="1" as="geometry">
            <mxPoint x="340.0000000000001" y="1331" as="sourcePoint" />
          </mxGeometry>
        </mxCell>
        <mxCell id="zFZnpQMPPgIZC6EG3GRi-71" style="edgeStyle=orthogonalEdgeStyle;rounded=0;orthogonalLoop=1;jettySize=auto;html=1;exitX=1;exitY=0.5;exitDx=0;exitDy=0;endArrow=none;startFill=0;" parent="zFZnpQMPPgIZC6EG3GRi-1" source="zFZnpQMPPgIZC6EG3GRi-72" edge="1">
          <mxGeometry relative="1" as="geometry">
            <mxPoint x="1430" y="910" as="targetPoint" />
          </mxGeometry>
        </mxCell>
        <mxCell id="zFZnpQMPPgIZC6EG3GRi-72" value="Set Status Log Path to Default&#xa; in configuration file" style="fillColor=#e6d0de;strokeColor=#996185;gradientColor=#d5739d;" parent="zFZnpQMPPgIZC6EG3GRi-1" vertex="1">
          <mxGeometry x="429.0000000000001" y="1300.99" width="171.78" height="60" as="geometry" />
        </mxCell>
        <mxCell id="zFZnpQMPPgIZC6EG3GRi-73" style="edgeStyle=orthogonalEdgeStyle;rounded=0;orthogonalLoop=1;jettySize=auto;html=1;exitX=1;exitY=0.5;exitDx=0;exitDy=0;entryX=0;entryY=0.5;entryDx=0;entryDy=0;" parent="zFZnpQMPPgIZC6EG3GRi-1" target="zFZnpQMPPgIZC6EG3GRi-75" edge="1">
          <mxGeometry relative="1" as="geometry">
            <mxPoint x="341.00000000000045" y="1470" as="sourcePoint" />
          </mxGeometry>
        </mxCell>
        <mxCell id="zFZnpQMPPgIZC6EG3GRi-74" style="edgeStyle=orthogonalEdgeStyle;rounded=0;orthogonalLoop=1;jettySize=auto;html=1;exitX=1;exitY=0.5;exitDx=0;exitDy=0;entryX=0;entryY=0.5;entryDx=0;entryDy=0;" parent="zFZnpQMPPgIZC6EG3GRi-1" source="zFZnpQMPPgIZC6EG3GRi-75" target="zFZnpQMPPgIZC6EG3GRi-122" edge="1">
          <mxGeometry relative="1" as="geometry" />
        </mxCell>
        <mxCell id="zFZnpQMPPgIZC6EG3GRi-75" value="User Input for encryption key" style="fillColor=#e6d0de;strokeColor=#996185;gradientColor=#d5739d;" parent="zFZnpQMPPgIZC6EG3GRi-1" vertex="1">
          <mxGeometry x="430.00000000000045" y="1439.99" width="171.78" height="60" as="geometry" />
        </mxCell>
        <mxCell id="zFZnpQMPPgIZC6EG3GRi-76" style="edgeStyle=orthogonalEdgeStyle;rounded=0;orthogonalLoop=1;jettySize=auto;html=1;exitX=1;exitY=0.5;exitDx=0;exitDy=0;entryX=0;entryY=0.5;entryDx=0;entryDy=0;" parent="zFZnpQMPPgIZC6EG3GRi-1" target="zFZnpQMPPgIZC6EG3GRi-78" edge="1">
          <mxGeometry relative="1" as="geometry">
            <mxPoint x="340.8900000000001" y="1607" as="sourcePoint" />
          </mxGeometry>
        </mxCell>
        <mxCell id="zFZnpQMPPgIZC6EG3GRi-77" style="edgeStyle=orthogonalEdgeStyle;rounded=0;orthogonalLoop=1;jettySize=auto;html=1;exitX=1;exitY=0.5;exitDx=0;exitDy=0;entryX=0;entryY=0.5;entryDx=0;entryDy=0;" parent="zFZnpQMPPgIZC6EG3GRi-1" source="zFZnpQMPPgIZC6EG3GRi-78" target="zFZnpQMPPgIZC6EG3GRi-124" edge="1">
          <mxGeometry relative="1" as="geometry" />
        </mxCell>
        <mxCell id="zFZnpQMPPgIZC6EG3GRi-78" value="User Input for Extension" style="fillColor=#e6d0de;strokeColor=#996185;gradientColor=#d5739d;" parent="zFZnpQMPPgIZC6EG3GRi-1" vertex="1">
          <mxGeometry x="429.8900000000001" y="1576.99" width="171.78" height="60" as="geometry" />
        </mxCell>
        <mxCell id="zFZnpQMPPgIZC6EG3GRi-79" style="edgeStyle=orthogonalEdgeStyle;rounded=0;orthogonalLoop=1;jettySize=auto;html=1;exitX=1;exitY=0.5;exitDx=0;exitDy=0;entryX=0;entryY=0.5;entryDx=0;entryDy=0;" parent="zFZnpQMPPgIZC6EG3GRi-1" target="zFZnpQMPPgIZC6EG3GRi-80" edge="1">
          <mxGeometry relative="1" as="geometry">
            <mxPoint x="340.9999999999999" y="1744.0000000000002" as="sourcePoint" />
          </mxGeometry>
        </mxCell>
        <mxCell id="zFZnpQMPPgIZC6EG3GRi-80" value="Select Extension" style="fillColor=#e6d0de;strokeColor=#996185;gradientColor=#d5739d;" parent="zFZnpQMPPgIZC6EG3GRi-1" vertex="1">
          <mxGeometry x="429.9999999999999" y="1713.99" width="171.78" height="60" as="geometry" />
        </mxCell>
        <mxCell id="zFZnpQMPPgIZC6EG3GRi-81" style="edgeStyle=orthogonalEdgeStyle;rounded=0;orthogonalLoop=1;jettySize=auto;html=1;exitX=1;exitY=0.5;exitDx=0;exitDy=0;entryX=0;entryY=0.5;entryDx=0;entryDy=0;" parent="zFZnpQMPPgIZC6EG3GRi-1" edge="1">
          <mxGeometry relative="1" as="geometry">
            <mxPoint x="340.0000000000002" y="1883.0000000000002" as="sourcePoint" />
            <mxPoint x="429" y="1882.9899999999998" as="targetPoint" />
          </mxGeometry>
        </mxCell>
        <mxCell id="zFZnpQMPPgIZC6EG3GRi-82" style="edgeStyle=orthogonalEdgeStyle;rounded=0;orthogonalLoop=1;jettySize=auto;html=1;exitX=1;exitY=0.5;exitDx=0;exitDy=0;entryX=0;entryY=0.5;entryDx=0;entryDy=0;" parent="zFZnpQMPPgIZC6EG3GRi-1" target="zFZnpQMPPgIZC6EG3GRi-84" edge="1">
          <mxGeometry relative="1" as="geometry">
            <mxPoint x="339.9999999999999" y="2020.0000000000002" as="sourcePoint" />
          </mxGeometry>
        </mxCell>
        <mxCell id="zFZnpQMPPgIZC6EG3GRi-83" style="edgeStyle=orthogonalEdgeStyle;rounded=0;orthogonalLoop=1;jettySize=auto;html=1;exitX=1;exitY=0.5;exitDx=0;exitDy=0;entryX=0;entryY=0.5;entryDx=0;entryDy=0;" parent="zFZnpQMPPgIZC6EG3GRi-1" source="zFZnpQMPPgIZC6EG3GRi-84" target="zFZnpQMPPgIZC6EG3GRi-133" edge="1">
          <mxGeometry relative="1" as="geometry" />
        </mxCell>
        <mxCell id="zFZnpQMPPgIZC6EG3GRi-84" value="Select Process" style="fillColor=#e6d0de;strokeColor=#996185;gradientColor=#d5739d;" parent="zFZnpQMPPgIZC6EG3GRi-1" vertex="1">
          <mxGeometry x="428.9999999999999" y="1989.99" width="171.78" height="60" as="geometry" />
        </mxCell>
        <mxCell id="zFZnpQMPPgIZC6EG3GRi-85" style="edgeStyle=orthogonalEdgeStyle;rounded=0;orthogonalLoop=1;jettySize=auto;html=1;entryX=0;entryY=0.5;entryDx=0;entryDy=0;fillColor=#e6d0de;gradientColor=#d5739d;strokeColor=#996185;" parent="zFZnpQMPPgIZC6EG3GRi-1" source="zFZnpQMPPgIZC6EG3GRi-86" target="zFZnpQMPPgIZC6EG3GRi-88" edge="1">
          <mxGeometry relative="1" as="geometry" />
        </mxCell>
        <mxCell id="zFZnpQMPPgIZC6EG3GRi-86" value="Show all available languages" style="fillColor=#e6d0de;strokeColor=#996185;gradientColor=#d5739d;" parent="zFZnpQMPPgIZC6EG3GRi-1" vertex="1">
          <mxGeometry x="430" y="617.99" width="171.78" height="60" as="geometry" />
        </mxCell>
        <mxCell id="zFZnpQMPPgIZC6EG3GRi-87" style="edgeStyle=orthogonalEdgeStyle;rounded=0;orthogonalLoop=1;jettySize=auto;html=1;entryX=0;entryY=0.5;entryDx=0;entryDy=0;fillColor=#e6d0de;gradientColor=#d5739d;strokeColor=#996185;" parent="zFZnpQMPPgIZC6EG3GRi-1" source="zFZnpQMPPgIZC6EG3GRi-88" target="zFZnpQMPPgIZC6EG3GRi-91" edge="1">
          <mxGeometry relative="1" as="geometry" />
        </mxCell>
        <mxCell id="zFZnpQMPPgIZC6EG3GRi-88" value="Show in used language" style="fillColor=#e6d0de;strokeColor=#996185;gradientColor=#d5739d;" parent="zFZnpQMPPgIZC6EG3GRi-1" vertex="1">
          <mxGeometry x="700" y="617.99" width="171.78" height="60" as="geometry" />
        </mxCell>
        <mxCell id="zFZnpQMPPgIZC6EG3GRi-89" style="edgeStyle=orthogonalEdgeStyle;rounded=0;orthogonalLoop=1;jettySize=auto;html=1;entryX=0;entryY=0.5;entryDx=0;entryDy=0;fillColor=#e6d0de;gradientColor=#d5739d;strokeColor=#996185;" parent="zFZnpQMPPgIZC6EG3GRi-1" source="zFZnpQMPPgIZC6EG3GRi-91" target="zFZnpQMPPgIZC6EG3GRi-93" edge="1">
          <mxGeometry relative="1" as="geometry">
            <mxPoint x="1065" y="793.99" as="targetPoint" />
          </mxGeometry>
        </mxCell>
        <mxCell id="zFZnpQMPPgIZC6EG3GRi-90" style="edgeStyle=orthogonalEdgeStyle;rounded=0;orthogonalLoop=1;jettySize=auto;html=1;exitX=0.5;exitY=0;exitDx=0;exitDy=0;entryX=0.5;entryY=0;entryDx=0;entryDy=0;" parent="zFZnpQMPPgIZC6EG3GRi-1" source="zFZnpQMPPgIZC6EG3GRi-91" target="zFZnpQMPPgIZC6EG3GRi-3" edge="1">
          <mxGeometry relative="1" as="geometry" />
        </mxCell>
        <mxCell id="zFZnpQMPPgIZC6EG3GRi-91" value="User selected &#xa;a language ?" style="rhombus;fillColor=#e6d0de;strokeColor=#996185;gradientColor=#d5739d;" parent="zFZnpQMPPgIZC6EG3GRi-1" vertex="1">
          <mxGeometry x="990" y="603.99" width="150" height="88" as="geometry" />
        </mxCell>
        <mxCell id="zFZnpQMPPgIZC6EG3GRi-92" style="edgeStyle=orthogonalEdgeStyle;rounded=0;orthogonalLoop=1;jettySize=auto;html=1;exitX=0.5;exitY=0;exitDx=0;exitDy=0;entryX=0.5;entryY=0;entryDx=0;entryDy=0;" parent="zFZnpQMPPgIZC6EG3GRi-1" source="zFZnpQMPPgIZC6EG3GRi-93" target="zFZnpQMPPgIZC6EG3GRi-3" edge="1">
          <mxGeometry relative="1" as="geometry" />
        </mxCell>
        <mxCell id="zFZnpQMPPgIZC6EG3GRi-93" value="Update configuration file and &#xa;Translate texts" style="fillColor=#e6d0de;strokeColor=#996185;gradientColor=#d5739d;" parent="zFZnpQMPPgIZC6EG3GRi-1" vertex="1">
          <mxGeometry x="1180.0000000000005" y="617.99" width="171.78" height="60" as="geometry" />
        </mxCell>
        <mxCell id="zFZnpQMPPgIZC6EG3GRi-94" value="No" style="text;html=1;align=center;verticalAlign=middle;whiteSpace=wrap;rounded=0;" parent="zFZnpQMPPgIZC6EG3GRi-1" vertex="1">
          <mxGeometry x="990" y="583.99" width="60" height="30" as="geometry" />
        </mxCell>
        <mxCell id="zFZnpQMPPgIZC6EG3GRi-95" value="Yes" style="text;html=1;align=center;verticalAlign=middle;whiteSpace=wrap;rounded=0;" parent="zFZnpQMPPgIZC6EG3GRi-1" vertex="1">
          <mxGeometry x="1130" y="650" width="60" height="30" as="geometry" />
        </mxCell>
        <mxCell id="zFZnpQMPPgIZC6EG3GRi-96" value="Show all available types" style="fillColor=#e6d0de;strokeColor=#996185;gradientColor=#d5739d;" parent="zFZnpQMPPgIZC6EG3GRi-1" vertex="1">
          <mxGeometry x="429" y="754.99" width="171.78" height="60" as="geometry" />
        </mxCell>
        <mxCell id="zFZnpQMPPgIZC6EG3GRi-97" style="edgeStyle=orthogonalEdgeStyle;rounded=0;orthogonalLoop=1;jettySize=auto;html=1;entryX=0;entryY=0.5;entryDx=0;entryDy=0;fillColor=#e6d0de;gradientColor=#d5739d;strokeColor=#996185;" parent="zFZnpQMPPgIZC6EG3GRi-1" target="zFZnpQMPPgIZC6EG3GRi-100" edge="1">
          <mxGeometry relative="1" as="geometry">
            <mxPoint x="601.7800000000007" y="785.9899999999998" as="sourcePoint" />
          </mxGeometry>
        </mxCell>
        <mxCell id="zFZnpQMPPgIZC6EG3GRi-98" style="edgeStyle=orthogonalEdgeStyle;rounded=0;orthogonalLoop=1;jettySize=auto;html=1;entryX=0;entryY=0.5;entryDx=0;entryDy=0;fillColor=#e6d0de;gradientColor=#d5739d;strokeColor=#996185;" parent="zFZnpQMPPgIZC6EG3GRi-1" source="zFZnpQMPPgIZC6EG3GRi-100" target="zFZnpQMPPgIZC6EG3GRi-102" edge="1">
          <mxGeometry relative="1" as="geometry">
            <mxPoint x="795" y="931.99" as="targetPoint" />
          </mxGeometry>
        </mxCell>
        <mxCell id="zFZnpQMPPgIZC6EG3GRi-99" style="edgeStyle=orthogonalEdgeStyle;rounded=0;orthogonalLoop=1;jettySize=auto;html=1;exitX=0.5;exitY=0;exitDx=0;exitDy=0;endArrow=none;startFill=0;" parent="zFZnpQMPPgIZC6EG3GRi-1" source="zFZnpQMPPgIZC6EG3GRi-100" edge="1">
          <mxGeometry relative="1" as="geometry">
            <mxPoint x="1430" y="720" as="targetPoint" />
            <Array as="points">
              <mxPoint x="795" y="720" />
            </Array>
          </mxGeometry>
        </mxCell>
        <mxCell id="zFZnpQMPPgIZC6EG3GRi-100" value="User selected &#xa;a type ?" style="rhombus;fillColor=#e6d0de;strokeColor=#996185;gradientColor=#d5739d;" parent="zFZnpQMPPgIZC6EG3GRi-1" vertex="1">
          <mxGeometry x="720" y="741.99" width="150" height="88" as="geometry" />
        </mxCell>
        <mxCell id="zFZnpQMPPgIZC6EG3GRi-101" style="edgeStyle=orthogonalEdgeStyle;rounded=0;orthogonalLoop=1;jettySize=auto;html=1;exitX=1;exitY=0.5;exitDx=0;exitDy=0;endArrow=none;startFill=0;" parent="zFZnpQMPPgIZC6EG3GRi-1" source="zFZnpQMPPgIZC6EG3GRi-102" edge="1">
          <mxGeometry relative="1" as="geometry">
            <mxPoint x="1270" y="170" as="targetPoint" />
            <Array as="points">
              <mxPoint x="1430" y="786" />
              <mxPoint x="1430" y="170" />
            </Array>
          </mxGeometry>
        </mxCell>
        <mxCell id="zFZnpQMPPgIZC6EG3GRi-102" value="Update configuration file" style="fillColor=#e6d0de;strokeColor=#996185;gradientColor=#d5739d;" parent="zFZnpQMPPgIZC6EG3GRi-1" vertex="1">
          <mxGeometry x="938" y="755.99" width="171.78" height="60" as="geometry" />
        </mxCell>
        <mxCell id="zFZnpQMPPgIZC6EG3GRi-103" value="No" style="text;html=1;align=center;verticalAlign=middle;whiteSpace=wrap;rounded=0;" parent="zFZnpQMPPgIZC6EG3GRi-1" vertex="1">
          <mxGeometry x="720" y="721.99" width="60" height="30" as="geometry" />
        </mxCell>
        <mxCell id="zFZnpQMPPgIZC6EG3GRi-104" value="Yes" style="text;html=1;align=center;verticalAlign=middle;whiteSpace=wrap;rounded=0;" parent="zFZnpQMPPgIZC6EG3GRi-1" vertex="1">
          <mxGeometry x="860" y="788" width="60" height="30" as="geometry" />
        </mxCell>
        <mxCell id="zFZnpQMPPgIZC6EG3GRi-105" style="edgeStyle=orthogonalEdgeStyle;rounded=0;orthogonalLoop=1;jettySize=auto;html=1;entryX=0;entryY=0.5;entryDx=0;entryDy=0;fillColor=#e6d0de;gradientColor=#d5739d;strokeColor=#996185;" parent="zFZnpQMPPgIZC6EG3GRi-1" source="zFZnpQMPPgIZC6EG3GRi-107" target="zFZnpQMPPgIZC6EG3GRi-109" edge="1">
          <mxGeometry relative="1" as="geometry">
            <mxPoint x="785" y="1069.99" as="targetPoint" />
          </mxGeometry>
        </mxCell>
        <mxCell id="zFZnpQMPPgIZC6EG3GRi-106" style="edgeStyle=orthogonalEdgeStyle;rounded=0;orthogonalLoop=1;jettySize=auto;html=1;exitX=0.5;exitY=0;exitDx=0;exitDy=0;endArrow=none;startFill=0;" parent="zFZnpQMPPgIZC6EG3GRi-1" source="zFZnpQMPPgIZC6EG3GRi-107" edge="1">
          <mxGeometry relative="1" as="geometry">
            <mxPoint x="1430" y="850" as="targetPoint" />
            <Array as="points">
              <mxPoint x="795" y="850" />
            </Array>
          </mxGeometry>
        </mxCell>
        <mxCell id="zFZnpQMPPgIZC6EG3GRi-107" value="User selected &#xa;a path ?" style="rhombus;fillColor=#e6d0de;strokeColor=#996185;gradientColor=#d5739d;" parent="zFZnpQMPPgIZC6EG3GRi-1" vertex="1">
          <mxGeometry x="720" y="879.99" width="150" height="88" as="geometry" />
        </mxCell>
        <mxCell id="zFZnpQMPPgIZC6EG3GRi-108" style="edgeStyle=orthogonalEdgeStyle;rounded=0;orthogonalLoop=1;jettySize=auto;html=1;exitX=1;exitY=0.5;exitDx=0;exitDy=0;endArrow=none;startFill=0;" parent="zFZnpQMPPgIZC6EG3GRi-1" source="zFZnpQMPPgIZC6EG3GRi-109" edge="1">
          <mxGeometry relative="1" as="geometry">
            <mxPoint x="1429.999999999999" y="780" as="targetPoint" />
          </mxGeometry>
        </mxCell>
        <mxCell id="zFZnpQMPPgIZC6EG3GRi-109" value="Update configuration file" style="fillColor=#e6d0de;strokeColor=#996185;gradientColor=#d5739d;" parent="zFZnpQMPPgIZC6EG3GRi-1" vertex="1">
          <mxGeometry x="938" y="893.99" width="171.78" height="60" as="geometry" />
        </mxCell>
        <mxCell id="zFZnpQMPPgIZC6EG3GRi-110" value="No" style="text;html=1;align=center;verticalAlign=middle;whiteSpace=wrap;rounded=0;" parent="zFZnpQMPPgIZC6EG3GRi-1" vertex="1">
          <mxGeometry x="710" y="859.99" width="60" height="30" as="geometry" />
        </mxCell>
        <mxCell id="zFZnpQMPPgIZC6EG3GRi-111" value="Yes" style="text;html=1;align=center;verticalAlign=middle;whiteSpace=wrap;rounded=0;" parent="zFZnpQMPPgIZC6EG3GRi-1" vertex="1">
          <mxGeometry x="850" y="926" width="60" height="30" as="geometry" />
        </mxCell>
        <mxCell id="zFZnpQMPPgIZC6EG3GRi-112" style="edgeStyle=orthogonalEdgeStyle;rounded=0;orthogonalLoop=1;jettySize=auto;html=1;exitX=1;exitY=0.5;exitDx=0;exitDy=0;entryX=0;entryY=0.5;entryDx=0;entryDy=0;" parent="zFZnpQMPPgIZC6EG3GRi-1" source="zFZnpQMPPgIZC6EG3GRi-113" target="zFZnpQMPPgIZC6EG3GRi-116" edge="1">
          <mxGeometry relative="1" as="geometry" />
        </mxCell>
        <mxCell id="zFZnpQMPPgIZC6EG3GRi-113" value="Browse User&#39;s Drive" style="fillColor=#e6d0de;strokeColor=#996185;gradientColor=#d5739d;" parent="zFZnpQMPPgIZC6EG3GRi-1" vertex="1">
          <mxGeometry x="429.8899999999999" y="1163.99" width="171.78" height="60" as="geometry" />
        </mxCell>
        <mxCell id="zFZnpQMPPgIZC6EG3GRi-114" style="edgeStyle=orthogonalEdgeStyle;rounded=0;orthogonalLoop=1;jettySize=auto;html=1;entryX=0;entryY=0.5;entryDx=0;entryDy=0;fillColor=#e6d0de;gradientColor=#d5739d;strokeColor=#996185;" parent="zFZnpQMPPgIZC6EG3GRi-1" source="zFZnpQMPPgIZC6EG3GRi-116" target="zFZnpQMPPgIZC6EG3GRi-118" edge="1">
          <mxGeometry relative="1" as="geometry">
            <mxPoint x="784.8899999999999" y="1339.99" as="targetPoint" />
          </mxGeometry>
        </mxCell>
        <mxCell id="zFZnpQMPPgIZC6EG3GRi-115" style="edgeStyle=orthogonalEdgeStyle;rounded=0;orthogonalLoop=1;jettySize=auto;html=1;exitX=0.5;exitY=0;exitDx=0;exitDy=0;endArrow=none;startFill=0;" parent="zFZnpQMPPgIZC6EG3GRi-1" source="zFZnpQMPPgIZC6EG3GRi-116" edge="1">
          <mxGeometry relative="1" as="geometry">
            <mxPoint x="1430" y="1140" as="targetPoint" />
            <Array as="points">
              <mxPoint x="795" y="1140" />
              <mxPoint x="1430" y="1140" />
            </Array>
          </mxGeometry>
        </mxCell>
        <mxCell id="zFZnpQMPPgIZC6EG3GRi-116" value="User selected &#xa;a path ?" style="rhombus;fillColor=#e6d0de;strokeColor=#996185;gradientColor=#d5739d;" parent="zFZnpQMPPgIZC6EG3GRi-1" vertex="1">
          <mxGeometry x="719.8899999999999" y="1149.99" width="150" height="88" as="geometry" />
        </mxCell>
        <mxCell id="zFZnpQMPPgIZC6EG3GRi-117" style="edgeStyle=orthogonalEdgeStyle;rounded=0;orthogonalLoop=1;jettySize=auto;html=1;exitX=1;exitY=0.5;exitDx=0;exitDy=0;endArrow=none;startFill=0;" parent="zFZnpQMPPgIZC6EG3GRi-1" source="zFZnpQMPPgIZC6EG3GRi-118" edge="1">
          <mxGeometry relative="1" as="geometry">
            <mxPoint x="1430" y="1193.6666666666665" as="targetPoint" />
          </mxGeometry>
        </mxCell>
        <mxCell id="zFZnpQMPPgIZC6EG3GRi-118" value="Update configuration file" style="fillColor=#e6d0de;strokeColor=#996185;gradientColor=#d5739d;" parent="zFZnpQMPPgIZC6EG3GRi-1" vertex="1">
          <mxGeometry x="937.8899999999999" y="1163.99" width="171.78" height="60" as="geometry" />
        </mxCell>
        <mxCell id="zFZnpQMPPgIZC6EG3GRi-119" value="No" style="text;html=1;align=center;verticalAlign=middle;whiteSpace=wrap;rounded=0;" parent="zFZnpQMPPgIZC6EG3GRi-1" vertex="1">
          <mxGeometry x="709.8899999999999" y="1129.99" width="60" height="30" as="geometry" />
        </mxCell>
        <mxCell id="zFZnpQMPPgIZC6EG3GRi-120" value="Yes" style="text;html=1;align=center;verticalAlign=middle;whiteSpace=wrap;rounded=0;" parent="zFZnpQMPPgIZC6EG3GRi-1" vertex="1">
          <mxGeometry x="849.8899999999999" y="1196" width="60" height="30" as="geometry" />
        </mxCell>
        <mxCell id="zFZnpQMPPgIZC6EG3GRi-121" style="edgeStyle=orthogonalEdgeStyle;rounded=0;orthogonalLoop=1;jettySize=auto;html=1;exitX=1;exitY=0.5;exitDx=0;exitDy=0;endArrow=none;startFill=0;" parent="zFZnpQMPPgIZC6EG3GRi-1" source="zFZnpQMPPgIZC6EG3GRi-122" edge="1">
          <mxGeometry relative="1" as="geometry">
            <mxPoint x="1430" y="1330" as="targetPoint" />
            <Array as="points">
              <mxPoint x="1430" y="1470" />
            </Array>
          </mxGeometry>
        </mxCell>
        <mxCell id="zFZnpQMPPgIZC6EG3GRi-122" value="Update configuration file with &#xa;key (which is encrypted)" style="fillColor=#e6d0de;strokeColor=#996185;gradientColor=#d5739d;" parent="zFZnpQMPPgIZC6EG3GRi-1" vertex="1">
          <mxGeometry x="709" y="1439.99" width="171.78" height="60" as="geometry" />
        </mxCell>
        <mxCell id="zFZnpQMPPgIZC6EG3GRi-123" style="edgeStyle=orthogonalEdgeStyle;rounded=0;orthogonalLoop=1;jettySize=auto;html=1;exitX=1;exitY=0.5;exitDx=0;exitDy=0;endArrow=none;startFill=0;" parent="zFZnpQMPPgIZC6EG3GRi-1" source="zFZnpQMPPgIZC6EG3GRi-124" edge="1">
          <mxGeometry relative="1" as="geometry">
            <mxPoint x="1430" y="1606" as="targetPoint" />
          </mxGeometry>
        </mxCell>
        <mxCell id="zFZnpQMPPgIZC6EG3GRi-124" value="Update configuration file" style="fillColor=#e6d0de;strokeColor=#996185;gradientColor=#d5739d;" parent="zFZnpQMPPgIZC6EG3GRi-1" vertex="1">
          <mxGeometry x="709" y="1576.99" width="171.78" height="60" as="geometry" />
        </mxCell>
        <mxCell id="zFZnpQMPPgIZC6EG3GRi-125" style="edgeStyle=orthogonalEdgeStyle;rounded=0;orthogonalLoop=1;jettySize=auto;html=1;exitX=1;exitY=0.5;exitDx=0;exitDy=0;entryX=0;entryY=0.5;entryDx=0;entryDy=0;" parent="zFZnpQMPPgIZC6EG3GRi-1" source="zFZnpQMPPgIZC6EG3GRi-126" target="zFZnpQMPPgIZC6EG3GRi-128" edge="1">
          <mxGeometry relative="1" as="geometry" />
        </mxCell>
        <mxCell id="zFZnpQMPPgIZC6EG3GRi-126" value="User Input for Process" style="fillColor=#e6d0de;strokeColor=#996185;gradientColor=#d5739d;" parent="zFZnpQMPPgIZC6EG3GRi-1" vertex="1">
          <mxGeometry x="429" y="1852.99" width="171.78" height="60" as="geometry" />
        </mxCell>
        <mxCell id="zFZnpQMPPgIZC6EG3GRi-127" style="edgeStyle=orthogonalEdgeStyle;rounded=0;orthogonalLoop=1;jettySize=auto;html=1;exitX=1;exitY=0.5;exitDx=0;exitDy=0;endArrow=none;startFill=0;" parent="zFZnpQMPPgIZC6EG3GRi-1" source="zFZnpQMPPgIZC6EG3GRi-128" edge="1">
          <mxGeometry relative="1" as="geometry">
            <mxPoint x="1430" y="1882" as="targetPoint" />
          </mxGeometry>
        </mxCell>
        <mxCell id="zFZnpQMPPgIZC6EG3GRi-128" value="Update configuration file" style="fillColor=#e6d0de;strokeColor=#996185;gradientColor=#d5739d;" parent="zFZnpQMPPgIZC6EG3GRi-1" vertex="1">
          <mxGeometry x="708.1099999999997" y="1852.99" width="171.78" height="60" as="geometry" />
        </mxCell>
        <mxCell id="zFZnpQMPPgIZC6EG3GRi-129" style="edgeStyle=orthogonalEdgeStyle;rounded=0;orthogonalLoop=1;jettySize=auto;html=1;exitX=1;exitY=0.5;exitDx=0;exitDy=0;entryX=0;entryY=0.5;entryDx=0;entryDy=0;" parent="zFZnpQMPPgIZC6EG3GRi-1" target="zFZnpQMPPgIZC6EG3GRi-131" edge="1">
          <mxGeometry relative="1" as="geometry">
            <mxPoint x="600.4399999999999" y="1744" as="sourcePoint" />
          </mxGeometry>
        </mxCell>
        <mxCell id="zFZnpQMPPgIZC6EG3GRi-130" style="edgeStyle=orthogonalEdgeStyle;rounded=0;orthogonalLoop=1;jettySize=auto;html=1;exitX=1;exitY=0.5;exitDx=0;exitDy=0;endArrow=none;startFill=0;" parent="zFZnpQMPPgIZC6EG3GRi-1" source="zFZnpQMPPgIZC6EG3GRi-131" edge="1">
          <mxGeometry relative="1" as="geometry">
            <mxPoint x="1430" y="1744" as="targetPoint" />
          </mxGeometry>
        </mxCell>
        <mxCell id="zFZnpQMPPgIZC6EG3GRi-131" value="Update configuration file" style="fillColor=#e6d0de;strokeColor=#996185;gradientColor=#d5739d;" parent="zFZnpQMPPgIZC6EG3GRi-1" vertex="1">
          <mxGeometry x="707.5499999999996" y="1713.99" width="171.78" height="60" as="geometry" />
        </mxCell>
        <mxCell id="zFZnpQMPPgIZC6EG3GRi-132" style="edgeStyle=orthogonalEdgeStyle;rounded=0;orthogonalLoop=1;jettySize=auto;html=1;exitX=1;exitY=0.5;exitDx=0;exitDy=0;endArrow=none;startFill=0;" parent="zFZnpQMPPgIZC6EG3GRi-1" source="zFZnpQMPPgIZC6EG3GRi-133" edge="1">
          <mxGeometry relative="1" as="geometry">
            <mxPoint x="1430" y="1460" as="targetPoint" />
          </mxGeometry>
        </mxCell>
        <mxCell id="zFZnpQMPPgIZC6EG3GRi-133" value="Update configuration file" style="fillColor=#e6d0de;strokeColor=#996185;gradientColor=#d5739d;" parent="zFZnpQMPPgIZC6EG3GRi-1" vertex="1">
          <mxGeometry x="708.9999999999997" y="1989.99" width="171.78" height="60" as="geometry" />
        </mxCell>
        <mxCell id="hJ_k2YnnxtzIP6E0c1w8-11" style="edgeStyle=orthogonalEdgeStyle;rounded=0;orthogonalLoop=1;jettySize=auto;html=1;entryX=0.5;entryY=0;entryDx=0;entryDy=0;" edge="1" parent="zFZnpQMPPgIZC6EG3GRi-1" source="hJ_k2YnnxtzIP6E0c1w8-1" target="hJ_k2YnnxtzIP6E0c1w8-6">
          <mxGeometry relative="1" as="geometry" />
        </mxCell>
        <mxCell id="hJ_k2YnnxtzIP6E0c1w8-1" value="Choice == Priority files&#xa;exttensions to backupf" style="rhombus;fillColor=#e6d0de;strokeColor=#996185;gradientColor=#d5739d;" vertex="1" parent="zFZnpQMPPgIZC6EG3GRi-1">
          <mxGeometry x="190.88999999999982" y="2115.99" width="150" height="88" as="geometry" />
        </mxCell>
        <mxCell id="hJ_k2YnnxtzIP6E0c1w8-2" style="edgeStyle=orthogonalEdgeStyle;rounded=0;orthogonalLoop=1;jettySize=auto;html=1;exitX=1;exitY=0.5;exitDx=0;exitDy=0;entryX=0;entryY=0.5;entryDx=0;entryDy=0;" edge="1" parent="zFZnpQMPPgIZC6EG3GRi-1" target="hJ_k2YnnxtzIP6E0c1w8-4" source="hJ_k2YnnxtzIP6E0c1w8-1">
          <mxGeometry relative="1" as="geometry">
            <mxPoint x="319.05999999999995" y="2270" as="sourcePoint" />
          </mxGeometry>
        </mxCell>
        <mxCell id="hJ_k2YnnxtzIP6E0c1w8-4" value="Select Extensions" style="fillColor=#e6d0de;strokeColor=#996185;gradientColor=#d5739d;" vertex="1" parent="zFZnpQMPPgIZC6EG3GRi-1">
          <mxGeometry x="428.99999999999994" y="2129.99" width="171.78" height="60" as="geometry" />
        </mxCell>
        <mxCell id="hJ_k2YnnxtzIP6E0c1w8-18" style="edgeStyle=orthogonalEdgeStyle;rounded=0;orthogonalLoop=1;jettySize=auto;html=1;entryX=0.5;entryY=0;entryDx=0;entryDy=0;" edge="1" parent="zFZnpQMPPgIZC6EG3GRi-1" source="hJ_k2YnnxtzIP6E0c1w8-5" target="zFZnpQMPPgIZC6EG3GRi-3">
          <mxGeometry relative="1" as="geometry">
            <Array as="points">
              <mxPoint x="1430" y="2160" />
              <mxPoint x="1430" y="170" />
              <mxPoint x="266" y="170" />
            </Array>
          </mxGeometry>
        </mxCell>
        <mxCell id="hJ_k2YnnxtzIP6E0c1w8-5" value="Update configuration file" style="fillColor=#e6d0de;strokeColor=#996185;gradientColor=#d5739d;" vertex="1" parent="zFZnpQMPPgIZC6EG3GRi-1">
          <mxGeometry x="707.5499999999995" y="2129.99" width="171.78" height="60" as="geometry" />
        </mxCell>
        <mxCell id="hJ_k2YnnxtzIP6E0c1w8-3" style="edgeStyle=orthogonalEdgeStyle;rounded=0;orthogonalLoop=1;jettySize=auto;html=1;exitX=1;exitY=0.5;exitDx=0;exitDy=0;entryX=0;entryY=0.5;entryDx=0;entryDy=0;" edge="1" parent="zFZnpQMPPgIZC6EG3GRi-1" source="hJ_k2YnnxtzIP6E0c1w8-4" target="hJ_k2YnnxtzIP6E0c1w8-5">
          <mxGeometry relative="1" as="geometry" />
        </mxCell>
        <mxCell id="hJ_k2YnnxtzIP6E0c1w8-17" style="edgeStyle=orthogonalEdgeStyle;rounded=0;orthogonalLoop=1;jettySize=auto;html=1;entryX=0.5;entryY=0;entryDx=0;entryDy=0;" edge="1" parent="zFZnpQMPPgIZC6EG3GRi-1" source="hJ_k2YnnxtzIP6E0c1w8-6" target="zFZnpQMPPgIZC6EG3GRi-59">
          <mxGeometry relative="1" as="geometry" />
        </mxCell>
        <mxCell id="hJ_k2YnnxtzIP6E0c1w8-6" value="Choice == Max file Size&#xa;Simultaneous transfer" style="rhombus;fillColor=#e6d0de;strokeColor=#996185;gradientColor=#d5739d;" vertex="1" parent="zFZnpQMPPgIZC6EG3GRi-1">
          <mxGeometry x="190.88999999999993" y="2265.99" width="150" height="88" as="geometry" />
        </mxCell>
        <mxCell id="hJ_k2YnnxtzIP6E0c1w8-7" style="edgeStyle=orthogonalEdgeStyle;rounded=0;orthogonalLoop=1;jettySize=auto;html=1;exitX=1;exitY=0.5;exitDx=0;exitDy=0;entryX=0;entryY=0.5;entryDx=0;entryDy=0;" edge="1" parent="zFZnpQMPPgIZC6EG3GRi-1" source="hJ_k2YnnxtzIP6E0c1w8-6" target="hJ_k2YnnxtzIP6E0c1w8-8">
          <mxGeometry relative="1" as="geometry">
            <mxPoint x="320.51" y="2390" as="sourcePoint" />
          </mxGeometry>
        </mxCell>
        <mxCell id="hJ_k2YnnxtzIP6E0c1w8-8" value="User Input Sze" style="fillColor=#e6d0de;strokeColor=#996185;gradientColor=#d5739d;" vertex="1" parent="zFZnpQMPPgIZC6EG3GRi-1">
          <mxGeometry x="430.45000000000005" y="2279.99" width="171.78" height="60" as="geometry" />
        </mxCell>
        <mxCell id="hJ_k2YnnxtzIP6E0c1w8-19" style="edgeStyle=orthogonalEdgeStyle;rounded=0;orthogonalLoop=1;jettySize=auto;html=1;entryX=0.5;entryY=0;entryDx=0;entryDy=0;" edge="1" parent="zFZnpQMPPgIZC6EG3GRi-1" source="hJ_k2YnnxtzIP6E0c1w8-9" target="zFZnpQMPPgIZC6EG3GRi-3">
          <mxGeometry relative="1" as="geometry">
            <Array as="points">
              <mxPoint x="1430" y="2310" />
              <mxPoint x="1430" y="170" />
              <mxPoint x="266" y="170" />
            </Array>
          </mxGeometry>
        </mxCell>
        <mxCell id="hJ_k2YnnxtzIP6E0c1w8-9" value="Update configuration file" style="fillColor=#e6d0de;strokeColor=#996185;gradientColor=#d5739d;" vertex="1" parent="zFZnpQMPPgIZC6EG3GRi-1">
          <mxGeometry x="708.9999999999995" y="2279.99" width="171.78" height="60" as="geometry" />
        </mxCell>
        <mxCell id="hJ_k2YnnxtzIP6E0c1w8-10" style="edgeStyle=orthogonalEdgeStyle;rounded=0;orthogonalLoop=1;jettySize=auto;html=1;exitX=1;exitY=0.5;exitDx=0;exitDy=0;entryX=0;entryY=0.5;entryDx=0;entryDy=0;" edge="1" parent="zFZnpQMPPgIZC6EG3GRi-1" source="hJ_k2YnnxtzIP6E0c1w8-8" target="hJ_k2YnnxtzIP6E0c1w8-9">
          <mxGeometry relative="1" as="geometry" />
        </mxCell>
        <mxCell id="hJ_k2YnnxtzIP6E0c1w8-13" value="No" style="text;html=1;align=center;verticalAlign=middle;whiteSpace=wrap;rounded=0;" vertex="1" parent="zFZnpQMPPgIZC6EG3GRi-1">
          <mxGeometry x="190.88999999999987" y="2225.99" width="60" height="30" as="geometry" />
        </mxCell>
        <mxCell id="hJ_k2YnnxtzIP6E0c1w8-14" value="No" style="text;html=1;align=center;verticalAlign=middle;whiteSpace=wrap;rounded=0;" vertex="1" parent="zFZnpQMPPgIZC6EG3GRi-1">
          <mxGeometry x="199.9999999999999" y="2353.99" width="60" height="30" as="geometry" />
        </mxCell>
        <mxCell id="hJ_k2YnnxtzIP6E0c1w8-15" value="Yes" style="text;html=1;align=center;verticalAlign=middle;whiteSpace=wrap;rounded=0;" vertex="1" parent="zFZnpQMPPgIZC6EG3GRi-1">
          <mxGeometry x="325.3299999999999" y="2115.99" width="60" height="30" as="geometry" />
        </mxCell>
        <mxCell id="hJ_k2YnnxtzIP6E0c1w8-16" value="Yes" style="text;html=1;align=center;verticalAlign=middle;whiteSpace=wrap;rounded=0;" vertex="1" parent="zFZnpQMPPgIZC6EG3GRi-1">
          <mxGeometry x="325.3299999999999" y="2259.99" width="60" height="30" as="geometry" />
        </mxCell>
        <mxCell id="zFZnpQMPPgIZC6EG3GRi-134" value="Create config file&#xa;with default values" style="fillColor=#1A8C16;" parent="1" vertex="1">
          <mxGeometry x="-975.8899999999999" y="510" width="171.78" height="60" as="geometry" />
        </mxCell>
        <mxCell id="zFZnpQMPPgIZC6EG3GRi-135" style="edgeStyle=orthogonalEdgeStyle;rounded=0;orthogonalLoop=1;jettySize=auto;html=1;exitX=0.5;exitY=1;exitDx=0;exitDy=0;strokeColor=#000000;entryX=0.5;entryY=0;entryDx=0;entryDy=0;" parent="1" source="zFZnpQMPPgIZC6EG3GRi-134" target="zFZnpQMPPgIZC6EG3GRi-136" edge="1">
          <mxGeometry relative="1" as="geometry">
            <mxPoint x="-730" y="650" as="sourcePoint" />
            <mxPoint x="-660" y="960" as="targetPoint" />
            <Array as="points">
              <mxPoint x="-890" y="640" />
              <mxPoint x="-749" y="640" />
            </Array>
          </mxGeometry>
        </mxCell>
        <mxCell id="zFZnpQMPPgIZC6EG3GRi-181" style="edgeStyle=orthogonalEdgeStyle;rounded=0;orthogonalLoop=1;jettySize=auto;html=1;exitX=0.5;exitY=1;exitDx=0;exitDy=0;" parent="1" source="zFZnpQMPPgIZC6EG3GRi-136" target="zFZnpQMPPgIZC6EG3GRi-154" edge="1">
          <mxGeometry relative="1" as="geometry" />
        </mxCell>
        <mxCell id="zFZnpQMPPgIZC6EG3GRi-136" value="Create config file&#xa;with default values" style="fillColor=#1A8C16;" parent="1" vertex="1">
          <mxGeometry x="-835.4200000000001" y="690" width="171.78" height="60" as="geometry" />
        </mxCell>
        <mxCell id="zFZnpQMPPgIZC6EG3GRi-137" value="" style="ellipse;shape=startState;fillColor=#1A8C16;strokeColor=#3700CC;fontColor=#ffffff;swimlaneLine=1;" parent="1" vertex="1">
          <mxGeometry x="-904.11" y="130" width="30" height="30" as="geometry" />
        </mxCell>
        <mxCell id="zFZnpQMPPgIZC6EG3GRi-138" value="Instantiate all necessary objects" style="fillColor=#1A8C16;" parent="1" vertex="1">
          <mxGeometry x="-980" y="240" width="181.78" height="40" as="geometry" />
        </mxCell>
        <mxCell id="zFZnpQMPPgIZC6EG3GRi-139" value="" style="edgeStyle=elbowEdgeStyle;elbow=horizontal;verticalAlign=bottom;endArrow=open;endSize=8;strokeColor=#000000;endFill=1;rounded=0;entryX=0.5;entryY=0;entryDx=0;entryDy=0;fillColor=#6a00ff;" parent="1" source="zFZnpQMPPgIZC6EG3GRi-137" target="zFZnpQMPPgIZC6EG3GRi-138" edge="1">
          <mxGeometry x="-135" y="-1128" as="geometry">
            <mxPoint x="-889.11" y="190" as="targetPoint" />
            <mxPoint x="-804.61" y="388" as="sourcePoint" />
          </mxGeometry>
        </mxCell>
        <mxCell id="zFZnpQMPPgIZC6EG3GRi-140" value="Is there a config file?" style="rhombus;fillColor=#1A8C16;strokeColor=default;fontColor=#000000;" parent="1" vertex="1">
          <mxGeometry x="-965" y="340" width="150" height="88" as="geometry" />
        </mxCell>
        <mxCell id="zFZnpQMPPgIZC6EG3GRi-141" style="edgeStyle=orthogonalEdgeStyle;rounded=0;orthogonalLoop=1;jettySize=auto;html=1;exitX=0.5;exitY=1;exitDx=0;exitDy=0;strokeColor=#000000;entryX=0.5;entryY=0;entryDx=0;entryDy=0;" parent="1" source="zFZnpQMPPgIZC6EG3GRi-140" target="zFZnpQMPPgIZC6EG3GRi-134" edge="1">
          <mxGeometry relative="1" as="geometry">
            <mxPoint x="-1110" y="660" as="targetPoint" />
          </mxGeometry>
        </mxCell>
        <mxCell id="zFZnpQMPPgIZC6EG3GRi-142" value="No" style="edgeLabel;html=1;align=center;verticalAlign=middle;resizable=0;points=[];" parent="zFZnpQMPPgIZC6EG3GRi-141" vertex="1" connectable="0">
          <mxGeometry x="-0.8602" y="-2" relative="1" as="geometry">
            <mxPoint x="2" y="37" as="offset" />
          </mxGeometry>
        </mxCell>
        <mxCell id="zFZnpQMPPgIZC6EG3GRi-143" value="Load available config attributes" style="gradientColor=none;fillColor=#1A8C16;" parent="1" vertex="1">
          <mxGeometry x="-835.42" y="430" width="171.78" height="40" as="geometry" />
        </mxCell>
        <mxCell id="zFZnpQMPPgIZC6EG3GRi-144" style="edgeStyle=orthogonalEdgeStyle;rounded=0;orthogonalLoop=1;jettySize=auto;html=1;exitX=0.5;exitY=1;exitDx=0;exitDy=0;strokeColor=#000000;entryX=0.5;entryY=0;entryDx=0;entryDy=0;" parent="1" source="zFZnpQMPPgIZC6EG3GRi-143" target="zFZnpQMPPgIZC6EG3GRi-136" edge="1">
          <mxGeometry relative="1" as="geometry">
            <mxPoint x="-720" y="660" as="sourcePoint" />
            <mxPoint x="-739" y="970" as="targetPoint" />
          </mxGeometry>
        </mxCell>
        <mxCell id="zFZnpQMPPgIZC6EG3GRi-145" value="" style="edgeStyle=elbowEdgeStyle;elbow=horizontal;verticalAlign=bottom;endArrow=open;endSize=8;strokeColor=#000000;endFill=1;rounded=0;entryX=0.5;entryY=0;entryDx=0;entryDy=0;fillColor=#6a00ff;exitX=0.5;exitY=1;exitDx=0;exitDy=0;" parent="1" source="zFZnpQMPPgIZC6EG3GRi-138" target="zFZnpQMPPgIZC6EG3GRi-140" edge="1">
          <mxGeometry x="-335" y="-518" as="geometry">
            <mxPoint x="-889.38" y="430" as="targetPoint" />
            <mxPoint x="-889.38" y="250" as="sourcePoint" />
          </mxGeometry>
        </mxCell>
        <mxCell id="zFZnpQMPPgIZC6EG3GRi-146" style="edgeStyle=orthogonalEdgeStyle;rounded=0;orthogonalLoop=1;jettySize=auto;html=1;exitX=1;exitY=0.5;exitDx=0;exitDy=0;entryX=0.5;entryY=0;entryDx=0;entryDy=0;strokeColor=#000000;" parent="1" source="zFZnpQMPPgIZC6EG3GRi-140" target="zFZnpQMPPgIZC6EG3GRi-143" edge="1">
          <mxGeometry relative="1" as="geometry" />
        </mxCell>
        <mxCell id="zFZnpQMPPgIZC6EG3GRi-147" value="Yes" style="edgeLabel;html=1;align=center;verticalAlign=middle;resizable=0;points=[];" parent="zFZnpQMPPgIZC6EG3GRi-146" vertex="1" connectable="0">
          <mxGeometry x="-0.6103" relative="1" as="geometry">
            <mxPoint as="offset" />
          </mxGeometry>
        </mxCell>
        <mxCell id="zFZnpQMPPgIZC6EG3GRi-148" value="Easy Save Application Exit" style="swimlane;whiteSpace=wrap;fillColor=#f8cecc;strokeColor=#b85450;swimlaneLine=1;container=0;" parent="1" vertex="1">
          <mxGeometry x="-300" y="570" width="240" height="160" as="geometry">
            <mxRectangle x="200" y="-610" width="80" height="30" as="alternateBounds" />
          </mxGeometry>
        </mxCell>
        <mxCell id="zFZnpQMPPgIZC6EG3GRi-149" value="" style="ellipse;html=1;shape=endState;fillColor=#f8cecc;strokeColor=#b85450;" parent="1" vertex="1">
          <mxGeometry x="-195" y="630" width="30" height="30" as="geometry" />
        </mxCell>
        <mxCell id="zFZnpQMPPgIZC6EG3GRi-150" value="Easy Save Application Startup" style="swimlane;whiteSpace=wrap;fillColor=#1A8C16;fontColor=#ffffff;strokeColor=#1A8C16;swimlaneLine=1;container=0;" parent="1" vertex="1">
          <mxGeometry x="-1060" y="60" width="480" height="760" as="geometry">
            <mxRectangle x="200" y="-610" width="80" height="30" as="alternateBounds" />
          </mxGeometry>
        </mxCell>
        <mxCell id="zFZnpQMPPgIZC6EG3GRi-152" style="edgeStyle=orthogonalEdgeStyle;rounded=0;orthogonalLoop=1;jettySize=auto;html=1;exitX=1;exitY=0.5;exitDx=0;exitDy=0;fillColor=#b0e3e6;strokeColor=#000000;endArrow=none;startFill=0;" parent="1" source="zFZnpQMPPgIZC6EG3GRi-158" edge="1">
          <mxGeometry relative="1" as="geometry">
            <Array as="points">
              <mxPoint x="-560" y="1014" />
              <mxPoint x="-560" y="910" />
            </Array>
            <mxPoint x="-560" y="870" as="targetPoint" />
          </mxGeometry>
        </mxCell>
        <mxCell id="zFZnpQMPPgIZC6EG3GRi-153" style="edgeStyle=orthogonalEdgeStyle;rounded=0;orthogonalLoop=1;jettySize=auto;html=1;entryX=0.5;entryY=0;entryDx=0;entryDy=0;fillColor=#b0e3e6;strokeColor=#000000;" parent="1" source="zFZnpQMPPgIZC6EG3GRi-154" target="zFZnpQMPPgIZC6EG3GRi-158" edge="1">
          <mxGeometry relative="1" as="geometry" />
        </mxCell>
        <mxCell id="zFZnpQMPPgIZC6EG3GRi-154" value="Show main menu&#xa;with options" style="fillColor=#b0e3e6;strokeColor=#0e8088;" parent="1" vertex="1">
          <mxGeometry x="-835.4200000000001" y="880" width="171.78" height="60" as="geometry" />
        </mxCell>
        <mxCell id="zFZnpQMPPgIZC6EG3GRi-155" style="edgeStyle=orthogonalEdgeStyle;rounded=0;orthogonalLoop=1;jettySize=auto;html=1;entryX=0.5;entryY=0;entryDx=0;entryDy=0;fillColor=#b0e3e6;strokeColor=#000000;" parent="1" source="zFZnpQMPPgIZC6EG3GRi-156" target="zFZnpQMPPgIZC6EG3GRi-161" edge="1">
          <mxGeometry relative="1" as="geometry" />
        </mxCell>
        <mxCell id="zFZnpQMPPgIZC6EG3GRi-182" style="edgeStyle=orthogonalEdgeStyle;rounded=0;orthogonalLoop=1;jettySize=auto;html=1;exitX=1;exitY=0.5;exitDx=0;exitDy=0;" parent="1" source="zFZnpQMPPgIZC6EG3GRi-156" edge="1">
          <mxGeometry relative="1" as="geometry">
            <Array as="points">
              <mxPoint x="-520" y="1404" />
              <mxPoint x="-520" y="422" />
              <mxPoint x="480" y="422" />
              <mxPoint x="480" y="-320" />
              <mxPoint x="870" y="-320" />
            </Array>
            <mxPoint x="870" y="-320" as="targetPoint" />
          </mxGeometry>
        </mxCell>
        <mxCell id="zFZnpQMPPgIZC6EG3GRi-156" value="Choice == Option Menu" style="rhombus;fillColor=#b0e3e6;strokeColor=#0e8088;" parent="1" vertex="1">
          <mxGeometry x="-824.53" y="1360" width="150" height="88" as="geometry" />
        </mxCell>
        <mxCell id="zFZnpQMPPgIZC6EG3GRi-160" style="edgeStyle=orthogonalEdgeStyle;rounded=0;orthogonalLoop=1;jettySize=auto;html=1;fillColor=#b0e3e6;strokeColor=#000000;entryX=0.5;entryY=0;entryDx=0;entryDy=0;" parent="1" source="zFZnpQMPPgIZC6EG3GRi-161" target="zFZnpQMPPgIZC6EG3GRi-176" edge="1">
          <mxGeometry relative="1" as="geometry" />
        </mxCell>
        <mxCell id="zFZnpQMPPgIZC6EG3GRi-209" style="edgeStyle=orthogonalEdgeStyle;rounded=0;orthogonalLoop=1;jettySize=auto;html=1;entryX=0.5;entryY=0;entryDx=0;entryDy=0;" parent="1" source="zFZnpQMPPgIZC6EG3GRi-161" target="zFZnpQMPPgIZC6EG3GRi-208" edge="1">
          <mxGeometry relative="1" as="geometry">
            <Array as="points">
              <mxPoint x="-490" y="1554" />
              <mxPoint x="-490" y="1190" />
              <mxPoint x="-274" y="1190" />
            </Array>
          </mxGeometry>
        </mxCell>
        <mxCell id="zFZnpQMPPgIZC6EG3GRi-161" value="Choice == Create Job" style="rhombus;fillColor=#b0e3e6;strokeColor=#0e8088;" parent="1" vertex="1">
          <mxGeometry x="-824.53" y="1510" width="150" height="88" as="geometry" />
        </mxCell>
        <mxCell id="zFZnpQMPPgIZC6EG3GRi-180" style="edgeStyle=orthogonalEdgeStyle;rounded=0;orthogonalLoop=1;jettySize=auto;html=1;exitX=1;exitY=0.5;exitDx=0;exitDy=0;" parent="1" source="zFZnpQMPPgIZC6EG3GRi-163" target="zFZnpQMPPgIZC6EG3GRi-149" edge="1">
          <mxGeometry relative="1" as="geometry">
            <Array as="points">
              <mxPoint x="-180" y="1125" />
            </Array>
          </mxGeometry>
        </mxCell>
        <mxCell id="zFZnpQMPPgIZC6EG3GRi-165" style="edgeStyle=orthogonalEdgeStyle;rounded=0;orthogonalLoop=1;jettySize=auto;html=1;fillColor=#b0e3e6;strokeColor=#000000;entryX=1;entryY=0.5;entryDx=0;entryDy=0;" parent="1" source="zFZnpQMPPgIZC6EG3GRi-166" edge="1" target="hJ_k2YnnxtzIP6E0c1w8-42">
          <mxGeometry relative="1" as="geometry">
            <mxPoint x="-918.2200000000003" y="1884" as="targetPoint" />
          </mxGeometry>
        </mxCell>
        <mxCell id="zFZnpQMPPgIZC6EG3GRi-515" style="edgeStyle=orthogonalEdgeStyle;rounded=0;orthogonalLoop=1;jettySize=auto;html=1;exitX=0.5;exitY=1;exitDx=0;exitDy=0;entryX=1;entryY=0.5;entryDx=0;entryDy=0;" parent="1" source="zFZnpQMPPgIZC6EG3GRi-166" target="zFZnpQMPPgIZC6EG3GRi-516" edge="1">
          <mxGeometry relative="1" as="geometry">
            <mxPoint x="-1040" y="2090" as="targetPoint" />
            <Array as="points">
              <mxPoint x="-749" y="2084" />
            </Array>
          </mxGeometry>
        </mxCell>
        <mxCell id="zFZnpQMPPgIZC6EG3GRi-166" value="Choice == Delete Job" style="rhombus;fillColor=#b0e3e6;strokeColor=#0e8088;" parent="1" vertex="1">
          <mxGeometry x="-824.53" y="1840" width="150" height="88" as="geometry" />
        </mxCell>
        <mxCell id="zFZnpQMPPgIZC6EG3GRi-170" value="No" style="edgeLabel;html=1;align=center;verticalAlign=middle;resizable=0;points=[];" parent="1" vertex="1" connectable="0">
          <mxGeometry x="-529.9975256046201" y="1297.9995774283323" as="geometry">
            <mxPoint x="-328" y="588" as="offset" />
          </mxGeometry>
        </mxCell>
        <mxCell id="zFZnpQMPPgIZC6EG3GRi-360" style="edgeStyle=orthogonalEdgeStyle;rounded=0;orthogonalLoop=1;jettySize=auto;html=1;exitX=1;exitY=0.5;exitDx=0;exitDy=0;entryX=0;entryY=0.5;entryDx=0;entryDy=0;" parent="1" source="zFZnpQMPPgIZC6EG3GRi-176" target="zFZnpQMPPgIZC6EG3GRi-285" edge="1">
          <mxGeometry relative="1" as="geometry">
            <Array as="points">
              <mxPoint x="-570" y="1722" />
              <mxPoint x="-570" y="2190" />
              <mxPoint x="-1500" y="2190" />
              <mxPoint x="-1500" y="2330" />
            </Array>
          </mxGeometry>
        </mxCell>
        <mxCell id="zFZnpQMPPgIZC6EG3GRi-441" style="edgeStyle=orthogonalEdgeStyle;rounded=0;orthogonalLoop=1;jettySize=auto;html=1;entryX=0.5;entryY=0;entryDx=0;entryDy=0;" parent="1" source="zFZnpQMPPgIZC6EG3GRi-176" target="zFZnpQMPPgIZC6EG3GRi-166" edge="1">
          <mxGeometry relative="1" as="geometry" />
        </mxCell>
        <mxCell id="zFZnpQMPPgIZC6EG3GRi-176" value="Choice == Modify Job" style="rhombus;fillColor=#b0e3e6;strokeColor=#0e8088;" parent="1" vertex="1">
          <mxGeometry x="-824.53" y="1678" width="150" height="88" as="geometry" />
        </mxCell>
        <mxCell id="zFZnpQMPPgIZC6EG3GRi-177" value="No" style="edgeLabel;html=1;align=center;verticalAlign=middle;resizable=0;points=[];" parent="1" vertex="1" connectable="0">
          <mxGeometry x="-594.3775256046201" y="1279.9995774283323" as="geometry">
            <mxPoint x="-158" y="516" as="offset" />
          </mxGeometry>
        </mxCell>
        <mxCell id="zFZnpQMPPgIZC6EG3GRi-10" style="edgeStyle=orthogonalEdgeStyle;rounded=0;orthogonalLoop=1;jettySize=auto;html=1;entryX=0.75;entryY=0;entryDx=0;entryDy=0;exitX=0;exitY=0.5;exitDx=0;exitDy=0;" parent="1" source="zFZnpQMPPgIZC6EG3GRi-11" target="zFZnpQMPPgIZC6EG3GRi-154" edge="1">
          <mxGeometry relative="1" as="geometry">
            <mxPoint x="450" y="245.99" as="targetPoint" />
            <Array as="points">
              <mxPoint x="510" y="-42" />
              <mxPoint x="510" y="520" />
              <mxPoint x="-490" y="520" />
              <mxPoint x="-490" y="870" />
              <mxPoint x="-707" y="870" />
            </Array>
            <mxPoint x="380" y="694" as="sourcePoint" />
          </mxGeometry>
        </mxCell>
        <mxCell id="zFZnpQMPPgIZC6EG3GRi-201" value="Easy Save Application Create Job menu" style="swimlane;whiteSpace=wrap;fillColor=#ffe6cc;strokeColor=#d79b00;swimlaneLine=1;container=0;" parent="1" vertex="1">
          <mxGeometry x="-400" y="1140" width="980" height="1280" as="geometry">
            <mxRectangle x="200" y="-610" width="80" height="30" as="alternateBounds" />
          </mxGeometry>
        </mxCell>
        <mxCell id="zFZnpQMPPgIZC6EG3GRi-228" style="edgeStyle=orthogonalEdgeStyle;rounded=0;orthogonalLoop=1;jettySize=auto;html=1;exitX=0.5;exitY=1;exitDx=0;exitDy=0;entryX=0.5;entryY=0;entryDx=0;entryDy=0;" parent="zFZnpQMPPgIZC6EG3GRi-201" source="zFZnpQMPPgIZC6EG3GRi-208" target="zFZnpQMPPgIZC6EG3GRi-227" edge="1">
          <mxGeometry relative="1" as="geometry" />
        </mxCell>
        <mxCell id="zFZnpQMPPgIZC6EG3GRi-208" value="Show Create Job Menu" style="fillColor=#ffe6cc;strokeColor=#d79b00;" parent="zFZnpQMPPgIZC6EG3GRi-201" vertex="1">
          <mxGeometry x="40" y="90" width="171.78" height="60" as="geometry" />
        </mxCell>
        <mxCell id="zFZnpQMPPgIZC6EG3GRi-210" style="edgeStyle=orthogonalEdgeStyle;rounded=0;orthogonalLoop=1;jettySize=auto;html=1;exitX=0.5;exitY=1;exitDx=0;exitDy=0;fillColor=#ffe6cc;strokeColor=#000000;" parent="zFZnpQMPPgIZC6EG3GRi-201" source="zFZnpQMPPgIZC6EG3GRi-211" target="zFZnpQMPPgIZC6EG3GRi-214" edge="1">
          <mxGeometry relative="1" as="geometry" />
        </mxCell>
        <mxCell id="zFZnpQMPPgIZC6EG3GRi-255" style="edgeStyle=orthogonalEdgeStyle;rounded=0;orthogonalLoop=1;jettySize=auto;html=1;exitX=1;exitY=0.5;exitDx=0;exitDy=0;entryX=0;entryY=0.5;entryDx=0;entryDy=0;" parent="zFZnpQMPPgIZC6EG3GRi-201" source="zFZnpQMPPgIZC6EG3GRi-211" target="zFZnpQMPPgIZC6EG3GRi-250" edge="1">
          <mxGeometry relative="1" as="geometry" />
        </mxCell>
        <mxCell id="zFZnpQMPPgIZC6EG3GRi-211" value="Choice == &#xa;Enter Name" style="rhombus;fillColor=#ffe6cc;strokeColor=#d79b00;" parent="zFZnpQMPPgIZC6EG3GRi-201" vertex="1">
          <mxGeometry x="50.8900000000001" y="310" width="150" height="88" as="geometry" />
        </mxCell>
        <mxCell id="zFZnpQMPPgIZC6EG3GRi-212" value="No" style="text;html=1;align=center;verticalAlign=middle;whiteSpace=wrap;rounded=0;fillColor=none;strokeColor=none;" parent="zFZnpQMPPgIZC6EG3GRi-201" vertex="1">
          <mxGeometry x="50.8900000000001" y="398" width="60" height="30" as="geometry" />
        </mxCell>
        <mxCell id="zFZnpQMPPgIZC6EG3GRi-213" style="edgeStyle=orthogonalEdgeStyle;rounded=0;orthogonalLoop=1;jettySize=auto;html=1;exitX=0.5;exitY=1;exitDx=0;exitDy=0;entryX=0.5;entryY=0;entryDx=0;entryDy=0;fillColor=#ffe6cc;strokeColor=#000000;" parent="zFZnpQMPPgIZC6EG3GRi-201" source="zFZnpQMPPgIZC6EG3GRi-214" target="zFZnpQMPPgIZC6EG3GRi-217" edge="1">
          <mxGeometry relative="1" as="geometry" />
        </mxCell>
        <mxCell id="zFZnpQMPPgIZC6EG3GRi-242" style="edgeStyle=orthogonalEdgeStyle;rounded=0;orthogonalLoop=1;jettySize=auto;html=1;exitX=1;exitY=0.5;exitDx=0;exitDy=0;entryX=0;entryY=0.5;entryDx=0;entryDy=0;" parent="zFZnpQMPPgIZC6EG3GRi-201" source="zFZnpQMPPgIZC6EG3GRi-214" target="zFZnpQMPPgIZC6EG3GRi-237" edge="1">
          <mxGeometry relative="1" as="geometry" />
        </mxCell>
        <mxCell id="zFZnpQMPPgIZC6EG3GRi-214" value="Choice == Set &#xa; Target directory  " style="rhombus;fillColor=#ffe6cc;strokeColor=#d79b00;" parent="zFZnpQMPPgIZC6EG3GRi-201" vertex="1">
          <mxGeometry x="50.8900000000001" y="447" width="150" height="88" as="geometry" />
        </mxCell>
        <mxCell id="zFZnpQMPPgIZC6EG3GRi-215" value="No" style="text;html=1;align=center;verticalAlign=middle;whiteSpace=wrap;rounded=0;fillColor=none;strokeColor=none;" parent="zFZnpQMPPgIZC6EG3GRi-201" vertex="1">
          <mxGeometry x="50.8900000000001" y="535" width="60" height="30" as="geometry" />
        </mxCell>
        <mxCell id="zFZnpQMPPgIZC6EG3GRi-216" style="edgeStyle=orthogonalEdgeStyle;rounded=0;orthogonalLoop=1;jettySize=auto;html=1;exitX=0.5;exitY=1;exitDx=0;exitDy=0;fillColor=#ffe6cc;strokeColor=#000000;" parent="zFZnpQMPPgIZC6EG3GRi-201" source="zFZnpQMPPgIZC6EG3GRi-217" target="zFZnpQMPPgIZC6EG3GRi-220" edge="1">
          <mxGeometry relative="1" as="geometry" />
        </mxCell>
        <mxCell id="zFZnpQMPPgIZC6EG3GRi-249" style="edgeStyle=orthogonalEdgeStyle;rounded=0;orthogonalLoop=1;jettySize=auto;html=1;exitX=1;exitY=0.5;exitDx=0;exitDy=0;entryX=0;entryY=0.5;entryDx=0;entryDy=0;" parent="zFZnpQMPPgIZC6EG3GRi-201" source="zFZnpQMPPgIZC6EG3GRi-217" target="zFZnpQMPPgIZC6EG3GRi-244" edge="1">
          <mxGeometry relative="1" as="geometry" />
        </mxCell>
        <mxCell id="zFZnpQMPPgIZC6EG3GRi-217" value="Choice == Set &#xa; Source directory" style="rhombus;fillColor=#ffe6cc;strokeColor=#d79b00;" parent="zFZnpQMPPgIZC6EG3GRi-201" vertex="1">
          <mxGeometry x="50.889999999999986" y="586" width="150" height="88" as="geometry" />
        </mxCell>
        <mxCell id="zFZnpQMPPgIZC6EG3GRi-218" value="No" style="text;html=1;align=center;verticalAlign=middle;whiteSpace=wrap;rounded=0;fillColor=none;strokeColor=none;" parent="zFZnpQMPPgIZC6EG3GRi-201" vertex="1">
          <mxGeometry x="50.889999999999986" y="674" width="60" height="30" as="geometry" />
        </mxCell>
        <mxCell id="zFZnpQMPPgIZC6EG3GRi-219" style="edgeStyle=orthogonalEdgeStyle;rounded=0;orthogonalLoop=1;jettySize=auto;html=1;exitX=0.5;exitY=1;exitDx=0;exitDy=0;entryX=0.5;entryY=0;entryDx=0;entryDy=0;fillColor=#ffe6cc;strokeColor=#000000;" parent="zFZnpQMPPgIZC6EG3GRi-201" source="zFZnpQMPPgIZC6EG3GRi-220" target="zFZnpQMPPgIZC6EG3GRi-223" edge="1">
          <mxGeometry relative="1" as="geometry" />
        </mxCell>
        <mxCell id="zFZnpQMPPgIZC6EG3GRi-220" value="Choice == Set &#xa;Execution Strategy " style="rhombus;fillColor=#ffe6cc;strokeColor=#d79b00;" parent="zFZnpQMPPgIZC6EG3GRi-201" vertex="1">
          <mxGeometry x="50.889999999999986" y="723" width="150" height="88" as="geometry" />
        </mxCell>
        <mxCell id="zFZnpQMPPgIZC6EG3GRi-221" value="No" style="text;html=1;align=center;verticalAlign=middle;whiteSpace=wrap;rounded=0;fillColor=none;strokeColor=none;" parent="zFZnpQMPPgIZC6EG3GRi-201" vertex="1">
          <mxGeometry x="50.889999999999986" y="811" width="60" height="30" as="geometry" />
        </mxCell>
        <mxCell id="zFZnpQMPPgIZC6EG3GRi-222" style="edgeStyle=orthogonalEdgeStyle;rounded=0;orthogonalLoop=1;jettySize=auto;html=1;exitX=0.5;exitY=1;exitDx=0;exitDy=0;fillColor=#ffe6cc;strokeColor=#000000;" parent="zFZnpQMPPgIZC6EG3GRi-201" source="zFZnpQMPPgIZC6EG3GRi-223" target="zFZnpQMPPgIZC6EG3GRi-225" edge="1">
          <mxGeometry relative="1" as="geometry" />
        </mxCell>
        <mxCell id="zFZnpQMPPgIZC6EG3GRi-223" value="Choice == &#xa;Toggle Encryption" style="rhombus;fillColor=#ffe6cc;strokeColor=#d79b00;" parent="zFZnpQMPPgIZC6EG3GRi-201" vertex="1">
          <mxGeometry x="50.889999999999986" y="856" width="150" height="88" as="geometry" />
        </mxCell>
        <mxCell id="zFZnpQMPPgIZC6EG3GRi-224" value="No" style="text;html=1;align=center;verticalAlign=middle;whiteSpace=wrap;rounded=0;fillColor=none;strokeColor=none;" parent="zFZnpQMPPgIZC6EG3GRi-201" vertex="1">
          <mxGeometry x="50.889999999999986" y="944" width="60" height="30" as="geometry" />
        </mxCell>
        <mxCell id="zFZnpQMPPgIZC6EG3GRi-225" value="Choice == Create Job" style="rhombus;fillColor=#ffe6cc;strokeColor=#d79b00;" parent="zFZnpQMPPgIZC6EG3GRi-201" vertex="1">
          <mxGeometry x="50.889999999999986" y="993" width="150" height="88" as="geometry" />
        </mxCell>
        <mxCell id="zFZnpQMPPgIZC6EG3GRi-229" style="edgeStyle=orthogonalEdgeStyle;rounded=0;orthogonalLoop=1;jettySize=auto;html=1;exitX=1;exitY=0.5;exitDx=0;exitDy=0;entryX=1;entryY=0.5;entryDx=0;entryDy=0;" parent="zFZnpQMPPgIZC6EG3GRi-201" source="zFZnpQMPPgIZC6EG3GRi-227" target="zFZnpQMPPgIZC6EG3GRi-208" edge="1">
          <mxGeometry relative="1" as="geometry">
            <Array as="points">
              <mxPoint x="260" y="234" />
              <mxPoint x="260" y="120" />
            </Array>
          </mxGeometry>
        </mxCell>
        <mxCell id="zFZnpQMPPgIZC6EG3GRi-231" style="edgeStyle=orthogonalEdgeStyle;rounded=0;orthogonalLoop=1;jettySize=auto;html=1;exitX=0.5;exitY=1;exitDx=0;exitDy=0;entryX=0.5;entryY=0;entryDx=0;entryDy=0;fillColor=#ffe6cc;strokeColor=#000000;" parent="zFZnpQMPPgIZC6EG3GRi-201" source="zFZnpQMPPgIZC6EG3GRi-227" target="zFZnpQMPPgIZC6EG3GRi-211" edge="1">
          <mxGeometry relative="1" as="geometry" />
        </mxCell>
        <mxCell id="zFZnpQMPPgIZC6EG3GRi-227" value="User selected a choice ?" style="rhombus;fillColor=#ffe6cc;strokeColor=#d79b00;" parent="zFZnpQMPPgIZC6EG3GRi-201" vertex="1">
          <mxGeometry x="50.889999999999986" y="190" width="150" height="88" as="geometry" />
        </mxCell>
        <mxCell id="zFZnpQMPPgIZC6EG3GRi-232" value="No" style="text;html=1;align=center;verticalAlign=middle;whiteSpace=wrap;rounded=0;fillColor=none;strokeColor=none;" parent="zFZnpQMPPgIZC6EG3GRi-201" vertex="1">
          <mxGeometry x="200.89" y="240" width="60" height="30" as="geometry" />
        </mxCell>
        <mxCell id="zFZnpQMPPgIZC6EG3GRi-235" value="Yes" style="text;html=1;align=center;verticalAlign=middle;whiteSpace=wrap;rounded=0;fillColor=none;strokeColor=none;" parent="zFZnpQMPPgIZC6EG3GRi-201" vertex="1">
          <mxGeometry x="50.889999999999986" y="270" width="60" height="30" as="geometry" />
        </mxCell>
        <mxCell id="zFZnpQMPPgIZC6EG3GRi-236" style="edgeStyle=orthogonalEdgeStyle;rounded=0;orthogonalLoop=1;jettySize=auto;html=1;exitX=1;exitY=0.5;exitDx=0;exitDy=0;entryX=0;entryY=0.5;entryDx=0;entryDy=0;" parent="zFZnpQMPPgIZC6EG3GRi-201" source="zFZnpQMPPgIZC6EG3GRi-237" target="zFZnpQMPPgIZC6EG3GRi-239" edge="1">
          <mxGeometry relative="1" as="geometry" />
        </mxCell>
        <mxCell id="zFZnpQMPPgIZC6EG3GRi-237" value="Browse User&#39;s Drive" style="fillColor=#ffe6cc;strokeColor=#d79b00;" parent="zFZnpQMPPgIZC6EG3GRi-201" vertex="1">
          <mxGeometry x="260" y="461" width="171.78" height="60" as="geometry" />
        </mxCell>
        <mxCell id="zFZnpQMPPgIZC6EG3GRi-238" style="edgeStyle=orthogonalEdgeStyle;rounded=0;orthogonalLoop=1;jettySize=auto;html=1;entryX=0;entryY=0.5;entryDx=0;entryDy=0;fillColor=#e6d0de;gradientColor=#d5739d;strokeColor=#000000;" parent="zFZnpQMPPgIZC6EG3GRi-201" source="zFZnpQMPPgIZC6EG3GRi-239" target="zFZnpQMPPgIZC6EG3GRi-240" edge="1">
          <mxGeometry relative="1" as="geometry">
            <mxPoint x="585" y="637" as="targetPoint" />
          </mxGeometry>
        </mxCell>
        <mxCell id="zFZnpQMPPgIZC6EG3GRi-253" style="edgeStyle=orthogonalEdgeStyle;rounded=0;orthogonalLoop=1;jettySize=auto;html=1;exitX=0.5;exitY=0;exitDx=0;exitDy=0;endArrow=none;startFill=0;" parent="zFZnpQMPPgIZC6EG3GRi-201" source="zFZnpQMPPgIZC6EG3GRi-239" edge="1">
          <mxGeometry relative="1" as="geometry">
            <mxPoint x="950" y="430" as="targetPoint" />
            <Array as="points">
              <mxPoint x="595" y="427" />
              <mxPoint x="950" y="427" />
            </Array>
          </mxGeometry>
        </mxCell>
        <mxCell id="zFZnpQMPPgIZC6EG3GRi-239" value="User selected &#xa;a path ?" style="rhombus;fillColor=#ffe6cc;strokeColor=#d79b00;" parent="zFZnpQMPPgIZC6EG3GRi-201" vertex="1">
          <mxGeometry x="520" y="447" width="150" height="88" as="geometry" />
        </mxCell>
        <mxCell id="zFZnpQMPPgIZC6EG3GRi-256" style="edgeStyle=orthogonalEdgeStyle;rounded=0;orthogonalLoop=1;jettySize=auto;html=1;exitX=1;exitY=0.5;exitDx=0;exitDy=0;endArrow=none;startFill=0;" parent="zFZnpQMPPgIZC6EG3GRi-201" source="zFZnpQMPPgIZC6EG3GRi-240" edge="1">
          <mxGeometry relative="1" as="geometry">
            <mxPoint x="950" y="491.3684210526317" as="targetPoint" />
          </mxGeometry>
        </mxCell>
        <mxCell id="zFZnpQMPPgIZC6EG3GRi-240" value="Update current job parameters" style="fillColor=#ffe6cc;strokeColor=#d79b00;" parent="zFZnpQMPPgIZC6EG3GRi-201" vertex="1">
          <mxGeometry x="738" y="461" width="171.78" height="60" as="geometry" />
        </mxCell>
        <mxCell id="zFZnpQMPPgIZC6EG3GRi-241" value="Yes" style="text;html=1;align=center;verticalAlign=middle;whiteSpace=wrap;rounded=0;" parent="zFZnpQMPPgIZC6EG3GRi-201" vertex="1">
          <mxGeometry x="650" y="493.01" width="60" height="30" as="geometry" />
        </mxCell>
        <mxCell id="zFZnpQMPPgIZC6EG3GRi-243" style="edgeStyle=orthogonalEdgeStyle;rounded=0;orthogonalLoop=1;jettySize=auto;html=1;exitX=1;exitY=0.5;exitDx=0;exitDy=0;entryX=0;entryY=0.5;entryDx=0;entryDy=0;" parent="zFZnpQMPPgIZC6EG3GRi-201" source="zFZnpQMPPgIZC6EG3GRi-244" target="zFZnpQMPPgIZC6EG3GRi-246" edge="1">
          <mxGeometry relative="1" as="geometry" />
        </mxCell>
        <mxCell id="zFZnpQMPPgIZC6EG3GRi-244" value="Browse User&#39;s Drive" style="fillColor=#ffe6cc;strokeColor=#d79b00;" parent="zFZnpQMPPgIZC6EG3GRi-201" vertex="1">
          <mxGeometry x="260.89" y="600" width="171.78" height="60" as="geometry" />
        </mxCell>
        <mxCell id="zFZnpQMPPgIZC6EG3GRi-245" style="edgeStyle=orthogonalEdgeStyle;rounded=0;orthogonalLoop=1;jettySize=auto;html=1;entryX=0;entryY=0.5;entryDx=0;entryDy=0;fillColor=#e6d0de;gradientColor=#d5739d;strokeColor=#000000;" parent="zFZnpQMPPgIZC6EG3GRi-201" source="zFZnpQMPPgIZC6EG3GRi-246" target="zFZnpQMPPgIZC6EG3GRi-247" edge="1">
          <mxGeometry relative="1" as="geometry">
            <mxPoint x="585.89" y="776" as="targetPoint" />
          </mxGeometry>
        </mxCell>
        <mxCell id="zFZnpQMPPgIZC6EG3GRi-251" style="edgeStyle=orthogonalEdgeStyle;rounded=0;orthogonalLoop=1;jettySize=auto;html=1;exitX=0.5;exitY=0;exitDx=0;exitDy=0;entryX=1;entryY=0.5;entryDx=0;entryDy=0;" parent="zFZnpQMPPgIZC6EG3GRi-201" source="zFZnpQMPPgIZC6EG3GRi-246" target="zFZnpQMPPgIZC6EG3GRi-208" edge="1">
          <mxGeometry relative="1" as="geometry">
            <Array as="points">
              <mxPoint x="596" y="560" />
              <mxPoint x="950" y="560" />
              <mxPoint x="950" y="120" />
            </Array>
          </mxGeometry>
        </mxCell>
        <mxCell id="zFZnpQMPPgIZC6EG3GRi-246" value="User selected &#xa;a path ?" style="rhombus;fillColor=#ffe6cc;strokeColor=#d79b00;" parent="zFZnpQMPPgIZC6EG3GRi-201" vertex="1">
          <mxGeometry x="520.89" y="586" width="150" height="88" as="geometry" />
        </mxCell>
        <mxCell id="zFZnpQMPPgIZC6EG3GRi-252" style="edgeStyle=orthogonalEdgeStyle;rounded=0;orthogonalLoop=1;jettySize=auto;html=1;exitX=1;exitY=0.5;exitDx=0;exitDy=0;endArrow=none;startFill=0;" parent="zFZnpQMPPgIZC6EG3GRi-201" source="zFZnpQMPPgIZC6EG3GRi-247" edge="1">
          <mxGeometry relative="1" as="geometry">
            <mxPoint x="950" y="540" as="targetPoint" />
          </mxGeometry>
        </mxCell>
        <mxCell id="zFZnpQMPPgIZC6EG3GRi-247" value="Update current job parameters" style="fillColor=#ffe6cc;strokeColor=#d79b00;" parent="zFZnpQMPPgIZC6EG3GRi-201" vertex="1">
          <mxGeometry x="738.89" y="600" width="171.78" height="60" as="geometry" />
        </mxCell>
        <mxCell id="zFZnpQMPPgIZC6EG3GRi-248" value="Yes" style="text;html=1;align=center;verticalAlign=middle;whiteSpace=wrap;rounded=0;" parent="zFZnpQMPPgIZC6EG3GRi-201" vertex="1">
          <mxGeometry x="650.89" y="632.01" width="60" height="30" as="geometry" />
        </mxCell>
        <mxCell id="zFZnpQMPPgIZC6EG3GRi-254" style="edgeStyle=orthogonalEdgeStyle;rounded=0;orthogonalLoop=1;jettySize=auto;html=1;exitX=1;exitY=0.5;exitDx=0;exitDy=0;endArrow=none;startFill=0;" parent="zFZnpQMPPgIZC6EG3GRi-201" source="zFZnpQMPPgIZC6EG3GRi-250" edge="1">
          <mxGeometry relative="1" as="geometry">
            <mxPoint x="500" y="119.99999999999977" as="targetPoint" />
          </mxGeometry>
        </mxCell>
        <mxCell id="zFZnpQMPPgIZC6EG3GRi-250" value="Update current job parameters" style="fillColor=#ffe6cc;strokeColor=#d79b00;" parent="zFZnpQMPPgIZC6EG3GRi-201" vertex="1">
          <mxGeometry x="260" y="324" width="171.78" height="60" as="geometry" />
        </mxCell>
        <mxCell id="zFZnpQMPPgIZC6EG3GRi-257" style="edgeStyle=orthogonalEdgeStyle;rounded=0;orthogonalLoop=1;jettySize=auto;html=1;exitX=1;exitY=0.5;exitDx=0;exitDy=0;entryX=0;entryY=0.5;entryDx=0;entryDy=0;" parent="zFZnpQMPPgIZC6EG3GRi-201" target="zFZnpQMPPgIZC6EG3GRi-258" edge="1">
          <mxGeometry relative="1" as="geometry">
            <mxPoint x="200.11" y="767" as="sourcePoint" />
          </mxGeometry>
        </mxCell>
        <mxCell id="zFZnpQMPPgIZC6EG3GRi-267" style="edgeStyle=orthogonalEdgeStyle;rounded=0;orthogonalLoop=1;jettySize=auto;html=1;exitX=1;exitY=0.5;exitDx=0;exitDy=0;endArrow=none;startFill=0;" parent="zFZnpQMPPgIZC6EG3GRi-201" source="zFZnpQMPPgIZC6EG3GRi-258" edge="1">
          <mxGeometry relative="1" as="geometry">
            <mxPoint x="950" y="620" as="targetPoint" />
          </mxGeometry>
        </mxCell>
        <mxCell id="zFZnpQMPPgIZC6EG3GRi-258" value="Update current job parameters" style="fillColor=#ffe6cc;strokeColor=#d79b00;" parent="zFZnpQMPPgIZC6EG3GRi-201" vertex="1">
          <mxGeometry x="260" y="737" width="171.78" height="60" as="geometry" />
        </mxCell>
        <mxCell id="zFZnpQMPPgIZC6EG3GRi-259" style="edgeStyle=orthogonalEdgeStyle;rounded=0;orthogonalLoop=1;jettySize=auto;html=1;exitX=1;exitY=0.5;exitDx=0;exitDy=0;entryX=0;entryY=0.5;entryDx=0;entryDy=0;" parent="zFZnpQMPPgIZC6EG3GRi-201" source="zFZnpQMPPgIZC6EG3GRi-223" target="zFZnpQMPPgIZC6EG3GRi-260" edge="1">
          <mxGeometry relative="1" as="geometry">
            <mxPoint x="211.78" y="900" as="sourcePoint" />
          </mxGeometry>
        </mxCell>
        <mxCell id="zFZnpQMPPgIZC6EG3GRi-268" style="edgeStyle=orthogonalEdgeStyle;rounded=0;orthogonalLoop=1;jettySize=auto;html=1;endArrow=none;startFill=0;" parent="zFZnpQMPPgIZC6EG3GRi-201" source="zFZnpQMPPgIZC6EG3GRi-260" edge="1">
          <mxGeometry relative="1" as="geometry">
            <mxPoint x="950" y="760" as="targetPoint" />
          </mxGeometry>
        </mxCell>
        <mxCell id="zFZnpQMPPgIZC6EG3GRi-260" value="Update current job parameters" style="fillColor=#ffe6cc;strokeColor=#d79b00;" parent="zFZnpQMPPgIZC6EG3GRi-201" vertex="1">
          <mxGeometry x="259.99999999999994" y="870" width="171.78" height="60" as="geometry" />
        </mxCell>
        <mxCell id="zFZnpQMPPgIZC6EG3GRi-264" style="edgeStyle=orthogonalEdgeStyle;rounded=0;orthogonalLoop=1;jettySize=auto;html=1;exitX=0.5;exitY=1;exitDx=0;exitDy=0;fillColor=#ffe6cc;strokeColor=#000000;" parent="zFZnpQMPPgIZC6EG3GRi-201" edge="1">
          <mxGeometry relative="1" as="geometry">
            <mxPoint x="126" y="1081" as="sourcePoint" />
            <mxPoint x="125.875" y="1130.0088" as="targetPoint" />
          </mxGeometry>
        </mxCell>
        <mxCell id="zFZnpQMPPgIZC6EG3GRi-265" value="No" style="text;html=1;align=center;verticalAlign=middle;whiteSpace=wrap;rounded=0;fillColor=none;strokeColor=none;" parent="zFZnpQMPPgIZC6EG3GRi-201" vertex="1">
          <mxGeometry x="50.889999999999986" y="1081" width="60" height="30" as="geometry" />
        </mxCell>
        <mxCell id="zFZnpQMPPgIZC6EG3GRi-269" style="edgeStyle=orthogonalEdgeStyle;rounded=0;orthogonalLoop=1;jettySize=auto;html=1;exitX=1;exitY=0.5;exitDx=0;exitDy=0;entryX=0;entryY=0.5;entryDx=0;entryDy=0;" parent="zFZnpQMPPgIZC6EG3GRi-201" edge="1">
          <mxGeometry relative="1" as="geometry">
            <mxPoint x="201.89" y="1037" as="sourcePoint" />
            <mxPoint x="260.8899999999999" y="1037" as="targetPoint" />
          </mxGeometry>
        </mxCell>
        <mxCell id="zFZnpQMPPgIZC6EG3GRi-274" style="edgeStyle=orthogonalEdgeStyle;rounded=0;orthogonalLoop=1;jettySize=auto;html=1;exitX=0.5;exitY=1;exitDx=0;exitDy=0;entryX=0.5;entryY=0;entryDx=0;entryDy=0;" parent="zFZnpQMPPgIZC6EG3GRi-201" source="zFZnpQMPPgIZC6EG3GRi-271" target="zFZnpQMPPgIZC6EG3GRi-273" edge="1">
          <mxGeometry relative="1" as="geometry" />
        </mxCell>
        <mxCell id="zFZnpQMPPgIZC6EG3GRi-275" style="edgeStyle=orthogonalEdgeStyle;rounded=0;orthogonalLoop=1;jettySize=auto;html=1;entryX=0;entryY=0.5;entryDx=0;entryDy=0;" parent="zFZnpQMPPgIZC6EG3GRi-201" source="zFZnpQMPPgIZC6EG3GRi-271" target="zFZnpQMPPgIZC6EG3GRi-276" edge="1">
          <mxGeometry relative="1" as="geometry">
            <mxPoint x="549.9999999999995" y="1036.9999999999995" as="targetPoint" />
          </mxGeometry>
        </mxCell>
        <mxCell id="zFZnpQMPPgIZC6EG3GRi-271" value="Are all parameters set ?" style="rhombus;fillColor=#ffe6cc;strokeColor=#d79b00;" parent="zFZnpQMPPgIZC6EG3GRi-201" vertex="1">
          <mxGeometry x="260" y="993" width="150" height="88" as="geometry" />
        </mxCell>
        <mxCell id="zFZnpQMPPgIZC6EG3GRi-272" value="Yes" style="text;html=1;align=center;verticalAlign=middle;whiteSpace=wrap;rounded=0;" parent="zFZnpQMPPgIZC6EG3GRi-201" vertex="1">
          <mxGeometry x="260" y="1070" width="60" height="30" as="geometry" />
        </mxCell>
        <mxCell id="zFZnpQMPPgIZC6EG3GRi-273" value="Create the Job" style="fillColor=#ffe6cc;strokeColor=#d79b00;" parent="zFZnpQMPPgIZC6EG3GRi-201" vertex="1">
          <mxGeometry x="249.11" y="1111" width="171.78" height="60" as="geometry" />
        </mxCell>
        <mxCell id="zFZnpQMPPgIZC6EG3GRi-280" style="edgeStyle=orthogonalEdgeStyle;rounded=0;orthogonalLoop=1;jettySize=auto;html=1;exitX=1;exitY=0.5;exitDx=0;exitDy=0;endArrow=none;startFill=0;" parent="zFZnpQMPPgIZC6EG3GRi-201" source="zFZnpQMPPgIZC6EG3GRi-276" edge="1">
          <mxGeometry relative="1" as="geometry">
            <mxPoint x="950.0000000000005" y="1037.25" as="targetPoint" />
          </mxGeometry>
        </mxCell>
        <mxCell id="zFZnpQMPPgIZC6EG3GRi-276" value="Error : Not all parameters set" style="fillColor=#ffe6cc;strokeColor=#d79b00;" parent="zFZnpQMPPgIZC6EG3GRi-201" vertex="1">
          <mxGeometry x="509.11" y="1007" width="171.78" height="60" as="geometry" />
        </mxCell>
        <mxCell id="zFZnpQMPPgIZC6EG3GRi-277" value="No" style="text;html=1;align=center;verticalAlign=middle;whiteSpace=wrap;rounded=0;" parent="zFZnpQMPPgIZC6EG3GRi-201" vertex="1">
          <mxGeometry x="410" y="1000" width="60" height="30" as="geometry" />
        </mxCell>
        <mxCell id="zFZnpQMPPgIZC6EG3GRi-279" style="edgeStyle=orthogonalEdgeStyle;rounded=0;orthogonalLoop=1;jettySize=auto;html=1;exitX=0.5;exitY=1;exitDx=0;exitDy=0;endArrow=none;startFill=0;" parent="zFZnpQMPPgIZC6EG3GRi-201" source="zFZnpQMPPgIZC6EG3GRi-278" edge="1">
          <mxGeometry relative="1" as="geometry">
            <mxPoint x="950.0000000000005" y="900" as="targetPoint" />
          </mxGeometry>
        </mxCell>
        <mxCell id="zFZnpQMPPgIZC6EG3GRi-278" value="Error : Wrong Input" style="fillColor=#ffe6cc;strokeColor=#d79b00;" parent="zFZnpQMPPgIZC6EG3GRi-201" vertex="1">
          <mxGeometry x="40" y="1130" width="171.78" height="60" as="geometry" />
        </mxCell>
        <mxCell id="zFZnpQMPPgIZC6EG3GRi-347" value="Yes" style="text;html=1;align=center;verticalAlign=middle;whiteSpace=wrap;rounded=0;fillColor=none;strokeColor=none;" parent="zFZnpQMPPgIZC6EG3GRi-201" vertex="1">
          <mxGeometry x="200" y="360" width="60" height="30" as="geometry" />
        </mxCell>
        <mxCell id="zFZnpQMPPgIZC6EG3GRi-348" value="Yes" style="text;html=1;align=center;verticalAlign=middle;whiteSpace=wrap;rounded=0;fillColor=none;strokeColor=none;" parent="zFZnpQMPPgIZC6EG3GRi-201" vertex="1">
          <mxGeometry x="200.89" y="500" width="60" height="30" as="geometry" />
        </mxCell>
        <mxCell id="zFZnpQMPPgIZC6EG3GRi-349" value="Yes" style="text;html=1;align=center;verticalAlign=middle;whiteSpace=wrap;rounded=0;fillColor=none;strokeColor=none;" parent="zFZnpQMPPgIZC6EG3GRi-201" vertex="1">
          <mxGeometry x="200.89000000000001" y="644" width="60" height="30" as="geometry" />
        </mxCell>
        <mxCell id="zFZnpQMPPgIZC6EG3GRi-350" value="Yes" style="text;html=1;align=center;verticalAlign=middle;whiteSpace=wrap;rounded=0;fillColor=none;strokeColor=none;" parent="zFZnpQMPPgIZC6EG3GRi-201" vertex="1">
          <mxGeometry x="200.89" y="781" width="60" height="30" as="geometry" />
        </mxCell>
        <mxCell id="zFZnpQMPPgIZC6EG3GRi-351" value="Yes" style="text;html=1;align=center;verticalAlign=middle;whiteSpace=wrap;rounded=0;fillColor=none;strokeColor=none;" parent="zFZnpQMPPgIZC6EG3GRi-201" vertex="1">
          <mxGeometry x="200" y="904" width="60" height="30" as="geometry" />
        </mxCell>
        <mxCell id="zFZnpQMPPgIZC6EG3GRi-352" value="Yes" style="text;html=1;align=center;verticalAlign=middle;whiteSpace=wrap;rounded=0;fillColor=none;strokeColor=none;" parent="zFZnpQMPPgIZC6EG3GRi-201" vertex="1">
          <mxGeometry x="200" y="1040" width="60" height="30" as="geometry" />
        </mxCell>
        <mxCell id="zFZnpQMPPgIZC6EG3GRi-432" value="No" style="text;html=1;align=center;verticalAlign=middle;whiteSpace=wrap;rounded=0;fillColor=none;strokeColor=none;" parent="zFZnpQMPPgIZC6EG3GRi-201" vertex="1">
          <mxGeometry x="520.89" y="565" width="60" height="30" as="geometry" />
        </mxCell>
        <mxCell id="zFZnpQMPPgIZC6EG3GRi-433" value="No" style="text;html=1;align=center;verticalAlign=middle;whiteSpace=wrap;rounded=0;fillColor=none;strokeColor=none;" parent="zFZnpQMPPgIZC6EG3GRi-201" vertex="1">
          <mxGeometry x="520.89" y="417" width="60" height="30" as="geometry" />
        </mxCell>
        <mxCell id="zFZnpQMPPgIZC6EG3GRi-281" style="edgeStyle=orthogonalEdgeStyle;rounded=0;orthogonalLoop=1;jettySize=auto;html=1;exitX=0.5;exitY=1;exitDx=0;exitDy=0;entryX=0.75;entryY=0;entryDx=0;entryDy=0;" parent="1" source="zFZnpQMPPgIZC6EG3GRi-273" target="zFZnpQMPPgIZC6EG3GRi-154" edge="1">
          <mxGeometry relative="1" as="geometry">
            <Array as="points">
              <mxPoint x="-65" y="2380" />
              <mxPoint x="-440" y="2380" />
              <mxPoint x="-440" y="870" />
              <mxPoint x="-707" y="870" />
            </Array>
          </mxGeometry>
        </mxCell>
        <mxCell id="zFZnpQMPPgIZC6EG3GRi-283" value="Easy Save Application Modify Job menu" style="swimlane;whiteSpace=wrap;fillColor=#e1d5e7;strokeColor=#9673a6;swimlaneLine=1;container=0;" parent="1" vertex="1">
          <mxGeometry x="-1460" y="2210" width="980" height="1260" as="geometry">
            <mxRectangle x="200" y="-610" width="80" height="30" as="alternateBounds" />
          </mxGeometry>
        </mxCell>
        <mxCell id="zFZnpQMPPgIZC6EG3GRi-284" style="edgeStyle=orthogonalEdgeStyle;rounded=0;orthogonalLoop=1;jettySize=auto;html=1;exitX=0.5;exitY=1;exitDx=0;exitDy=0;entryX=0.5;entryY=0;entryDx=0;entryDy=0;" parent="zFZnpQMPPgIZC6EG3GRi-283" source="zFZnpQMPPgIZC6EG3GRi-285" target="zFZnpQMPPgIZC6EG3GRi-307" edge="1">
          <mxGeometry relative="1" as="geometry" />
        </mxCell>
        <mxCell id="zFZnpQMPPgIZC6EG3GRi-285" value="Show Modify Job Menu" style="fillColor=#e1d5e7;strokeColor=#9673a6;" parent="zFZnpQMPPgIZC6EG3GRi-283" vertex="1">
          <mxGeometry x="40" y="90" width="171.78" height="60" as="geometry" />
        </mxCell>
        <mxCell id="zFZnpQMPPgIZC6EG3GRi-286" style="edgeStyle=orthogonalEdgeStyle;rounded=0;orthogonalLoop=1;jettySize=auto;html=1;exitX=0.5;exitY=1;exitDx=0;exitDy=0;fillColor=#ffe6cc;strokeColor=#000000;" parent="zFZnpQMPPgIZC6EG3GRi-283" source="zFZnpQMPPgIZC6EG3GRi-288" target="zFZnpQMPPgIZC6EG3GRi-292" edge="1">
          <mxGeometry relative="1" as="geometry" />
        </mxCell>
        <mxCell id="zFZnpQMPPgIZC6EG3GRi-287" style="edgeStyle=orthogonalEdgeStyle;rounded=0;orthogonalLoop=1;jettySize=auto;html=1;exitX=1;exitY=0.5;exitDx=0;exitDy=0;entryX=0;entryY=0.5;entryDx=0;entryDy=0;" parent="zFZnpQMPPgIZC6EG3GRi-283" source="zFZnpQMPPgIZC6EG3GRi-288" target="zFZnpQMPPgIZC6EG3GRi-327" edge="1">
          <mxGeometry relative="1" as="geometry" />
        </mxCell>
        <mxCell id="zFZnpQMPPgIZC6EG3GRi-288" value="Choice == &#xa;Enter Name" style="rhombus;fillColor=#e1d5e7;strokeColor=#9673a6;" parent="zFZnpQMPPgIZC6EG3GRi-283" vertex="1">
          <mxGeometry x="50.8900000000001" y="310" width="150" height="88" as="geometry" />
        </mxCell>
        <mxCell id="zFZnpQMPPgIZC6EG3GRi-289" value="No" style="text;html=1;align=center;verticalAlign=middle;whiteSpace=wrap;rounded=0;fillColor=none;strokeColor=none;" parent="zFZnpQMPPgIZC6EG3GRi-283" vertex="1">
          <mxGeometry x="50.8900000000001" y="398" width="60" height="30" as="geometry" />
        </mxCell>
        <mxCell id="zFZnpQMPPgIZC6EG3GRi-290" style="edgeStyle=orthogonalEdgeStyle;rounded=0;orthogonalLoop=1;jettySize=auto;html=1;exitX=0.5;exitY=1;exitDx=0;exitDy=0;entryX=0.5;entryY=0;entryDx=0;entryDy=0;fillColor=#ffe6cc;strokeColor=#000000;" parent="zFZnpQMPPgIZC6EG3GRi-283" source="zFZnpQMPPgIZC6EG3GRi-292" target="zFZnpQMPPgIZC6EG3GRi-296" edge="1">
          <mxGeometry relative="1" as="geometry" />
        </mxCell>
        <mxCell id="zFZnpQMPPgIZC6EG3GRi-291" style="edgeStyle=orthogonalEdgeStyle;rounded=0;orthogonalLoop=1;jettySize=auto;html=1;exitX=1;exitY=0.5;exitDx=0;exitDy=0;entryX=0;entryY=0.5;entryDx=0;entryDy=0;" parent="zFZnpQMPPgIZC6EG3GRi-283" source="zFZnpQMPPgIZC6EG3GRi-292" target="zFZnpQMPPgIZC6EG3GRi-311" edge="1">
          <mxGeometry relative="1" as="geometry" />
        </mxCell>
        <mxCell id="zFZnpQMPPgIZC6EG3GRi-292" value="Choice == Set &#xa; Target directory  " style="rhombus;fillColor=#e1d5e7;strokeColor=#9673a6;" parent="zFZnpQMPPgIZC6EG3GRi-283" vertex="1">
          <mxGeometry x="50.8900000000001" y="447" width="150" height="88" as="geometry" />
        </mxCell>
        <mxCell id="zFZnpQMPPgIZC6EG3GRi-293" value="No" style="text;html=1;align=center;verticalAlign=middle;whiteSpace=wrap;rounded=0;fillColor=none;strokeColor=none;" parent="zFZnpQMPPgIZC6EG3GRi-283" vertex="1">
          <mxGeometry x="50.8900000000001" y="535" width="60" height="30" as="geometry" />
        </mxCell>
        <mxCell id="zFZnpQMPPgIZC6EG3GRi-294" style="edgeStyle=orthogonalEdgeStyle;rounded=0;orthogonalLoop=1;jettySize=auto;html=1;exitX=0.5;exitY=1;exitDx=0;exitDy=0;fillColor=#ffe6cc;strokeColor=#000000;" parent="zFZnpQMPPgIZC6EG3GRi-283" source="zFZnpQMPPgIZC6EG3GRi-296" target="zFZnpQMPPgIZC6EG3GRi-299" edge="1">
          <mxGeometry relative="1" as="geometry" />
        </mxCell>
        <mxCell id="zFZnpQMPPgIZC6EG3GRi-295" style="edgeStyle=orthogonalEdgeStyle;rounded=0;orthogonalLoop=1;jettySize=auto;html=1;exitX=1;exitY=0.5;exitDx=0;exitDy=0;entryX=0;entryY=0.5;entryDx=0;entryDy=0;" parent="zFZnpQMPPgIZC6EG3GRi-283" source="zFZnpQMPPgIZC6EG3GRi-296" target="zFZnpQMPPgIZC6EG3GRi-319" edge="1">
          <mxGeometry relative="1" as="geometry" />
        </mxCell>
        <mxCell id="zFZnpQMPPgIZC6EG3GRi-296" value="Choice == Set &#xa; Source directory" style="rhombus;fillColor=#e1d5e7;strokeColor=#9673a6;" parent="zFZnpQMPPgIZC6EG3GRi-283" vertex="1">
          <mxGeometry x="50.889999999999986" y="586" width="150" height="88" as="geometry" />
        </mxCell>
        <mxCell id="zFZnpQMPPgIZC6EG3GRi-297" value="No" style="text;html=1;align=center;verticalAlign=middle;whiteSpace=wrap;rounded=0;fillColor=none;strokeColor=none;" parent="zFZnpQMPPgIZC6EG3GRi-283" vertex="1">
          <mxGeometry x="50.889999999999986" y="674" width="60" height="30" as="geometry" />
        </mxCell>
        <mxCell id="zFZnpQMPPgIZC6EG3GRi-298" style="edgeStyle=orthogonalEdgeStyle;rounded=0;orthogonalLoop=1;jettySize=auto;html=1;exitX=0.5;exitY=1;exitDx=0;exitDy=0;entryX=0.5;entryY=0;entryDx=0;entryDy=0;fillColor=#ffe6cc;strokeColor=#000000;" parent="zFZnpQMPPgIZC6EG3GRi-283" source="zFZnpQMPPgIZC6EG3GRi-299" target="zFZnpQMPPgIZC6EG3GRi-302" edge="1">
          <mxGeometry relative="1" as="geometry" />
        </mxCell>
        <mxCell id="zFZnpQMPPgIZC6EG3GRi-299" value="Choice == Set &#xa;Execution Strategy " style="rhombus;fillColor=#e1d5e7;strokeColor=#9673a6;" parent="zFZnpQMPPgIZC6EG3GRi-283" vertex="1">
          <mxGeometry x="50.889999999999986" y="723" width="150" height="88" as="geometry" />
        </mxCell>
        <mxCell id="zFZnpQMPPgIZC6EG3GRi-300" value="No" style="text;html=1;align=center;verticalAlign=middle;whiteSpace=wrap;rounded=0;fillColor=none;strokeColor=none;" parent="zFZnpQMPPgIZC6EG3GRi-283" vertex="1">
          <mxGeometry x="50.889999999999986" y="811" width="60" height="30" as="geometry" />
        </mxCell>
        <mxCell id="zFZnpQMPPgIZC6EG3GRi-301" style="edgeStyle=orthogonalEdgeStyle;rounded=0;orthogonalLoop=1;jettySize=auto;html=1;exitX=0.5;exitY=1;exitDx=0;exitDy=0;fillColor=#ffe6cc;strokeColor=#000000;" parent="zFZnpQMPPgIZC6EG3GRi-283" source="zFZnpQMPPgIZC6EG3GRi-302" target="zFZnpQMPPgIZC6EG3GRi-304" edge="1">
          <mxGeometry relative="1" as="geometry" />
        </mxCell>
        <mxCell id="zFZnpQMPPgIZC6EG3GRi-302" value="Choice == &#xa;Toggle Encryption" style="rhombus;fillColor=#e1d5e7;strokeColor=#9673a6;" parent="zFZnpQMPPgIZC6EG3GRi-283" vertex="1">
          <mxGeometry x="50.889999999999986" y="856" width="150" height="88" as="geometry" />
        </mxCell>
        <mxCell id="zFZnpQMPPgIZC6EG3GRi-303" value="No" style="text;html=1;align=center;verticalAlign=middle;whiteSpace=wrap;rounded=0;fillColor=none;strokeColor=none;" parent="zFZnpQMPPgIZC6EG3GRi-283" vertex="1">
          <mxGeometry x="50.889999999999986" y="944" width="60" height="30" as="geometry" />
        </mxCell>
        <mxCell id="zFZnpQMPPgIZC6EG3GRi-304" value="Choice == Modify Job" style="rhombus;fillColor=#e1d5e7;strokeColor=#9673a6;" parent="zFZnpQMPPgIZC6EG3GRi-283" vertex="1">
          <mxGeometry x="51.889999999999986" y="993" width="150" height="88" as="geometry" />
        </mxCell>
        <mxCell id="zFZnpQMPPgIZC6EG3GRi-305" style="edgeStyle=orthogonalEdgeStyle;rounded=0;orthogonalLoop=1;jettySize=auto;html=1;exitX=1;exitY=0.5;exitDx=0;exitDy=0;entryX=1;entryY=0.5;entryDx=0;entryDy=0;" parent="zFZnpQMPPgIZC6EG3GRi-283" source="zFZnpQMPPgIZC6EG3GRi-307" target="zFZnpQMPPgIZC6EG3GRi-285" edge="1">
          <mxGeometry relative="1" as="geometry">
            <Array as="points">
              <mxPoint x="260" y="234" />
              <mxPoint x="260" y="120" />
            </Array>
          </mxGeometry>
        </mxCell>
        <mxCell id="zFZnpQMPPgIZC6EG3GRi-306" style="edgeStyle=orthogonalEdgeStyle;rounded=0;orthogonalLoop=1;jettySize=auto;html=1;exitX=0.5;exitY=1;exitDx=0;exitDy=0;entryX=0.5;entryY=0;entryDx=0;entryDy=0;fillColor=#ffe6cc;strokeColor=#000000;" parent="zFZnpQMPPgIZC6EG3GRi-283" source="zFZnpQMPPgIZC6EG3GRi-307" target="zFZnpQMPPgIZC6EG3GRi-288" edge="1">
          <mxGeometry relative="1" as="geometry" />
        </mxCell>
        <mxCell id="zFZnpQMPPgIZC6EG3GRi-307" value="User selected a choice ?" style="rhombus;fillColor=#e1d5e7;strokeColor=#9673a6;" parent="zFZnpQMPPgIZC6EG3GRi-283" vertex="1">
          <mxGeometry x="50.889999999999986" y="190" width="150" height="88" as="geometry" />
        </mxCell>
        <mxCell id="zFZnpQMPPgIZC6EG3GRi-308" value="No" style="text;html=1;align=center;verticalAlign=middle;whiteSpace=wrap;rounded=0;fillColor=none;strokeColor=none;" parent="zFZnpQMPPgIZC6EG3GRi-283" vertex="1">
          <mxGeometry x="200.89" y="240" width="60" height="30" as="geometry" />
        </mxCell>
        <mxCell id="zFZnpQMPPgIZC6EG3GRi-309" value="Yes" style="text;html=1;align=center;verticalAlign=middle;whiteSpace=wrap;rounded=0;fillColor=none;strokeColor=none;" parent="zFZnpQMPPgIZC6EG3GRi-283" vertex="1">
          <mxGeometry x="50.889999999999986" y="270" width="60" height="30" as="geometry" />
        </mxCell>
        <mxCell id="zFZnpQMPPgIZC6EG3GRi-310" style="edgeStyle=orthogonalEdgeStyle;rounded=0;orthogonalLoop=1;jettySize=auto;html=1;exitX=1;exitY=0.5;exitDx=0;exitDy=0;entryX=0;entryY=0.5;entryDx=0;entryDy=0;" parent="zFZnpQMPPgIZC6EG3GRi-283" source="zFZnpQMPPgIZC6EG3GRi-311" target="zFZnpQMPPgIZC6EG3GRi-314" edge="1">
          <mxGeometry relative="1" as="geometry" />
        </mxCell>
        <mxCell id="zFZnpQMPPgIZC6EG3GRi-311" value="Browse User&#39;s Drive" style="fillColor=#e1d5e7;strokeColor=#9673a6;" parent="zFZnpQMPPgIZC6EG3GRi-283" vertex="1">
          <mxGeometry x="260" y="461" width="171.78" height="60" as="geometry" />
        </mxCell>
        <mxCell id="zFZnpQMPPgIZC6EG3GRi-312" style="edgeStyle=orthogonalEdgeStyle;rounded=0;orthogonalLoop=1;jettySize=auto;html=1;entryX=0;entryY=0.5;entryDx=0;entryDy=0;fillColor=#e6d0de;gradientColor=#d5739d;strokeColor=#000000;" parent="zFZnpQMPPgIZC6EG3GRi-283" source="zFZnpQMPPgIZC6EG3GRi-314" target="zFZnpQMPPgIZC6EG3GRi-316" edge="1">
          <mxGeometry relative="1" as="geometry">
            <mxPoint x="585" y="637" as="targetPoint" />
          </mxGeometry>
        </mxCell>
        <mxCell id="zFZnpQMPPgIZC6EG3GRi-313" style="edgeStyle=orthogonalEdgeStyle;rounded=0;orthogonalLoop=1;jettySize=auto;html=1;exitX=0.5;exitY=0;exitDx=0;exitDy=0;endArrow=none;startFill=0;" parent="zFZnpQMPPgIZC6EG3GRi-283" source="zFZnpQMPPgIZC6EG3GRi-314" edge="1">
          <mxGeometry relative="1" as="geometry">
            <mxPoint x="950" y="430" as="targetPoint" />
            <Array as="points">
              <mxPoint x="595" y="427" />
              <mxPoint x="950" y="427" />
            </Array>
          </mxGeometry>
        </mxCell>
        <mxCell id="zFZnpQMPPgIZC6EG3GRi-314" value="User selected &#xa;a path ?" style="rhombus;fillColor=#e1d5e7;strokeColor=#9673a6;" parent="zFZnpQMPPgIZC6EG3GRi-283" vertex="1">
          <mxGeometry x="520" y="447" width="150" height="88" as="geometry" />
        </mxCell>
        <mxCell id="zFZnpQMPPgIZC6EG3GRi-315" style="edgeStyle=orthogonalEdgeStyle;rounded=0;orthogonalLoop=1;jettySize=auto;html=1;exitX=1;exitY=0.5;exitDx=0;exitDy=0;endArrow=none;startFill=0;" parent="zFZnpQMPPgIZC6EG3GRi-283" source="zFZnpQMPPgIZC6EG3GRi-316" edge="1">
          <mxGeometry relative="1" as="geometry">
            <mxPoint x="950" y="491.3684210526317" as="targetPoint" />
          </mxGeometry>
        </mxCell>
        <mxCell id="zFZnpQMPPgIZC6EG3GRi-316" value="Update current job parameters" style="fillColor=#e1d5e7;strokeColor=#9673a6;" parent="zFZnpQMPPgIZC6EG3GRi-283" vertex="1">
          <mxGeometry x="738" y="461" width="171.78" height="60" as="geometry" />
        </mxCell>
        <mxCell id="zFZnpQMPPgIZC6EG3GRi-317" value="Yes" style="text;html=1;align=center;verticalAlign=middle;whiteSpace=wrap;rounded=0;" parent="zFZnpQMPPgIZC6EG3GRi-283" vertex="1">
          <mxGeometry x="650" y="493.01" width="60" height="30" as="geometry" />
        </mxCell>
        <mxCell id="zFZnpQMPPgIZC6EG3GRi-318" style="edgeStyle=orthogonalEdgeStyle;rounded=0;orthogonalLoop=1;jettySize=auto;html=1;exitX=1;exitY=0.5;exitDx=0;exitDy=0;entryX=0;entryY=0.5;entryDx=0;entryDy=0;" parent="zFZnpQMPPgIZC6EG3GRi-283" source="zFZnpQMPPgIZC6EG3GRi-319" target="zFZnpQMPPgIZC6EG3GRi-322" edge="1">
          <mxGeometry relative="1" as="geometry" />
        </mxCell>
        <mxCell id="zFZnpQMPPgIZC6EG3GRi-319" value="Browse User&#39;s Drive" style="fillColor=#e1d5e7;strokeColor=#9673a6;" parent="zFZnpQMPPgIZC6EG3GRi-283" vertex="1">
          <mxGeometry x="260.89" y="600" width="171.78" height="60" as="geometry" />
        </mxCell>
        <mxCell id="zFZnpQMPPgIZC6EG3GRi-320" style="edgeStyle=orthogonalEdgeStyle;rounded=0;orthogonalLoop=1;jettySize=auto;html=1;entryX=0;entryY=0.5;entryDx=0;entryDy=0;fillColor=#e6d0de;gradientColor=#d5739d;strokeColor=#000000;" parent="zFZnpQMPPgIZC6EG3GRi-283" source="zFZnpQMPPgIZC6EG3GRi-322" target="zFZnpQMPPgIZC6EG3GRi-324" edge="1">
          <mxGeometry relative="1" as="geometry">
            <mxPoint x="585.89" y="776" as="targetPoint" />
          </mxGeometry>
        </mxCell>
        <mxCell id="zFZnpQMPPgIZC6EG3GRi-321" style="edgeStyle=orthogonalEdgeStyle;rounded=0;orthogonalLoop=1;jettySize=auto;html=1;exitX=0.5;exitY=0;exitDx=0;exitDy=0;entryX=1;entryY=0.5;entryDx=0;entryDy=0;" parent="zFZnpQMPPgIZC6EG3GRi-283" source="zFZnpQMPPgIZC6EG3GRi-322" target="zFZnpQMPPgIZC6EG3GRi-285" edge="1">
          <mxGeometry relative="1" as="geometry">
            <Array as="points">
              <mxPoint x="596" y="560" />
              <mxPoint x="950" y="560" />
              <mxPoint x="950" y="120" />
            </Array>
          </mxGeometry>
        </mxCell>
        <mxCell id="zFZnpQMPPgIZC6EG3GRi-322" value="User selected &#xa;a path ?" style="rhombus;fillColor=#e1d5e7;strokeColor=#9673a6;" parent="zFZnpQMPPgIZC6EG3GRi-283" vertex="1">
          <mxGeometry x="520.89" y="586" width="150" height="88" as="geometry" />
        </mxCell>
        <mxCell id="zFZnpQMPPgIZC6EG3GRi-323" style="edgeStyle=orthogonalEdgeStyle;rounded=0;orthogonalLoop=1;jettySize=auto;html=1;exitX=1;exitY=0.5;exitDx=0;exitDy=0;endArrow=none;startFill=0;" parent="zFZnpQMPPgIZC6EG3GRi-283" source="zFZnpQMPPgIZC6EG3GRi-324" edge="1">
          <mxGeometry relative="1" as="geometry">
            <mxPoint x="950" y="540" as="targetPoint" />
          </mxGeometry>
        </mxCell>
        <mxCell id="zFZnpQMPPgIZC6EG3GRi-324" value="Update current job parameters" style="fillColor=#e1d5e7;strokeColor=#9673a6;" parent="zFZnpQMPPgIZC6EG3GRi-283" vertex="1">
          <mxGeometry x="738.89" y="600" width="171.78" height="60" as="geometry" />
        </mxCell>
        <mxCell id="zFZnpQMPPgIZC6EG3GRi-325" value="Yes" style="text;html=1;align=center;verticalAlign=middle;whiteSpace=wrap;rounded=0;" parent="zFZnpQMPPgIZC6EG3GRi-283" vertex="1">
          <mxGeometry x="650.89" y="632.01" width="60" height="30" as="geometry" />
        </mxCell>
        <mxCell id="zFZnpQMPPgIZC6EG3GRi-326" style="edgeStyle=orthogonalEdgeStyle;rounded=0;orthogonalLoop=1;jettySize=auto;html=1;exitX=1;exitY=0.5;exitDx=0;exitDy=0;endArrow=none;startFill=0;" parent="zFZnpQMPPgIZC6EG3GRi-283" source="zFZnpQMPPgIZC6EG3GRi-327" edge="1">
          <mxGeometry relative="1" as="geometry">
            <mxPoint x="500" y="119.99999999999977" as="targetPoint" />
          </mxGeometry>
        </mxCell>
        <mxCell id="zFZnpQMPPgIZC6EG3GRi-327" value="Update current job parameters" style="fillColor=#e1d5e7;strokeColor=#9673a6;" parent="zFZnpQMPPgIZC6EG3GRi-283" vertex="1">
          <mxGeometry x="260" y="324" width="171.78" height="60" as="geometry" />
        </mxCell>
        <mxCell id="zFZnpQMPPgIZC6EG3GRi-328" style="edgeStyle=orthogonalEdgeStyle;rounded=0;orthogonalLoop=1;jettySize=auto;html=1;exitX=1;exitY=0.5;exitDx=0;exitDy=0;entryX=0;entryY=0.5;entryDx=0;entryDy=0;" parent="zFZnpQMPPgIZC6EG3GRi-283" target="zFZnpQMPPgIZC6EG3GRi-330" edge="1">
          <mxGeometry relative="1" as="geometry">
            <mxPoint x="200.11" y="767" as="sourcePoint" />
          </mxGeometry>
        </mxCell>
        <mxCell id="zFZnpQMPPgIZC6EG3GRi-329" style="edgeStyle=orthogonalEdgeStyle;rounded=0;orthogonalLoop=1;jettySize=auto;html=1;exitX=1;exitY=0.5;exitDx=0;exitDy=0;endArrow=none;startFill=0;" parent="zFZnpQMPPgIZC6EG3GRi-283" source="zFZnpQMPPgIZC6EG3GRi-330" edge="1">
          <mxGeometry relative="1" as="geometry">
            <mxPoint x="950" y="620" as="targetPoint" />
          </mxGeometry>
        </mxCell>
        <mxCell id="zFZnpQMPPgIZC6EG3GRi-330" value="Update current job parameters" style="fillColor=#e1d5e7;strokeColor=#9673a6;" parent="zFZnpQMPPgIZC6EG3GRi-283" vertex="1">
          <mxGeometry x="260" y="737" width="171.78" height="60" as="geometry" />
        </mxCell>
        <mxCell id="zFZnpQMPPgIZC6EG3GRi-331" style="edgeStyle=orthogonalEdgeStyle;rounded=0;orthogonalLoop=1;jettySize=auto;html=1;exitX=1;exitY=0.5;exitDx=0;exitDy=0;entryX=0;entryY=0.5;entryDx=0;entryDy=0;" parent="zFZnpQMPPgIZC6EG3GRi-283" source="zFZnpQMPPgIZC6EG3GRi-302" target="zFZnpQMPPgIZC6EG3GRi-333" edge="1">
          <mxGeometry relative="1" as="geometry">
            <mxPoint x="211.78" y="900" as="sourcePoint" />
          </mxGeometry>
        </mxCell>
        <mxCell id="zFZnpQMPPgIZC6EG3GRi-332" style="edgeStyle=orthogonalEdgeStyle;rounded=0;orthogonalLoop=1;jettySize=auto;html=1;endArrow=none;startFill=0;" parent="zFZnpQMPPgIZC6EG3GRi-283" source="zFZnpQMPPgIZC6EG3GRi-333" edge="1">
          <mxGeometry relative="1" as="geometry">
            <mxPoint x="950" y="760" as="targetPoint" />
          </mxGeometry>
        </mxCell>
        <mxCell id="zFZnpQMPPgIZC6EG3GRi-333" value="Update current job parameters" style="fillColor=#e1d5e7;strokeColor=#9673a6;" parent="zFZnpQMPPgIZC6EG3GRi-283" vertex="1">
          <mxGeometry x="259.99999999999994" y="870" width="171.78" height="60" as="geometry" />
        </mxCell>
        <mxCell id="zFZnpQMPPgIZC6EG3GRi-334" style="edgeStyle=orthogonalEdgeStyle;rounded=0;orthogonalLoop=1;jettySize=auto;html=1;exitX=0.5;exitY=1;exitDx=0;exitDy=0;fillColor=#ffe6cc;strokeColor=#000000;" parent="zFZnpQMPPgIZC6EG3GRi-283" edge="1">
          <mxGeometry relative="1" as="geometry">
            <mxPoint x="126" y="1081" as="sourcePoint" />
            <mxPoint x="125.875" y="1130.0088" as="targetPoint" />
          </mxGeometry>
        </mxCell>
        <mxCell id="zFZnpQMPPgIZC6EG3GRi-335" value="No" style="text;html=1;align=center;verticalAlign=middle;whiteSpace=wrap;rounded=0;fillColor=none;strokeColor=none;" parent="zFZnpQMPPgIZC6EG3GRi-283" vertex="1">
          <mxGeometry x="50.889999999999986" y="1081" width="60" height="30" as="geometry" />
        </mxCell>
        <mxCell id="zFZnpQMPPgIZC6EG3GRi-336" style="edgeStyle=orthogonalEdgeStyle;rounded=0;orthogonalLoop=1;jettySize=auto;html=1;exitX=1;exitY=0.5;exitDx=0;exitDy=0;entryX=0;entryY=0.5;entryDx=0;entryDy=0;" parent="zFZnpQMPPgIZC6EG3GRi-283" edge="1">
          <mxGeometry relative="1" as="geometry">
            <mxPoint x="201.89" y="1037" as="sourcePoint" />
            <mxPoint x="260.8899999999999" y="1037" as="targetPoint" />
          </mxGeometry>
        </mxCell>
        <mxCell id="zFZnpQMPPgIZC6EG3GRi-337" style="edgeStyle=orthogonalEdgeStyle;rounded=0;orthogonalLoop=1;jettySize=auto;html=1;exitX=0.5;exitY=1;exitDx=0;exitDy=0;entryX=0.5;entryY=0;entryDx=0;entryDy=0;" parent="zFZnpQMPPgIZC6EG3GRi-283" source="zFZnpQMPPgIZC6EG3GRi-339" target="zFZnpQMPPgIZC6EG3GRi-341" edge="1">
          <mxGeometry relative="1" as="geometry" />
        </mxCell>
        <mxCell id="zFZnpQMPPgIZC6EG3GRi-338" style="edgeStyle=orthogonalEdgeStyle;rounded=0;orthogonalLoop=1;jettySize=auto;html=1;entryX=0;entryY=0.5;entryDx=0;entryDy=0;" parent="zFZnpQMPPgIZC6EG3GRi-283" source="zFZnpQMPPgIZC6EG3GRi-339" target="zFZnpQMPPgIZC6EG3GRi-343" edge="1">
          <mxGeometry relative="1" as="geometry">
            <mxPoint x="549.9999999999995" y="1036.9999999999995" as="targetPoint" />
          </mxGeometry>
        </mxCell>
        <mxCell id="zFZnpQMPPgIZC6EG3GRi-339" value="Are all parameters set ?" style="rhombus;fillColor=#e1d5e7;strokeColor=#9673a6;" parent="zFZnpQMPPgIZC6EG3GRi-283" vertex="1">
          <mxGeometry x="260" y="993" width="150" height="88" as="geometry" />
        </mxCell>
        <mxCell id="zFZnpQMPPgIZC6EG3GRi-340" value="Yes" style="text;html=1;align=center;verticalAlign=middle;whiteSpace=wrap;rounded=0;" parent="zFZnpQMPPgIZC6EG3GRi-283" vertex="1">
          <mxGeometry x="260" y="1070" width="60" height="30" as="geometry" />
        </mxCell>
        <mxCell id="zFZnpQMPPgIZC6EG3GRi-341" value="Modify the Job" style="fillColor=#e1d5e7;strokeColor=#9673a6;" parent="zFZnpQMPPgIZC6EG3GRi-283" vertex="1">
          <mxGeometry x="249.11" y="1111" width="171.78" height="60" as="geometry" />
        </mxCell>
        <mxCell id="zFZnpQMPPgIZC6EG3GRi-342" style="edgeStyle=orthogonalEdgeStyle;rounded=0;orthogonalLoop=1;jettySize=auto;html=1;exitX=1;exitY=0.5;exitDx=0;exitDy=0;endArrow=none;startFill=0;" parent="zFZnpQMPPgIZC6EG3GRi-283" source="zFZnpQMPPgIZC6EG3GRi-343" edge="1">
          <mxGeometry relative="1" as="geometry">
            <mxPoint x="950.0000000000005" y="1037.25" as="targetPoint" />
          </mxGeometry>
        </mxCell>
        <mxCell id="zFZnpQMPPgIZC6EG3GRi-343" value="Error : Not all parameters set" style="fillColor=#e1d5e7;strokeColor=#9673a6;" parent="zFZnpQMPPgIZC6EG3GRi-283" vertex="1">
          <mxGeometry x="509.11" y="1007" width="171.78" height="60" as="geometry" />
        </mxCell>
        <mxCell id="zFZnpQMPPgIZC6EG3GRi-344" value="No" style="text;html=1;align=center;verticalAlign=middle;whiteSpace=wrap;rounded=0;" parent="zFZnpQMPPgIZC6EG3GRi-283" vertex="1">
          <mxGeometry x="410" y="1000" width="60" height="30" as="geometry" />
        </mxCell>
        <mxCell id="zFZnpQMPPgIZC6EG3GRi-345" style="edgeStyle=orthogonalEdgeStyle;rounded=0;orthogonalLoop=1;jettySize=auto;html=1;exitX=0.5;exitY=1;exitDx=0;exitDy=0;endArrow=none;startFill=0;" parent="zFZnpQMPPgIZC6EG3GRi-283" source="zFZnpQMPPgIZC6EG3GRi-346" edge="1">
          <mxGeometry relative="1" as="geometry">
            <mxPoint x="950.0000000000005" y="900" as="targetPoint" />
          </mxGeometry>
        </mxCell>
        <mxCell id="zFZnpQMPPgIZC6EG3GRi-346" value="Error : Wrong Input" style="fillColor=#e1d5e7;strokeColor=#9673a6;" parent="zFZnpQMPPgIZC6EG3GRi-283" vertex="1">
          <mxGeometry x="40" y="1130" width="171.78" height="60" as="geometry" />
        </mxCell>
        <mxCell id="zFZnpQMPPgIZC6EG3GRi-353" value="Yes" style="text;html=1;align=center;verticalAlign=middle;whiteSpace=wrap;rounded=0;fillColor=none;strokeColor=none;" parent="zFZnpQMPPgIZC6EG3GRi-283" vertex="1">
          <mxGeometry x="200.8900000000001" y="360" width="60" height="30" as="geometry" />
        </mxCell>
        <mxCell id="zFZnpQMPPgIZC6EG3GRi-354" value="Yes" style="text;html=1;align=center;verticalAlign=middle;whiteSpace=wrap;rounded=0;fillColor=none;strokeColor=none;" parent="zFZnpQMPPgIZC6EG3GRi-283" vertex="1">
          <mxGeometry x="200" y="493.0100000000002" width="60" height="30" as="geometry" />
        </mxCell>
        <mxCell id="zFZnpQMPPgIZC6EG3GRi-355" value="Yes" style="text;html=1;align=center;verticalAlign=middle;whiteSpace=wrap;rounded=0;fillColor=none;strokeColor=none;" parent="zFZnpQMPPgIZC6EG3GRi-283" vertex="1">
          <mxGeometry x="200.8900000000001" y="630" width="60" height="30" as="geometry" />
        </mxCell>
        <mxCell id="zFZnpQMPPgIZC6EG3GRi-356" value="Yes" style="text;html=1;align=center;verticalAlign=middle;whiteSpace=wrap;rounded=0;fillColor=none;strokeColor=none;" parent="zFZnpQMPPgIZC6EG3GRi-283" vertex="1">
          <mxGeometry x="200" y="767" width="60" height="30" as="geometry" />
        </mxCell>
        <mxCell id="zFZnpQMPPgIZC6EG3GRi-357" value="Yes" style="text;html=1;align=center;verticalAlign=middle;whiteSpace=wrap;rounded=0;fillColor=none;strokeColor=none;" parent="zFZnpQMPPgIZC6EG3GRi-283" vertex="1">
          <mxGeometry x="199.99999999999997" y="900" width="60" height="30" as="geometry" />
        </mxCell>
        <mxCell id="zFZnpQMPPgIZC6EG3GRi-358" value="Yes" style="text;html=1;align=center;verticalAlign=middle;whiteSpace=wrap;rounded=0;fillColor=none;strokeColor=none;" parent="zFZnpQMPPgIZC6EG3GRi-283" vertex="1">
          <mxGeometry x="201.89" y="1040" width="60" height="30" as="geometry" />
        </mxCell>
        <mxCell id="zFZnpQMPPgIZC6EG3GRi-434" value="No" style="text;html=1;align=center;verticalAlign=middle;whiteSpace=wrap;rounded=0;fillColor=none;strokeColor=none;" parent="zFZnpQMPPgIZC6EG3GRi-283" vertex="1">
          <mxGeometry x="530" y="556" width="60" height="30" as="geometry" />
        </mxCell>
        <mxCell id="zFZnpQMPPgIZC6EG3GRi-435" value="No" style="text;html=1;align=center;verticalAlign=middle;whiteSpace=wrap;rounded=0;fillColor=none;strokeColor=none;" parent="zFZnpQMPPgIZC6EG3GRi-283" vertex="1">
          <mxGeometry x="530" y="408" width="60" height="30" as="geometry" />
        </mxCell>
        <mxCell id="zFZnpQMPPgIZC6EG3GRi-361" style="edgeStyle=orthogonalEdgeStyle;rounded=0;orthogonalLoop=1;jettySize=auto;html=1;entryX=0;entryY=0.5;entryDx=0;entryDy=0;exitX=0.5;exitY=1;exitDx=0;exitDy=0;" parent="1" source="zFZnpQMPPgIZC6EG3GRi-341" target="zFZnpQMPPgIZC6EG3GRi-154" edge="1">
          <mxGeometry relative="1" as="geometry">
            <Array as="points">
              <mxPoint x="-1125" y="3420" />
              <mxPoint x="-1570" y="3420" />
              <mxPoint x="-1570" y="910" />
            </Array>
          </mxGeometry>
        </mxCell>
        <mxCell id="zFZnpQMPPgIZC6EG3GRi-179" value="Easy Save Application Main menu" style="swimlane;whiteSpace=wrap;fillColor=#b0e3e6;strokeColor=#0e8088;swimlaneLine=1;container=0;" parent="1" vertex="1">
          <mxGeometry x="-1170" y="834" width="630" height="1140" as="geometry">
            <mxRectangle x="200" y="-610" width="80" height="30" as="alternateBounds" />
          </mxGeometry>
        </mxCell>
        <mxCell id="zFZnpQMPPgIZC6EG3GRi-183" value="Yes" style="text;html=1;align=center;verticalAlign=middle;whiteSpace=wrap;rounded=0;" parent="zFZnpQMPPgIZC6EG3GRi-179" vertex="1">
          <mxGeometry x="360" y="270" width="60" height="30" as="geometry" />
        </mxCell>
        <mxCell id="zFZnpQMPPgIZC6EG3GRi-184" value="No" style="text;html=1;align=center;verticalAlign=middle;whiteSpace=wrap;rounded=0;" parent="zFZnpQMPPgIZC6EG3GRi-179" vertex="1">
          <mxGeometry x="490" y="146" width="60" height="30" as="geometry" />
        </mxCell>
        <mxCell id="zFZnpQMPPgIZC6EG3GRi-185" value="Yes" style="text;html=1;align=center;verticalAlign=middle;whiteSpace=wrap;rounded=0;" parent="zFZnpQMPPgIZC6EG3GRi-179" vertex="1">
          <mxGeometry x="440" y="217" width="60" height="30" as="geometry" />
        </mxCell>
        <mxCell id="zFZnpQMPPgIZC6EG3GRi-190" value="Yes" style="text;html=1;align=center;verticalAlign=middle;whiteSpace=wrap;rounded=0;" parent="zFZnpQMPPgIZC6EG3GRi-179" vertex="1">
          <mxGeometry x="490" y="570" width="60" height="30" as="geometry" />
        </mxCell>
        <mxCell id="zFZnpQMPPgIZC6EG3GRi-192" value="No" style="text;html=1;align=center;verticalAlign=middle;whiteSpace=wrap;rounded=0;" parent="zFZnpQMPPgIZC6EG3GRi-179" vertex="1">
          <mxGeometry x="360" y="600" width="60" height="30" as="geometry" />
        </mxCell>
        <mxCell id="zFZnpQMPPgIZC6EG3GRi-437" value="Yes" style="text;html=1;align=center;verticalAlign=middle;whiteSpace=wrap;rounded=0;" parent="zFZnpQMPPgIZC6EG3GRi-179" vertex="1">
          <mxGeometry x="490" y="726" width="60" height="30" as="geometry" />
        </mxCell>
        <mxCell id="zFZnpQMPPgIZC6EG3GRi-438" value="No" style="text;html=1;align=center;verticalAlign=middle;whiteSpace=wrap;rounded=0;" parent="zFZnpQMPPgIZC6EG3GRi-179" vertex="1">
          <mxGeometry x="360" y="756" width="60" height="30" as="geometry" />
        </mxCell>
        <mxCell id="zFZnpQMPPgIZC6EG3GRi-439" value="Yes" style="text;html=1;align=center;verticalAlign=middle;whiteSpace=wrap;rounded=0;" parent="zFZnpQMPPgIZC6EG3GRi-179" vertex="1">
          <mxGeometry x="480" y="896" width="60" height="30" as="geometry" />
        </mxCell>
        <mxCell id="zFZnpQMPPgIZC6EG3GRi-575" style="edgeStyle=orthogonalEdgeStyle;rounded=0;orthogonalLoop=1;jettySize=auto;html=1;entryX=0.5;entryY=1;entryDx=0;entryDy=0;" parent="zFZnpQMPPgIZC6EG3GRi-179" source="zFZnpQMPPgIZC6EG3GRi-525" target="zFZnpQMPPgIZC6EG3GRi-572" edge="1">
          <mxGeometry relative="1" as="geometry" />
        </mxCell>
        <mxCell id="zFZnpQMPPgIZC6EG3GRi-525" value="Choice == Run Job(s)" style="rhombus;fillColor=#b0e3e6;strokeColor=#0e8088;" parent="zFZnpQMPPgIZC6EG3GRi-179" vertex="1">
          <mxGeometry x="100" y="786" width="150" height="88" as="geometry" />
        </mxCell>
        <mxCell id="zFZnpQMPPgIZC6EG3GRi-526" value="No" style="text;html=1;align=center;verticalAlign=middle;whiteSpace=wrap;rounded=0;" parent="zFZnpQMPPgIZC6EG3GRi-179" vertex="1">
          <mxGeometry x="190" y="890" width="60" height="30" as="geometry" />
        </mxCell>
        <mxCell id="zFZnpQMPPgIZC6EG3GRi-158" value="User selected a choice ?" style="rhombus;fillColor=#b0e3e6;strokeColor=#0e8088;" parent="zFZnpQMPPgIZC6EG3GRi-179" vertex="1">
          <mxGeometry x="345.47" y="136" width="150" height="88" as="geometry" />
        </mxCell>
        <mxCell id="zFZnpQMPPgIZC6EG3GRi-565" style="edgeStyle=orthogonalEdgeStyle;rounded=0;orthogonalLoop=1;jettySize=auto;html=1;" parent="zFZnpQMPPgIZC6EG3GRi-179" source="zFZnpQMPPgIZC6EG3GRi-163" target="zFZnpQMPPgIZC6EG3GRi-561" edge="1">
          <mxGeometry relative="1" as="geometry" />
        </mxCell>
        <mxCell id="zFZnpQMPPgIZC6EG3GRi-163" value="Choice ==  Exit App" style="rhombus;fillColor=#b0e3e6;strokeColor=#0e8088;" parent="zFZnpQMPPgIZC6EG3GRi-179" vertex="1">
          <mxGeometry x="345.47" y="247" width="150" height="88" as="geometry" />
        </mxCell>
        <mxCell id="zFZnpQMPPgIZC6EG3GRi-157" style="edgeStyle=orthogonalEdgeStyle;rounded=0;orthogonalLoop=1;jettySize=auto;html=1;entryX=0.5;entryY=0;entryDx=0;entryDy=0;" parent="zFZnpQMPPgIZC6EG3GRi-179" source="zFZnpQMPPgIZC6EG3GRi-158" target="zFZnpQMPPgIZC6EG3GRi-163" edge="1">
          <mxGeometry relative="1" as="geometry">
            <mxPoint x="380" y="356" as="targetPoint" />
          </mxGeometry>
        </mxCell>
        <mxCell id="zFZnpQMPPgIZC6EG3GRi-560" value="Yes" style="text;html=1;align=center;verticalAlign=middle;whiteSpace=wrap;rounded=0;" parent="zFZnpQMPPgIZC6EG3GRi-179" vertex="1">
          <mxGeometry x="490" y="300" width="60" height="30" as="geometry" />
        </mxCell>
        <mxCell id="zFZnpQMPPgIZC6EG3GRi-561" value="Choice == Select All" style="rhombus;fillColor=#b0e3e6;strokeColor=#0e8088;" parent="zFZnpQMPPgIZC6EG3GRi-179" vertex="1">
          <mxGeometry x="345.47" y="386" width="150" height="88" as="geometry" />
        </mxCell>
        <mxCell id="zFZnpQMPPgIZC6EG3GRi-566" value="No" style="text;html=1;align=center;verticalAlign=middle;whiteSpace=wrap;rounded=0;" parent="zFZnpQMPPgIZC6EG3GRi-179" vertex="1">
          <mxGeometry x="430" y="474" width="60" height="30" as="geometry" />
        </mxCell>
        <mxCell id="zFZnpQMPPgIZC6EG3GRi-567" value="No" style="text;html=1;align=center;verticalAlign=middle;whiteSpace=wrap;rounded=0;" parent="zFZnpQMPPgIZC6EG3GRi-179" vertex="1">
          <mxGeometry x="343" y="326" width="60" height="30" as="geometry" />
        </mxCell>
        <mxCell id="zFZnpQMPPgIZC6EG3GRi-570" style="edgeStyle=orthogonalEdgeStyle;rounded=0;orthogonalLoop=1;jettySize=auto;html=1;exitX=0.5;exitY=0;exitDx=0;exitDy=0;endArrow=none;startFill=0;" parent="zFZnpQMPPgIZC6EG3GRi-179" source="zFZnpQMPPgIZC6EG3GRi-568" edge="1">
          <mxGeometry relative="1" as="geometry">
            <mxPoint x="330" y="76" as="targetPoint" />
            <Array as="points">
              <mxPoint x="255" y="76" />
            </Array>
          </mxGeometry>
        </mxCell>
        <mxCell id="zFZnpQMPPgIZC6EG3GRi-568" value="Toggle Selection &#xa;of all jobs" style="fillColor=#b0e3e6;strokeColor=#0e8088;" parent="zFZnpQMPPgIZC6EG3GRi-179" vertex="1">
          <mxGeometry x="200" y="400" width="110" height="60" as="geometry" />
        </mxCell>
        <mxCell id="zFZnpQMPPgIZC6EG3GRi-569" value="" style="endArrow=classic;html=1;rounded=0;exitX=0;exitY=0.5;exitDx=0;exitDy=0;entryX=1;entryY=0.5;entryDx=0;entryDy=0;" parent="zFZnpQMPPgIZC6EG3GRi-179" source="zFZnpQMPPgIZC6EG3GRi-561" target="zFZnpQMPPgIZC6EG3GRi-568" edge="1">
          <mxGeometry width="50" height="50" relative="1" as="geometry">
            <mxPoint x="260" y="586" as="sourcePoint" />
            <mxPoint x="310" y="536" as="targetPoint" />
          </mxGeometry>
        </mxCell>
        <mxCell id="zFZnpQMPPgIZC6EG3GRi-571" value="Yes" style="text;html=1;align=center;verticalAlign=middle;whiteSpace=wrap;rounded=0;" parent="zFZnpQMPPgIZC6EG3GRi-179" vertex="1">
          <mxGeometry x="310" y="444" width="60" height="30" as="geometry" />
        </mxCell>
        <mxCell id="zFZnpQMPPgIZC6EG3GRi-576" style="edgeStyle=orthogonalEdgeStyle;rounded=0;orthogonalLoop=1;jettySize=auto;html=1;entryX=0.5;entryY=1;entryDx=0;entryDy=0;" parent="zFZnpQMPPgIZC6EG3GRi-179" source="zFZnpQMPPgIZC6EG3GRi-572" target="zFZnpQMPPgIZC6EG3GRi-573" edge="1">
          <mxGeometry relative="1" as="geometry" />
        </mxCell>
        <mxCell id="zFZnpQMPPgIZC6EG3GRi-572" value="Choice == Open &#xa;Status Log" style="rhombus;fillColor=#b0e3e6;strokeColor=#0e8088;" parent="zFZnpQMPPgIZC6EG3GRi-179" vertex="1">
          <mxGeometry x="100" y="656" width="150" height="88" as="geometry" />
        </mxCell>
        <mxCell id="zFZnpQMPPgIZC6EG3GRi-633" style="edgeStyle=orthogonalEdgeStyle;rounded=0;orthogonalLoop=1;jettySize=auto;html=1;entryX=0.5;entryY=1;entryDx=0;entryDy=0;" parent="zFZnpQMPPgIZC6EG3GRi-179" source="zFZnpQMPPgIZC6EG3GRi-573" target="zFZnpQMPPgIZC6EG3GRi-632" edge="1">
          <mxGeometry relative="1" as="geometry" />
        </mxCell>
        <mxCell id="zFZnpQMPPgIZC6EG3GRi-573" value="Choice == Open &#xa;Daily Log" style="rhombus;fillColor=#b0e3e6;strokeColor=#0e8088;" parent="zFZnpQMPPgIZC6EG3GRi-179" vertex="1">
          <mxGeometry x="100" y="526" width="150" height="88" as="geometry" />
        </mxCell>
        <mxCell id="zFZnpQMPPgIZC6EG3GRi-605" value="No" style="text;html=1;align=center;verticalAlign=middle;whiteSpace=wrap;rounded=0;" parent="zFZnpQMPPgIZC6EG3GRi-179" vertex="1">
          <mxGeometry x="210" y="646" width="60" height="30" as="geometry" />
        </mxCell>
        <mxCell id="zFZnpQMPPgIZC6EG3GRi-606" value="No" style="text;html=1;align=center;verticalAlign=middle;whiteSpace=wrap;rounded=0;" parent="zFZnpQMPPgIZC6EG3GRi-179" vertex="1">
          <mxGeometry x="210" y="516" width="60" height="30" as="geometry" />
        </mxCell>
        <mxCell id="zFZnpQMPPgIZC6EG3GRi-607" value="Yes" style="text;html=1;align=center;verticalAlign=middle;whiteSpace=wrap;rounded=0;" parent="zFZnpQMPPgIZC6EG3GRi-179" vertex="1">
          <mxGeometry x="435.47" y="1094" width="60" height="30" as="geometry" />
        </mxCell>
        <mxCell id="zFZnpQMPPgIZC6EG3GRi-608" value="Yes" style="text;html=1;align=center;verticalAlign=middle;whiteSpace=wrap;rounded=0;" parent="zFZnpQMPPgIZC6EG3GRi-179" vertex="1">
          <mxGeometry x="70" y="1094" width="60" height="30" as="geometry" />
        </mxCell>
        <mxCell id="zFZnpQMPPgIZC6EG3GRi-630" value="Yes" style="text;html=1;align=center;verticalAlign=middle;whiteSpace=wrap;rounded=0;" parent="zFZnpQMPPgIZC6EG3GRi-179" vertex="1">
          <mxGeometry x="80" y="714" width="60" height="30" as="geometry" />
        </mxCell>
        <mxCell id="zFZnpQMPPgIZC6EG3GRi-631" value="Yes" style="text;html=1;align=center;verticalAlign=middle;whiteSpace=wrap;rounded=0;" parent="zFZnpQMPPgIZC6EG3GRi-179" vertex="1">
          <mxGeometry x="70" y="584" width="60" height="30" as="geometry" />
        </mxCell>
        <mxCell id="zFZnpQMPPgIZC6EG3GRi-632" value="Error : &#xa;Invalid Option" style="fillColor=#b0e3e6;strokeColor=#0e8088;" parent="zFZnpQMPPgIZC6EG3GRi-179" vertex="1">
          <mxGeometry x="120" y="236" width="110" height="60" as="geometry" />
        </mxCell>
        <mxCell id="hJ_k2YnnxtzIP6E0c1w8-39" style="edgeStyle=orthogonalEdgeStyle;rounded=0;orthogonalLoop=1;jettySize=auto;html=1;entryX=0.5;entryY=1;entryDx=0;entryDy=0;" edge="1" parent="zFZnpQMPPgIZC6EG3GRi-179" source="hJ_k2YnnxtzIP6E0c1w8-36" target="zFZnpQMPPgIZC6EG3GRi-525">
          <mxGeometry relative="1" as="geometry" />
        </mxCell>
        <mxCell id="hJ_k2YnnxtzIP6E0c1w8-36" value="Choice == Stop Job(s)" style="rhombus;fillColor=#b0e3e6;strokeColor=#0e8088;" vertex="1" parent="zFZnpQMPPgIZC6EG3GRi-179">
          <mxGeometry x="100" y="920" width="150" height="88" as="geometry" />
        </mxCell>
        <mxCell id="hJ_k2YnnxtzIP6E0c1w8-38" value="No" style="text;html=1;align=center;verticalAlign=middle;whiteSpace=wrap;rounded=0;" vertex="1" parent="zFZnpQMPPgIZC6EG3GRi-179">
          <mxGeometry x="190" y="756" width="60" height="30" as="geometry" />
        </mxCell>
        <mxCell id="hJ_k2YnnxtzIP6E0c1w8-41" value="Yes" style="text;html=1;align=center;verticalAlign=middle;whiteSpace=wrap;rounded=0;" vertex="1" parent="zFZnpQMPPgIZC6EG3GRi-179">
          <mxGeometry x="40" y="815" width="60" height="30" as="geometry" />
        </mxCell>
        <mxCell id="hJ_k2YnnxtzIP6E0c1w8-43" style="edgeStyle=orthogonalEdgeStyle;rounded=0;orthogonalLoop=1;jettySize=auto;html=1;entryX=0.5;entryY=1;entryDx=0;entryDy=0;" edge="1" parent="zFZnpQMPPgIZC6EG3GRi-179" source="hJ_k2YnnxtzIP6E0c1w8-42" target="hJ_k2YnnxtzIP6E0c1w8-36">
          <mxGeometry relative="1" as="geometry" />
        </mxCell>
        <mxCell id="hJ_k2YnnxtzIP6E0c1w8-42" value="Choice == Pause Job(s)" style="rhombus;fillColor=#b0e3e6;strokeColor=#0e8088;" vertex="1" parent="zFZnpQMPPgIZC6EG3GRi-179">
          <mxGeometry x="100" y="1026" width="150" height="88" as="geometry" />
        </mxCell>
        <mxCell id="hJ_k2YnnxtzIP6E0c1w8-44" value="No" style="text;html=1;align=center;verticalAlign=middle;whiteSpace=wrap;rounded=0;" vertex="1" parent="zFZnpQMPPgIZC6EG3GRi-179">
          <mxGeometry x="190" y="1008" width="60" height="30" as="geometry" />
        </mxCell>
        <mxCell id="hJ_k2YnnxtzIP6E0c1w8-47" value="Yes" style="text;html=1;align=center;verticalAlign=middle;whiteSpace=wrap;rounded=0;" vertex="1" parent="zFZnpQMPPgIZC6EG3GRi-179">
          <mxGeometry x="50" y="920" width="60" height="30" as="geometry" />
        </mxCell>
        <mxCell id="zFZnpQMPPgIZC6EG3GRi-514" value="Easy Save Application Delete Popup" style="swimlane;whiteSpace=wrap;fillColor=#f8cecc;strokeColor=#b85450;swimlaneLine=1;container=0;" parent="1" vertex="1">
          <mxGeometry x="-1430" y="1990" width="454.11" height="160" as="geometry">
            <mxRectangle x="200" y="-610" width="80" height="30" as="alternateBounds" />
          </mxGeometry>
        </mxCell>
        <mxCell id="zFZnpQMPPgIZC6EG3GRi-524" style="edgeStyle=orthogonalEdgeStyle;rounded=0;orthogonalLoop=1;jettySize=auto;html=1;exitX=0.5;exitY=1;exitDx=0;exitDy=0;endArrow=none;startFill=0;" parent="zFZnpQMPPgIZC6EG3GRi-514" source="zFZnpQMPPgIZC6EG3GRi-516" edge="1">
          <mxGeometry relative="1" as="geometry">
            <mxPoint x="-140" y="180" as="targetPoint" />
            <Array as="points">
              <mxPoint x="355" y="180" />
            </Array>
          </mxGeometry>
        </mxCell>
        <mxCell id="zFZnpQMPPgIZC6EG3GRi-516" value="Choice == Confirm &#xa;Delete Job ?" style="rhombus;fillColor=#f8cecc;strokeColor=#b85450;" parent="zFZnpQMPPgIZC6EG3GRi-514" vertex="1">
          <mxGeometry x="279.9999999999999" y="50" width="150" height="88" as="geometry" />
        </mxCell>
        <mxCell id="zFZnpQMPPgIZC6EG3GRi-523" style="edgeStyle=orthogonalEdgeStyle;rounded=0;orthogonalLoop=1;jettySize=auto;html=1;exitX=0;exitY=0.5;exitDx=0;exitDy=0;endArrow=none;startFill=0;" parent="zFZnpQMPPgIZC6EG3GRi-514" source="zFZnpQMPPgIZC6EG3GRi-517" edge="1">
          <mxGeometry relative="1" as="geometry">
            <mxPoint x="-140" y="94" as="targetPoint" />
          </mxGeometry>
        </mxCell>
        <mxCell id="zFZnpQMPPgIZC6EG3GRi-517" value="Delete Selected Job" style="fillColor=#f8cecc;strokeColor=#b85450;" parent="zFZnpQMPPgIZC6EG3GRi-514" vertex="1">
          <mxGeometry x="10" y="67" width="170" height="54" as="geometry" />
        </mxCell>
        <mxCell id="zFZnpQMPPgIZC6EG3GRi-518" value="" style="endArrow=classic;html=1;rounded=0;exitX=0;exitY=0.5;exitDx=0;exitDy=0;entryX=1;entryY=0.5;entryDx=0;entryDy=0;" parent="zFZnpQMPPgIZC6EG3GRi-514" source="zFZnpQMPPgIZC6EG3GRi-516" target="zFZnpQMPPgIZC6EG3GRi-517" edge="1">
          <mxGeometry width="50" height="50" relative="1" as="geometry">
            <mxPoint x="40" y="-80" as="sourcePoint" />
            <mxPoint x="90" y="-130" as="targetPoint" />
          </mxGeometry>
        </mxCell>
        <mxCell id="zFZnpQMPPgIZC6EG3GRi-519" value="Yes" style="text;html=1;align=center;verticalAlign=middle;whiteSpace=wrap;rounded=0;" parent="zFZnpQMPPgIZC6EG3GRi-514" vertex="1">
          <mxGeometry x="220" y="50" width="60" height="30" as="geometry" />
        </mxCell>
        <mxCell id="zFZnpQMPPgIZC6EG3GRi-521" value="No" style="text;html=1;align=center;verticalAlign=middle;whiteSpace=wrap;rounded=0;" parent="zFZnpQMPPgIZC6EG3GRi-514" vertex="1">
          <mxGeometry x="240" y="121" width="60" height="30" as="geometry" />
        </mxCell>
        <mxCell id="zFZnpQMPPgIZC6EG3GRi-527" value="Easy Save Application Run Option" style="swimlane;whiteSpace=wrap;fillColor=#dae8fc;strokeColor=#6c8ebf;swimlaneLine=1;container=0;" parent="1" vertex="1">
          <mxGeometry x="-1550" y="1678" width="373.56" height="270" as="geometry">
            <mxRectangle x="200" y="-610" width="80" height="30" as="alternateBounds" />
          </mxGeometry>
        </mxCell>
        <mxCell id="zFZnpQMPPgIZC6EG3GRi-539" style="edgeStyle=orthogonalEdgeStyle;rounded=0;orthogonalLoop=1;jettySize=auto;html=1;exitX=1;exitY=0.5;exitDx=0;exitDy=0;entryX=0.5;entryY=0;entryDx=0;entryDy=0;" parent="zFZnpQMPPgIZC6EG3GRi-527" source="zFZnpQMPPgIZC6EG3GRi-535" target="zFZnpQMPPgIZC6EG3GRi-537" edge="1">
          <mxGeometry relative="1" as="geometry">
            <Array as="points">
              <mxPoint x="276" y="94" />
            </Array>
          </mxGeometry>
        </mxCell>
        <mxCell id="zFZnpQMPPgIZC6EG3GRi-540" style="edgeStyle=orthogonalEdgeStyle;rounded=0;orthogonalLoop=1;jettySize=auto;html=1;exitX=0;exitY=0.5;exitDx=0;exitDy=0;entryX=0.5;entryY=0;entryDx=0;entryDy=0;" parent="zFZnpQMPPgIZC6EG3GRi-527" source="zFZnpQMPPgIZC6EG3GRi-535" target="zFZnpQMPPgIZC6EG3GRi-536" edge="1">
          <mxGeometry relative="1" as="geometry">
            <Array as="points">
              <mxPoint x="96" y="94" />
            </Array>
          </mxGeometry>
        </mxCell>
        <mxCell id="zFZnpQMPPgIZC6EG3GRi-535" value="Is there a job selected ?" style="rhombus;fillColor=#dae8fc;strokeColor=#6c8ebf;" parent="zFZnpQMPPgIZC6EG3GRi-527" vertex="1">
          <mxGeometry x="111.78" y="50" width="150" height="88" as="geometry" />
        </mxCell>
        <mxCell id="zFZnpQMPPgIZC6EG3GRi-536" value="Execute all backup jobs" style="fillColor=#dae8fc;strokeColor=#6c8ebf;" parent="zFZnpQMPPgIZC6EG3GRi-527" vertex="1">
          <mxGeometry x="9.9999999999999" y="190" width="171.78" height="60" as="geometry" />
        </mxCell>
        <mxCell id="zFZnpQMPPgIZC6EG3GRi-537" value="Error : No job to run" style="fillColor=#dae8fc;strokeColor=#6c8ebf;" parent="zFZnpQMPPgIZC6EG3GRi-527" vertex="1">
          <mxGeometry x="189.99999999999997" y="190" width="171.78" height="60" as="geometry" />
        </mxCell>
        <mxCell id="zFZnpQMPPgIZC6EG3GRi-543" value="No" style="text;html=1;align=center;verticalAlign=middle;whiteSpace=wrap;rounded=0;" parent="zFZnpQMPPgIZC6EG3GRi-527" vertex="1">
          <mxGeometry x="290" y="138" width="60" height="30" as="geometry" />
        </mxCell>
        <mxCell id="zFZnpQMPPgIZC6EG3GRi-544" value="Yes" style="text;html=1;align=center;verticalAlign=middle;whiteSpace=wrap;rounded=0;" parent="zFZnpQMPPgIZC6EG3GRi-527" vertex="1">
          <mxGeometry x="20" y="130" width="60" height="30" as="geometry" />
        </mxCell>
        <mxCell id="zFZnpQMPPgIZC6EG3GRi-538" style="edgeStyle=orthogonalEdgeStyle;rounded=0;orthogonalLoop=1;jettySize=auto;html=1;exitX=0;exitY=0.5;exitDx=0;exitDy=0;entryX=0.5;entryY=0;entryDx=0;entryDy=0;" parent="1" source="zFZnpQMPPgIZC6EG3GRi-525" target="zFZnpQMPPgIZC6EG3GRi-535" edge="1">
          <mxGeometry relative="1" as="geometry">
            <Array as="points">
              <mxPoint x="-1363" y="1710" />
            </Array>
          </mxGeometry>
        </mxCell>
        <mxCell id="zFZnpQMPPgIZC6EG3GRi-541" style="edgeStyle=orthogonalEdgeStyle;rounded=0;orthogonalLoop=1;jettySize=auto;html=1;entryX=0;entryY=0.5;entryDx=0;entryDy=0;" parent="1" source="zFZnpQMPPgIZC6EG3GRi-537" target="zFZnpQMPPgIZC6EG3GRi-154" edge="1">
          <mxGeometry relative="1" as="geometry">
            <Array as="points">
              <mxPoint x="-1140" y="1898" />
              <mxPoint x="-1140" y="910" />
            </Array>
          </mxGeometry>
        </mxCell>
        <mxCell id="zFZnpQMPPgIZC6EG3GRi-542" style="edgeStyle=orthogonalEdgeStyle;rounded=0;orthogonalLoop=1;jettySize=auto;html=1;entryX=0;entryY=0.5;entryDx=0;entryDy=0;exitX=0;exitY=0.5;exitDx=0;exitDy=0;" parent="1" source="zFZnpQMPPgIZC6EG3GRi-536" target="zFZnpQMPPgIZC6EG3GRi-154" edge="1">
          <mxGeometry relative="1" as="geometry">
            <Array as="points">
              <mxPoint x="-1570" y="1898" />
              <mxPoint x="-1570" y="910" />
            </Array>
          </mxGeometry>
        </mxCell>
        <mxCell id="zFZnpQMPPgIZC6EG3GRi-563" style="edgeStyle=orthogonalEdgeStyle;rounded=0;orthogonalLoop=1;jettySize=auto;html=1;exitX=0.5;exitY=1;exitDx=0;exitDy=0;entryX=0.5;entryY=0;entryDx=0;entryDy=0;" parent="1" source="zFZnpQMPPgIZC6EG3GRi-561" target="zFZnpQMPPgIZC6EG3GRi-156" edge="1">
          <mxGeometry relative="1" as="geometry" />
        </mxCell>
        <mxCell id="zFZnpQMPPgIZC6EG3GRi-612" value="Easy Save Application Daily Log Option" style="swimlane;whiteSpace=wrap;fillColor=#dae8fc;strokeColor=#6c8ebf;swimlaneLine=1;container=0;" parent="1" vertex="1">
          <mxGeometry x="-1550" y="1010" width="373.56" height="270" as="geometry">
            <mxRectangle x="200" y="-610" width="80" height="30" as="alternateBounds" />
          </mxGeometry>
        </mxCell>
        <mxCell id="zFZnpQMPPgIZC6EG3GRi-613" style="edgeStyle=orthogonalEdgeStyle;rounded=0;orthogonalLoop=1;jettySize=auto;html=1;exitX=1;exitY=0.5;exitDx=0;exitDy=0;entryX=0.5;entryY=0;entryDx=0;entryDy=0;" parent="zFZnpQMPPgIZC6EG3GRi-612" source="zFZnpQMPPgIZC6EG3GRi-615" target="zFZnpQMPPgIZC6EG3GRi-617" edge="1">
          <mxGeometry relative="1" as="geometry">
            <Array as="points">
              <mxPoint x="276" y="94" />
            </Array>
          </mxGeometry>
        </mxCell>
        <mxCell id="zFZnpQMPPgIZC6EG3GRi-614" style="edgeStyle=orthogonalEdgeStyle;rounded=0;orthogonalLoop=1;jettySize=auto;html=1;exitX=0;exitY=0.5;exitDx=0;exitDy=0;entryX=0.5;entryY=0;entryDx=0;entryDy=0;" parent="zFZnpQMPPgIZC6EG3GRi-612" source="zFZnpQMPPgIZC6EG3GRi-615" target="zFZnpQMPPgIZC6EG3GRi-616" edge="1">
          <mxGeometry relative="1" as="geometry">
            <Array as="points">
              <mxPoint x="96" y="94" />
            </Array>
          </mxGeometry>
        </mxCell>
        <mxCell id="zFZnpQMPPgIZC6EG3GRi-615" value="Is there a daily log file?" style="rhombus;fillColor=#dae8fc;strokeColor=#6c8ebf;" parent="zFZnpQMPPgIZC6EG3GRi-612" vertex="1">
          <mxGeometry x="111.78" y="50" width="150" height="88" as="geometry" />
        </mxCell>
        <mxCell id="zFZnpQMPPgIZC6EG3GRi-616" value="Open daily log file" style="fillColor=#dae8fc;strokeColor=#6c8ebf;" parent="zFZnpQMPPgIZC6EG3GRi-612" vertex="1">
          <mxGeometry x="9.9999999999999" y="190" width="171.78" height="60" as="geometry" />
        </mxCell>
        <mxCell id="zFZnpQMPPgIZC6EG3GRi-617" value="Error : No daily log file" style="fillColor=#dae8fc;strokeColor=#6c8ebf;" parent="zFZnpQMPPgIZC6EG3GRi-612" vertex="1">
          <mxGeometry x="189.99999999999997" y="190" width="171.78" height="60" as="geometry" />
        </mxCell>
        <mxCell id="zFZnpQMPPgIZC6EG3GRi-618" value="No" style="text;html=1;align=center;verticalAlign=middle;whiteSpace=wrap;rounded=0;" parent="zFZnpQMPPgIZC6EG3GRi-612" vertex="1">
          <mxGeometry x="290" y="138" width="60" height="30" as="geometry" />
        </mxCell>
        <mxCell id="zFZnpQMPPgIZC6EG3GRi-619" value="Yes" style="text;html=1;align=center;verticalAlign=middle;whiteSpace=wrap;rounded=0;" parent="zFZnpQMPPgIZC6EG3GRi-612" vertex="1">
          <mxGeometry x="20" y="130" width="60" height="30" as="geometry" />
        </mxCell>
        <mxCell id="zFZnpQMPPgIZC6EG3GRi-620" value="Easy Save Application Status Log Option" style="swimlane;whiteSpace=wrap;fillColor=#dae8fc;strokeColor=#6c8ebf;swimlaneLine=1;container=0;" parent="1" vertex="1">
          <mxGeometry x="-1543.56" y="1320" width="373.56" height="270" as="geometry">
            <mxRectangle x="200" y="-610" width="80" height="30" as="alternateBounds" />
          </mxGeometry>
        </mxCell>
        <mxCell id="zFZnpQMPPgIZC6EG3GRi-621" style="edgeStyle=orthogonalEdgeStyle;rounded=0;orthogonalLoop=1;jettySize=auto;html=1;exitX=1;exitY=0.5;exitDx=0;exitDy=0;entryX=0.5;entryY=0;entryDx=0;entryDy=0;" parent="zFZnpQMPPgIZC6EG3GRi-620" source="zFZnpQMPPgIZC6EG3GRi-623" target="zFZnpQMPPgIZC6EG3GRi-625" edge="1">
          <mxGeometry relative="1" as="geometry">
            <Array as="points">
              <mxPoint x="276" y="94" />
            </Array>
          </mxGeometry>
        </mxCell>
        <mxCell id="zFZnpQMPPgIZC6EG3GRi-622" style="edgeStyle=orthogonalEdgeStyle;rounded=0;orthogonalLoop=1;jettySize=auto;html=1;exitX=0;exitY=0.5;exitDx=0;exitDy=0;entryX=0.5;entryY=0;entryDx=0;entryDy=0;" parent="zFZnpQMPPgIZC6EG3GRi-620" source="zFZnpQMPPgIZC6EG3GRi-623" target="zFZnpQMPPgIZC6EG3GRi-624" edge="1">
          <mxGeometry relative="1" as="geometry">
            <Array as="points">
              <mxPoint x="96" y="94" />
            </Array>
          </mxGeometry>
        </mxCell>
        <mxCell id="zFZnpQMPPgIZC6EG3GRi-623" value="Is there a status log file?" style="rhombus;fillColor=#dae8fc;strokeColor=#6c8ebf;" parent="zFZnpQMPPgIZC6EG3GRi-620" vertex="1">
          <mxGeometry x="111.78" y="50" width="150" height="88" as="geometry" />
        </mxCell>
        <mxCell id="zFZnpQMPPgIZC6EG3GRi-624" value="Open status log file" style="fillColor=#dae8fc;strokeColor=#6c8ebf;" parent="zFZnpQMPPgIZC6EG3GRi-620" vertex="1">
          <mxGeometry x="9.9999999999999" y="190" width="171.78" height="60" as="geometry" />
        </mxCell>
        <mxCell id="zFZnpQMPPgIZC6EG3GRi-625" value="Error : No status log file" style="fillColor=#dae8fc;strokeColor=#6c8ebf;" parent="zFZnpQMPPgIZC6EG3GRi-620" vertex="1">
          <mxGeometry x="189.99999999999997" y="190" width="171.78" height="60" as="geometry" />
        </mxCell>
        <mxCell id="zFZnpQMPPgIZC6EG3GRi-626" value="No" style="text;html=1;align=center;verticalAlign=middle;whiteSpace=wrap;rounded=0;" parent="zFZnpQMPPgIZC6EG3GRi-620" vertex="1">
          <mxGeometry x="290" y="138" width="60" height="30" as="geometry" />
        </mxCell>
        <mxCell id="zFZnpQMPPgIZC6EG3GRi-627" value="Yes" style="text;html=1;align=center;verticalAlign=middle;whiteSpace=wrap;rounded=0;" parent="zFZnpQMPPgIZC6EG3GRi-620" vertex="1">
          <mxGeometry x="20" y="130" width="60" height="30" as="geometry" />
        </mxCell>
        <mxCell id="zFZnpQMPPgIZC6EG3GRi-628" style="edgeStyle=orthogonalEdgeStyle;rounded=0;orthogonalLoop=1;jettySize=auto;html=1;entryX=0.5;entryY=0;entryDx=0;entryDy=0;" parent="1" source="zFZnpQMPPgIZC6EG3GRi-573" target="zFZnpQMPPgIZC6EG3GRi-615" edge="1">
          <mxGeometry relative="1" as="geometry">
            <Array as="points">
              <mxPoint x="-1100" y="1404" />
              <mxPoint x="-1100" y="1050" />
              <mxPoint x="-1363" y="1050" />
            </Array>
          </mxGeometry>
        </mxCell>
        <mxCell id="zFZnpQMPPgIZC6EG3GRi-629" style="edgeStyle=orthogonalEdgeStyle;rounded=0;orthogonalLoop=1;jettySize=auto;html=1;entryX=0.5;entryY=0;entryDx=0;entryDy=0;" parent="1" source="zFZnpQMPPgIZC6EG3GRi-572" target="zFZnpQMPPgIZC6EG3GRi-623" edge="1">
          <mxGeometry relative="1" as="geometry">
            <Array as="points">
              <mxPoint x="-1120" y="1534" />
              <mxPoint x="-1120" y="1360" />
              <mxPoint x="-1357" y="1360" />
            </Array>
          </mxGeometry>
        </mxCell>
        <mxCell id="zFZnpQMPPgIZC6EG3GRi-634" style="edgeStyle=orthogonalEdgeStyle;rounded=0;orthogonalLoop=1;jettySize=auto;html=1;entryX=0;entryY=0.5;entryDx=0;entryDy=0;exitX=0.5;exitY=0;exitDx=0;exitDy=0;" parent="1" source="zFZnpQMPPgIZC6EG3GRi-632" target="zFZnpQMPPgIZC6EG3GRi-154" edge="1">
          <mxGeometry relative="1" as="geometry" />
        </mxCell>
        <mxCell id="hJ_k2YnnxtzIP6E0c1w8-20" value="Easy Save Application Pause Option" style="swimlane;whiteSpace=wrap;fillColor=#dae8fc;strokeColor=#6c8ebf;swimlaneLine=1;container=0;" vertex="1" parent="1">
          <mxGeometry x="-1990" y="1860" width="373.56" height="270" as="geometry">
            <mxRectangle x="200" y="-610" width="80" height="30" as="alternateBounds" />
          </mxGeometry>
        </mxCell>
        <mxCell id="hJ_k2YnnxtzIP6E0c1w8-21" style="edgeStyle=orthogonalEdgeStyle;rounded=0;orthogonalLoop=1;jettySize=auto;html=1;exitX=1;exitY=0.5;exitDx=0;exitDy=0;entryX=0.5;entryY=0;entryDx=0;entryDy=0;" edge="1" parent="hJ_k2YnnxtzIP6E0c1w8-20" source="hJ_k2YnnxtzIP6E0c1w8-23" target="hJ_k2YnnxtzIP6E0c1w8-25">
          <mxGeometry relative="1" as="geometry">
            <Array as="points">
              <mxPoint x="276" y="94" />
            </Array>
          </mxGeometry>
        </mxCell>
        <mxCell id="hJ_k2YnnxtzIP6E0c1w8-22" style="edgeStyle=orthogonalEdgeStyle;rounded=0;orthogonalLoop=1;jettySize=auto;html=1;exitX=0;exitY=0.5;exitDx=0;exitDy=0;entryX=0.5;entryY=0;entryDx=0;entryDy=0;" edge="1" parent="hJ_k2YnnxtzIP6E0c1w8-20" source="hJ_k2YnnxtzIP6E0c1w8-23" target="hJ_k2YnnxtzIP6E0c1w8-24">
          <mxGeometry relative="1" as="geometry">
            <Array as="points">
              <mxPoint x="96" y="94" />
            </Array>
          </mxGeometry>
        </mxCell>
        <mxCell id="hJ_k2YnnxtzIP6E0c1w8-23" value="Is there a job selected ?" style="rhombus;fillColor=#dae8fc;strokeColor=#6c8ebf;" vertex="1" parent="hJ_k2YnnxtzIP6E0c1w8-20">
          <mxGeometry x="111.78" y="50" width="150" height="88" as="geometry" />
        </mxCell>
        <mxCell id="hJ_k2YnnxtzIP6E0c1w8-24" value="Pause selected backup jobs" style="fillColor=#dae8fc;strokeColor=#6c8ebf;" vertex="1" parent="hJ_k2YnnxtzIP6E0c1w8-20">
          <mxGeometry x="9.9999999999999" y="190" width="171.78" height="60" as="geometry" />
        </mxCell>
        <mxCell id="hJ_k2YnnxtzIP6E0c1w8-25" value="Error : No job to pause" style="fillColor=#dae8fc;strokeColor=#6c8ebf;" vertex="1" parent="hJ_k2YnnxtzIP6E0c1w8-20">
          <mxGeometry x="189.99999999999997" y="190" width="171.78" height="60" as="geometry" />
        </mxCell>
        <mxCell id="hJ_k2YnnxtzIP6E0c1w8-26" value="No" style="text;html=1;align=center;verticalAlign=middle;whiteSpace=wrap;rounded=0;" vertex="1" parent="hJ_k2YnnxtzIP6E0c1w8-20">
          <mxGeometry x="290" y="138" width="60" height="30" as="geometry" />
        </mxCell>
        <mxCell id="hJ_k2YnnxtzIP6E0c1w8-27" value="Yes" style="text;html=1;align=center;verticalAlign=middle;whiteSpace=wrap;rounded=0;" vertex="1" parent="hJ_k2YnnxtzIP6E0c1w8-20">
          <mxGeometry x="20" y="130" width="60" height="30" as="geometry" />
        </mxCell>
        <mxCell id="hJ_k2YnnxtzIP6E0c1w8-28" value="Easy Save Application Stop Option" style="swimlane;whiteSpace=wrap;fillColor=#dae8fc;strokeColor=#6c8ebf;swimlaneLine=1;container=0;" vertex="1" parent="1">
          <mxGeometry x="-1990" y="1500" width="373.56" height="270" as="geometry">
            <mxRectangle x="200" y="-610" width="80" height="30" as="alternateBounds" />
          </mxGeometry>
        </mxCell>
        <mxCell id="hJ_k2YnnxtzIP6E0c1w8-29" style="edgeStyle=orthogonalEdgeStyle;rounded=0;orthogonalLoop=1;jettySize=auto;html=1;exitX=1;exitY=0.5;exitDx=0;exitDy=0;entryX=0.5;entryY=0;entryDx=0;entryDy=0;" edge="1" parent="hJ_k2YnnxtzIP6E0c1w8-28" source="hJ_k2YnnxtzIP6E0c1w8-31" target="hJ_k2YnnxtzIP6E0c1w8-33">
          <mxGeometry relative="1" as="geometry">
            <Array as="points">
              <mxPoint x="276" y="94" />
            </Array>
          </mxGeometry>
        </mxCell>
        <mxCell id="hJ_k2YnnxtzIP6E0c1w8-30" style="edgeStyle=orthogonalEdgeStyle;rounded=0;orthogonalLoop=1;jettySize=auto;html=1;exitX=0;exitY=0.5;exitDx=0;exitDy=0;entryX=0.5;entryY=0;entryDx=0;entryDy=0;" edge="1" parent="hJ_k2YnnxtzIP6E0c1w8-28" source="hJ_k2YnnxtzIP6E0c1w8-31" target="hJ_k2YnnxtzIP6E0c1w8-32">
          <mxGeometry relative="1" as="geometry">
            <Array as="points">
              <mxPoint x="96" y="94" />
            </Array>
          </mxGeometry>
        </mxCell>
        <mxCell id="hJ_k2YnnxtzIP6E0c1w8-31" value="Is there a job selected ?" style="rhombus;fillColor=#dae8fc;strokeColor=#6c8ebf;" vertex="1" parent="hJ_k2YnnxtzIP6E0c1w8-28">
          <mxGeometry x="111.78" y="50" width="150" height="88" as="geometry" />
        </mxCell>
        <mxCell id="hJ_k2YnnxtzIP6E0c1w8-32" value="Stop selected backup jobs" style="fillColor=#dae8fc;strokeColor=#6c8ebf;" vertex="1" parent="hJ_k2YnnxtzIP6E0c1w8-28">
          <mxGeometry x="9.9999999999999" y="190" width="171.78" height="60" as="geometry" />
        </mxCell>
        <mxCell id="hJ_k2YnnxtzIP6E0c1w8-33" value="Error : No job to stop" style="fillColor=#dae8fc;strokeColor=#6c8ebf;" vertex="1" parent="hJ_k2YnnxtzIP6E0c1w8-28">
          <mxGeometry x="189.99999999999997" y="190" width="171.78" height="60" as="geometry" />
        </mxCell>
        <mxCell id="hJ_k2YnnxtzIP6E0c1w8-34" value="No" style="text;html=1;align=center;verticalAlign=middle;whiteSpace=wrap;rounded=0;" vertex="1" parent="hJ_k2YnnxtzIP6E0c1w8-28">
          <mxGeometry x="290" y="138" width="60" height="30" as="geometry" />
        </mxCell>
        <mxCell id="hJ_k2YnnxtzIP6E0c1w8-35" value="Yes" style="text;html=1;align=center;verticalAlign=middle;whiteSpace=wrap;rounded=0;" vertex="1" parent="hJ_k2YnnxtzIP6E0c1w8-28">
          <mxGeometry x="20" y="130" width="60" height="30" as="geometry" />
        </mxCell>
        <mxCell id="hJ_k2YnnxtzIP6E0c1w8-45" style="edgeStyle=orthogonalEdgeStyle;rounded=0;orthogonalLoop=1;jettySize=auto;html=1;entryX=0.5;entryY=0;entryDx=0;entryDy=0;" edge="1" parent="1" source="hJ_k2YnnxtzIP6E0c1w8-42" target="hJ_k2YnnxtzIP6E0c1w8-23">
          <mxGeometry relative="1" as="geometry">
            <Array as="points">
              <mxPoint x="-995" y="1970" />
              <mxPoint x="-1600" y="1970" />
              <mxPoint x="-1600" y="1890" />
              <mxPoint x="-1803" y="1890" />
            </Array>
          </mxGeometry>
        </mxCell>
        <mxCell id="hJ_k2YnnxtzIP6E0c1w8-46" style="edgeStyle=orthogonalEdgeStyle;rounded=0;orthogonalLoop=1;jettySize=auto;html=1;entryX=0.5;entryY=0;entryDx=0;entryDy=0;" edge="1" parent="1" source="hJ_k2YnnxtzIP6E0c1w8-36" target="hJ_k2YnnxtzIP6E0c1w8-31">
          <mxGeometry relative="1" as="geometry">
            <Array as="points">
              <mxPoint x="-1120" y="1798" />
              <mxPoint x="-1120" y="1650" />
              <mxPoint x="-1590" y="1650" />
              <mxPoint x="-1590" y="1530" />
              <mxPoint x="-1803" y="1530" />
            </Array>
          </mxGeometry>
        </mxCell>
        <mxCell id="hJ_k2YnnxtzIP6E0c1w8-48" style="edgeStyle=orthogonalEdgeStyle;rounded=0;orthogonalLoop=1;jettySize=auto;html=1;entryX=0;entryY=0.5;entryDx=0;entryDy=0;" edge="1" parent="1" source="hJ_k2YnnxtzIP6E0c1w8-33" target="zFZnpQMPPgIZC6EG3GRi-154">
          <mxGeometry relative="1" as="geometry">
            <Array as="points">
              <mxPoint x="-1714" y="1790" />
              <mxPoint x="-2070" y="1790" />
              <mxPoint x="-2070" y="910" />
            </Array>
          </mxGeometry>
        </mxCell>
        <mxCell id="hJ_k2YnnxtzIP6E0c1w8-49" style="edgeStyle=orthogonalEdgeStyle;rounded=0;orthogonalLoop=1;jettySize=auto;html=1;entryX=0;entryY=0.5;entryDx=0;entryDy=0;" edge="1" parent="1" source="hJ_k2YnnxtzIP6E0c1w8-25" target="zFZnpQMPPgIZC6EG3GRi-154">
          <mxGeometry relative="1" as="geometry">
            <mxPoint x="-970" y="967.0909534801136" as="targetPoint" />
            <Array as="points">
              <mxPoint x="-1714" y="2150" />
              <mxPoint x="-2070" y="2150" />
              <mxPoint x="-2070" y="910" />
            </Array>
          </mxGeometry>
        </mxCell>
      </root>
    </mxGraphModel>
  </diagram>
</mxfile>
